%TF.GenerationSoftware,KiCad,Pcbnew,8.0.2-1*%
%TF.CreationDate,2024-05-28T17:37:15-06:00*%
%TF.ProjectId,magicreceiver,6d616769-6372-4656-9365-697665722e6b,rev?*%
%TF.SameCoordinates,Original*%
%TF.FileFunction,Legend,Bot*%
%TF.FilePolarity,Positive*%
%FSLAX46Y46*%
G04 Gerber Fmt 4.6, Leading zero omitted, Abs format (unit mm)*
G04 Created by KiCad (PCBNEW 8.0.2-1) date 2024-05-28 17:37:15*
%MOMM*%
%LPD*%
G01*
G04 APERTURE LIST*
%ADD10C,0.100000*%
%ADD11C,0.200000*%
%ADD12C,0.125000*%
%ADD13C,0.150000*%
%ADD14C,0.000000*%
%ADD15C,0.120000*%
G04 APERTURE END LIST*
D10*
X118745000Y-156667200D02*
X118821200Y-156667200D01*
X118567200Y-156489400D02*
X118745000Y-156667200D01*
X120142000Y-156489400D02*
X120319800Y-156667200D01*
X121691400Y-156464000D02*
X121894600Y-156667200D01*
X123393200Y-156337000D02*
X123037600Y-156667200D01*
X124866400Y-156337000D02*
X124536200Y-156667200D01*
X125996700Y-156667200D02*
X126326900Y-156337000D01*
X118770400Y-156667200D02*
X125984000Y-156667200D01*
D11*
X128125774Y-143414495D02*
X128125774Y-143985923D01*
X128125774Y-143985923D02*
X128163869Y-144100209D01*
X128163869Y-144100209D02*
X128240060Y-144176400D01*
X128240060Y-144176400D02*
X128354345Y-144214495D01*
X128354345Y-144214495D02*
X128430536Y-144214495D01*
X127363869Y-144214495D02*
X127744821Y-144214495D01*
X127744821Y-144214495D02*
X127744821Y-143414495D01*
X126640059Y-144138304D02*
X126678155Y-144176400D01*
X126678155Y-144176400D02*
X126792440Y-144214495D01*
X126792440Y-144214495D02*
X126868631Y-144214495D01*
X126868631Y-144214495D02*
X126982917Y-144176400D01*
X126982917Y-144176400D02*
X127059107Y-144100209D01*
X127059107Y-144100209D02*
X127097202Y-144024019D01*
X127097202Y-144024019D02*
X127135298Y-143871638D01*
X127135298Y-143871638D02*
X127135298Y-143757352D01*
X127135298Y-143757352D02*
X127097202Y-143604971D01*
X127097202Y-143604971D02*
X127059107Y-143528780D01*
X127059107Y-143528780D02*
X126982917Y-143452590D01*
X126982917Y-143452590D02*
X126868631Y-143414495D01*
X126868631Y-143414495D02*
X126792440Y-143414495D01*
X126792440Y-143414495D02*
X126678155Y-143452590D01*
X126678155Y-143452590D02*
X126640059Y-143490685D01*
X126068631Y-143414495D02*
X126068631Y-143985923D01*
X126068631Y-143985923D02*
X126106726Y-144100209D01*
X126106726Y-144100209D02*
X126182917Y-144176400D01*
X126182917Y-144176400D02*
X126297202Y-144214495D01*
X126297202Y-144214495D02*
X126373393Y-144214495D01*
X125306726Y-144214495D02*
X125687678Y-144214495D01*
X125687678Y-144214495D02*
X125687678Y-143414495D01*
X124582916Y-144138304D02*
X124621012Y-144176400D01*
X124621012Y-144176400D02*
X124735297Y-144214495D01*
X124735297Y-144214495D02*
X124811488Y-144214495D01*
X124811488Y-144214495D02*
X124925774Y-144176400D01*
X124925774Y-144176400D02*
X125001964Y-144100209D01*
X125001964Y-144100209D02*
X125040059Y-144024019D01*
X125040059Y-144024019D02*
X125078155Y-143871638D01*
X125078155Y-143871638D02*
X125078155Y-143757352D01*
X125078155Y-143757352D02*
X125040059Y-143604971D01*
X125040059Y-143604971D02*
X125001964Y-143528780D01*
X125001964Y-143528780D02*
X124925774Y-143452590D01*
X124925774Y-143452590D02*
X124811488Y-143414495D01*
X124811488Y-143414495D02*
X124735297Y-143414495D01*
X124735297Y-143414495D02*
X124621012Y-143452590D01*
X124621012Y-143452590D02*
X124582916Y-143490685D01*
X124011488Y-143414495D02*
X124011488Y-143985923D01*
X124011488Y-143985923D02*
X124049583Y-144100209D01*
X124049583Y-144100209D02*
X124125774Y-144176400D01*
X124125774Y-144176400D02*
X124240059Y-144214495D01*
X124240059Y-144214495D02*
X124316250Y-144214495D01*
X123249583Y-144214495D02*
X123630535Y-144214495D01*
X123630535Y-144214495D02*
X123630535Y-143414495D01*
X122525773Y-144138304D02*
X122563869Y-144176400D01*
X122563869Y-144176400D02*
X122678154Y-144214495D01*
X122678154Y-144214495D02*
X122754345Y-144214495D01*
X122754345Y-144214495D02*
X122868631Y-144176400D01*
X122868631Y-144176400D02*
X122944821Y-144100209D01*
X122944821Y-144100209D02*
X122982916Y-144024019D01*
X122982916Y-144024019D02*
X123021012Y-143871638D01*
X123021012Y-143871638D02*
X123021012Y-143757352D01*
X123021012Y-143757352D02*
X122982916Y-143604971D01*
X122982916Y-143604971D02*
X122944821Y-143528780D01*
X122944821Y-143528780D02*
X122868631Y-143452590D01*
X122868631Y-143452590D02*
X122754345Y-143414495D01*
X122754345Y-143414495D02*
X122678154Y-143414495D01*
X122678154Y-143414495D02*
X122563869Y-143452590D01*
X122563869Y-143452590D02*
X122525773Y-143490685D01*
X121954345Y-143414495D02*
X121954345Y-143985923D01*
X121954345Y-143985923D02*
X121992440Y-144100209D01*
X121992440Y-144100209D02*
X122068631Y-144176400D01*
X122068631Y-144176400D02*
X122182916Y-144214495D01*
X122182916Y-144214495D02*
X122259107Y-144214495D01*
X121192440Y-144214495D02*
X121573392Y-144214495D01*
X121573392Y-144214495D02*
X121573392Y-143414495D01*
X120468630Y-144138304D02*
X120506726Y-144176400D01*
X120506726Y-144176400D02*
X120621011Y-144214495D01*
X120621011Y-144214495D02*
X120697202Y-144214495D01*
X120697202Y-144214495D02*
X120811488Y-144176400D01*
X120811488Y-144176400D02*
X120887678Y-144100209D01*
X120887678Y-144100209D02*
X120925773Y-144024019D01*
X120925773Y-144024019D02*
X120963869Y-143871638D01*
X120963869Y-143871638D02*
X120963869Y-143757352D01*
X120963869Y-143757352D02*
X120925773Y-143604971D01*
X120925773Y-143604971D02*
X120887678Y-143528780D01*
X120887678Y-143528780D02*
X120811488Y-143452590D01*
X120811488Y-143452590D02*
X120697202Y-143414495D01*
X120697202Y-143414495D02*
X120621011Y-143414495D01*
X120621011Y-143414495D02*
X120506726Y-143452590D01*
X120506726Y-143452590D02*
X120468630Y-143490685D01*
D12*
X127579802Y-165743509D02*
X127746468Y-165505414D01*
X127865516Y-165743509D02*
X127865516Y-165243509D01*
X127865516Y-165243509D02*
X127675040Y-165243509D01*
X127675040Y-165243509D02*
X127627421Y-165267319D01*
X127627421Y-165267319D02*
X127603611Y-165291128D01*
X127603611Y-165291128D02*
X127579802Y-165338747D01*
X127579802Y-165338747D02*
X127579802Y-165410176D01*
X127579802Y-165410176D02*
X127603611Y-165457795D01*
X127603611Y-165457795D02*
X127627421Y-165481604D01*
X127627421Y-165481604D02*
X127675040Y-165505414D01*
X127675040Y-165505414D02*
X127865516Y-165505414D01*
X127151230Y-165743509D02*
X127151230Y-165481604D01*
X127151230Y-165481604D02*
X127175040Y-165433985D01*
X127175040Y-165433985D02*
X127222659Y-165410176D01*
X127222659Y-165410176D02*
X127317897Y-165410176D01*
X127317897Y-165410176D02*
X127365516Y-165433985D01*
X127151230Y-165719700D02*
X127198849Y-165743509D01*
X127198849Y-165743509D02*
X127317897Y-165743509D01*
X127317897Y-165743509D02*
X127365516Y-165719700D01*
X127365516Y-165719700D02*
X127389325Y-165672080D01*
X127389325Y-165672080D02*
X127389325Y-165624461D01*
X127389325Y-165624461D02*
X127365516Y-165576842D01*
X127365516Y-165576842D02*
X127317897Y-165553033D01*
X127317897Y-165553033D02*
X127198849Y-165553033D01*
X127198849Y-165553033D02*
X127151230Y-165529223D01*
X126913135Y-165743509D02*
X126913135Y-165410176D01*
X126913135Y-165243509D02*
X126936944Y-165267319D01*
X126936944Y-165267319D02*
X126913135Y-165291128D01*
X126913135Y-165291128D02*
X126889325Y-165267319D01*
X126889325Y-165267319D02*
X126913135Y-165243509D01*
X126913135Y-165243509D02*
X126913135Y-165291128D01*
X126722659Y-165410176D02*
X126460754Y-165410176D01*
X126460754Y-165410176D02*
X126722659Y-165743509D01*
X126722659Y-165743509D02*
X126460754Y-165743509D01*
X126055992Y-165410176D02*
X126055992Y-165743509D01*
X126270278Y-165410176D02*
X126270278Y-165672080D01*
X126270278Y-165672080D02*
X126246468Y-165719700D01*
X126246468Y-165719700D02*
X126198849Y-165743509D01*
X126198849Y-165743509D02*
X126127421Y-165743509D01*
X126127421Y-165743509D02*
X126079802Y-165719700D01*
X126079802Y-165719700D02*
X126055992Y-165695890D01*
X125460754Y-165291128D02*
X125436945Y-165267319D01*
X125436945Y-165267319D02*
X125389326Y-165243509D01*
X125389326Y-165243509D02*
X125270278Y-165243509D01*
X125270278Y-165243509D02*
X125222659Y-165267319D01*
X125222659Y-165267319D02*
X125198850Y-165291128D01*
X125198850Y-165291128D02*
X125175040Y-165338747D01*
X125175040Y-165338747D02*
X125175040Y-165386366D01*
X125175040Y-165386366D02*
X125198850Y-165457795D01*
X125198850Y-165457795D02*
X125484564Y-165743509D01*
X125484564Y-165743509D02*
X125175040Y-165743509D01*
X124865517Y-165243509D02*
X124817898Y-165243509D01*
X124817898Y-165243509D02*
X124770279Y-165267319D01*
X124770279Y-165267319D02*
X124746469Y-165291128D01*
X124746469Y-165291128D02*
X124722660Y-165338747D01*
X124722660Y-165338747D02*
X124698850Y-165433985D01*
X124698850Y-165433985D02*
X124698850Y-165553033D01*
X124698850Y-165553033D02*
X124722660Y-165648271D01*
X124722660Y-165648271D02*
X124746469Y-165695890D01*
X124746469Y-165695890D02*
X124770279Y-165719700D01*
X124770279Y-165719700D02*
X124817898Y-165743509D01*
X124817898Y-165743509D02*
X124865517Y-165743509D01*
X124865517Y-165743509D02*
X124913136Y-165719700D01*
X124913136Y-165719700D02*
X124936945Y-165695890D01*
X124936945Y-165695890D02*
X124960755Y-165648271D01*
X124960755Y-165648271D02*
X124984564Y-165553033D01*
X124984564Y-165553033D02*
X124984564Y-165433985D01*
X124984564Y-165433985D02*
X124960755Y-165338747D01*
X124960755Y-165338747D02*
X124936945Y-165291128D01*
X124936945Y-165291128D02*
X124913136Y-165267319D01*
X124913136Y-165267319D02*
X124865517Y-165243509D01*
X124508374Y-165291128D02*
X124484565Y-165267319D01*
X124484565Y-165267319D02*
X124436946Y-165243509D01*
X124436946Y-165243509D02*
X124317898Y-165243509D01*
X124317898Y-165243509D02*
X124270279Y-165267319D01*
X124270279Y-165267319D02*
X124246470Y-165291128D01*
X124246470Y-165291128D02*
X124222660Y-165338747D01*
X124222660Y-165338747D02*
X124222660Y-165386366D01*
X124222660Y-165386366D02*
X124246470Y-165457795D01*
X124246470Y-165457795D02*
X124532184Y-165743509D01*
X124532184Y-165743509D02*
X124222660Y-165743509D01*
X123794089Y-165410176D02*
X123794089Y-165743509D01*
X123913137Y-165219700D02*
X124032184Y-165576842D01*
X124032184Y-165576842D02*
X123722661Y-165576842D01*
X127902713Y-166157909D02*
X127736047Y-166657909D01*
X127736047Y-166657909D02*
X127569380Y-166157909D01*
X127212238Y-166634100D02*
X127259857Y-166657909D01*
X127259857Y-166657909D02*
X127355095Y-166657909D01*
X127355095Y-166657909D02*
X127402714Y-166634100D01*
X127402714Y-166634100D02*
X127426523Y-166586480D01*
X127426523Y-166586480D02*
X127426523Y-166396004D01*
X127426523Y-166396004D02*
X127402714Y-166348385D01*
X127402714Y-166348385D02*
X127355095Y-166324576D01*
X127355095Y-166324576D02*
X127259857Y-166324576D01*
X127259857Y-166324576D02*
X127212238Y-166348385D01*
X127212238Y-166348385D02*
X127188428Y-166396004D01*
X127188428Y-166396004D02*
X127188428Y-166443623D01*
X127188428Y-166443623D02*
X127426523Y-166491242D01*
X126974143Y-166657909D02*
X126974143Y-166324576D01*
X126974143Y-166419814D02*
X126950333Y-166372195D01*
X126950333Y-166372195D02*
X126926524Y-166348385D01*
X126926524Y-166348385D02*
X126878905Y-166324576D01*
X126878905Y-166324576D02*
X126831286Y-166324576D01*
X126688428Y-166634100D02*
X126640809Y-166657909D01*
X126640809Y-166657909D02*
X126545571Y-166657909D01*
X126545571Y-166657909D02*
X126497952Y-166634100D01*
X126497952Y-166634100D02*
X126474143Y-166586480D01*
X126474143Y-166586480D02*
X126474143Y-166562671D01*
X126474143Y-166562671D02*
X126497952Y-166515052D01*
X126497952Y-166515052D02*
X126545571Y-166491242D01*
X126545571Y-166491242D02*
X126617000Y-166491242D01*
X126617000Y-166491242D02*
X126664619Y-166467433D01*
X126664619Y-166467433D02*
X126688428Y-166419814D01*
X126688428Y-166419814D02*
X126688428Y-166396004D01*
X126688428Y-166396004D02*
X126664619Y-166348385D01*
X126664619Y-166348385D02*
X126617000Y-166324576D01*
X126617000Y-166324576D02*
X126545571Y-166324576D01*
X126545571Y-166324576D02*
X126497952Y-166348385D01*
X126259857Y-166657909D02*
X126259857Y-166324576D01*
X126259857Y-166157909D02*
X126283666Y-166181719D01*
X126283666Y-166181719D02*
X126259857Y-166205528D01*
X126259857Y-166205528D02*
X126236047Y-166181719D01*
X126236047Y-166181719D02*
X126259857Y-166157909D01*
X126259857Y-166157909D02*
X126259857Y-166205528D01*
X125950333Y-166657909D02*
X125997952Y-166634100D01*
X125997952Y-166634100D02*
X126021762Y-166610290D01*
X126021762Y-166610290D02*
X126045571Y-166562671D01*
X126045571Y-166562671D02*
X126045571Y-166419814D01*
X126045571Y-166419814D02*
X126021762Y-166372195D01*
X126021762Y-166372195D02*
X125997952Y-166348385D01*
X125997952Y-166348385D02*
X125950333Y-166324576D01*
X125950333Y-166324576D02*
X125878905Y-166324576D01*
X125878905Y-166324576D02*
X125831286Y-166348385D01*
X125831286Y-166348385D02*
X125807476Y-166372195D01*
X125807476Y-166372195D02*
X125783667Y-166419814D01*
X125783667Y-166419814D02*
X125783667Y-166562671D01*
X125783667Y-166562671D02*
X125807476Y-166610290D01*
X125807476Y-166610290D02*
X125831286Y-166634100D01*
X125831286Y-166634100D02*
X125878905Y-166657909D01*
X125878905Y-166657909D02*
X125950333Y-166657909D01*
X125569381Y-166324576D02*
X125569381Y-166657909D01*
X125569381Y-166372195D02*
X125545571Y-166348385D01*
X125545571Y-166348385D02*
X125497952Y-166324576D01*
X125497952Y-166324576D02*
X125426524Y-166324576D01*
X125426524Y-166324576D02*
X125378905Y-166348385D01*
X125378905Y-166348385D02*
X125355095Y-166396004D01*
X125355095Y-166396004D02*
X125355095Y-166657909D01*
X124474143Y-166657909D02*
X124759857Y-166657909D01*
X124617000Y-166657909D02*
X124617000Y-166157909D01*
X124617000Y-166157909D02*
X124664619Y-166229338D01*
X124664619Y-166229338D02*
X124712238Y-166276957D01*
X124712238Y-166276957D02*
X124759857Y-166300766D01*
X123664228Y-156107790D02*
X123688037Y-156131600D01*
X123688037Y-156131600D02*
X123759466Y-156155409D01*
X123759466Y-156155409D02*
X123807085Y-156155409D01*
X123807085Y-156155409D02*
X123878513Y-156131600D01*
X123878513Y-156131600D02*
X123926132Y-156083980D01*
X123926132Y-156083980D02*
X123949942Y-156036361D01*
X123949942Y-156036361D02*
X123973751Y-155941123D01*
X123973751Y-155941123D02*
X123973751Y-155869695D01*
X123973751Y-155869695D02*
X123949942Y-155774457D01*
X123949942Y-155774457D02*
X123926132Y-155726838D01*
X123926132Y-155726838D02*
X123878513Y-155679219D01*
X123878513Y-155679219D02*
X123807085Y-155655409D01*
X123807085Y-155655409D02*
X123759466Y-155655409D01*
X123759466Y-155655409D02*
X123688037Y-155679219D01*
X123688037Y-155679219D02*
X123664228Y-155703028D01*
X123188037Y-156155409D02*
X123473751Y-156155409D01*
X123330894Y-156155409D02*
X123330894Y-155655409D01*
X123330894Y-155655409D02*
X123378513Y-155726838D01*
X123378513Y-155726838D02*
X123426132Y-155774457D01*
X123426132Y-155774457D02*
X123473751Y-155798266D01*
X122878514Y-155655409D02*
X122830895Y-155655409D01*
X122830895Y-155655409D02*
X122783276Y-155679219D01*
X122783276Y-155679219D02*
X122759466Y-155703028D01*
X122759466Y-155703028D02*
X122735657Y-155750647D01*
X122735657Y-155750647D02*
X122711847Y-155845885D01*
X122711847Y-155845885D02*
X122711847Y-155964933D01*
X122711847Y-155964933D02*
X122735657Y-156060171D01*
X122735657Y-156060171D02*
X122759466Y-156107790D01*
X122759466Y-156107790D02*
X122783276Y-156131600D01*
X122783276Y-156131600D02*
X122830895Y-156155409D01*
X122830895Y-156155409D02*
X122878514Y-156155409D01*
X122878514Y-156155409D02*
X122926133Y-156131600D01*
X122926133Y-156131600D02*
X122949942Y-156107790D01*
X122949942Y-156107790D02*
X122973752Y-156060171D01*
X122973752Y-156060171D02*
X122997561Y-155964933D01*
X122997561Y-155964933D02*
X122997561Y-155845885D01*
X122997561Y-155845885D02*
X122973752Y-155750647D01*
X122973752Y-155750647D02*
X122949942Y-155703028D01*
X122949942Y-155703028D02*
X122926133Y-155679219D01*
X122926133Y-155679219D02*
X122878514Y-155655409D01*
X115620190Y-147811371D02*
X115644000Y-147787562D01*
X115644000Y-147787562D02*
X115667809Y-147716133D01*
X115667809Y-147716133D02*
X115667809Y-147668514D01*
X115667809Y-147668514D02*
X115644000Y-147597086D01*
X115644000Y-147597086D02*
X115596380Y-147549467D01*
X115596380Y-147549467D02*
X115548761Y-147525657D01*
X115548761Y-147525657D02*
X115453523Y-147501848D01*
X115453523Y-147501848D02*
X115382095Y-147501848D01*
X115382095Y-147501848D02*
X115286857Y-147525657D01*
X115286857Y-147525657D02*
X115239238Y-147549467D01*
X115239238Y-147549467D02*
X115191619Y-147597086D01*
X115191619Y-147597086D02*
X115167809Y-147668514D01*
X115167809Y-147668514D02*
X115167809Y-147716133D01*
X115167809Y-147716133D02*
X115191619Y-147787562D01*
X115191619Y-147787562D02*
X115215428Y-147811371D01*
X115667809Y-148287562D02*
X115667809Y-148001848D01*
X115667809Y-148144705D02*
X115167809Y-148144705D01*
X115167809Y-148144705D02*
X115239238Y-148097086D01*
X115239238Y-148097086D02*
X115286857Y-148049467D01*
X115286857Y-148049467D02*
X115310666Y-148001848D01*
X115167809Y-148454228D02*
X115167809Y-148763752D01*
X115167809Y-148763752D02*
X115358285Y-148597085D01*
X115358285Y-148597085D02*
X115358285Y-148668514D01*
X115358285Y-148668514D02*
X115382095Y-148716133D01*
X115382095Y-148716133D02*
X115405904Y-148739942D01*
X115405904Y-148739942D02*
X115453523Y-148763752D01*
X115453523Y-148763752D02*
X115572571Y-148763752D01*
X115572571Y-148763752D02*
X115620190Y-148739942D01*
X115620190Y-148739942D02*
X115644000Y-148716133D01*
X115644000Y-148716133D02*
X115667809Y-148668514D01*
X115667809Y-148668514D02*
X115667809Y-148525657D01*
X115667809Y-148525657D02*
X115644000Y-148478038D01*
X115644000Y-148478038D02*
X115620190Y-148454228D01*
X121774733Y-160235590D02*
X121798542Y-160259400D01*
X121798542Y-160259400D02*
X121869971Y-160283209D01*
X121869971Y-160283209D02*
X121917590Y-160283209D01*
X121917590Y-160283209D02*
X121989018Y-160259400D01*
X121989018Y-160259400D02*
X122036637Y-160211780D01*
X122036637Y-160211780D02*
X122060447Y-160164161D01*
X122060447Y-160164161D02*
X122084256Y-160068923D01*
X122084256Y-160068923D02*
X122084256Y-159997495D01*
X122084256Y-159997495D02*
X122060447Y-159902257D01*
X122060447Y-159902257D02*
X122036637Y-159854638D01*
X122036637Y-159854638D02*
X121989018Y-159807019D01*
X121989018Y-159807019D02*
X121917590Y-159783209D01*
X121917590Y-159783209D02*
X121869971Y-159783209D01*
X121869971Y-159783209D02*
X121798542Y-159807019D01*
X121798542Y-159807019D02*
X121774733Y-159830828D01*
X121346161Y-159783209D02*
X121441399Y-159783209D01*
X121441399Y-159783209D02*
X121489018Y-159807019D01*
X121489018Y-159807019D02*
X121512828Y-159830828D01*
X121512828Y-159830828D02*
X121560447Y-159902257D01*
X121560447Y-159902257D02*
X121584256Y-159997495D01*
X121584256Y-159997495D02*
X121584256Y-160187971D01*
X121584256Y-160187971D02*
X121560447Y-160235590D01*
X121560447Y-160235590D02*
X121536637Y-160259400D01*
X121536637Y-160259400D02*
X121489018Y-160283209D01*
X121489018Y-160283209D02*
X121393780Y-160283209D01*
X121393780Y-160283209D02*
X121346161Y-160259400D01*
X121346161Y-160259400D02*
X121322352Y-160235590D01*
X121322352Y-160235590D02*
X121298542Y-160187971D01*
X121298542Y-160187971D02*
X121298542Y-160068923D01*
X121298542Y-160068923D02*
X121322352Y-160021304D01*
X121322352Y-160021304D02*
X121346161Y-159997495D01*
X121346161Y-159997495D02*
X121393780Y-159973685D01*
X121393780Y-159973685D02*
X121489018Y-159973685D01*
X121489018Y-159973685D02*
X121536637Y-159997495D01*
X121536637Y-159997495D02*
X121560447Y-160021304D01*
X121560447Y-160021304D02*
X121584256Y-160068923D01*
X130367190Y-155974266D02*
X130391000Y-155950457D01*
X130391000Y-155950457D02*
X130414809Y-155879028D01*
X130414809Y-155879028D02*
X130414809Y-155831409D01*
X130414809Y-155831409D02*
X130391000Y-155759981D01*
X130391000Y-155759981D02*
X130343380Y-155712362D01*
X130343380Y-155712362D02*
X130295761Y-155688552D01*
X130295761Y-155688552D02*
X130200523Y-155664743D01*
X130200523Y-155664743D02*
X130129095Y-155664743D01*
X130129095Y-155664743D02*
X130033857Y-155688552D01*
X130033857Y-155688552D02*
X129986238Y-155712362D01*
X129986238Y-155712362D02*
X129938619Y-155759981D01*
X129938619Y-155759981D02*
X129914809Y-155831409D01*
X129914809Y-155831409D02*
X129914809Y-155879028D01*
X129914809Y-155879028D02*
X129938619Y-155950457D01*
X129938619Y-155950457D02*
X129962428Y-155974266D01*
X130081476Y-156402838D02*
X130414809Y-156402838D01*
X129891000Y-156283790D02*
X130248142Y-156164743D01*
X130248142Y-156164743D02*
X130248142Y-156474266D01*
X130057133Y-158063590D02*
X130080942Y-158087400D01*
X130080942Y-158087400D02*
X130152371Y-158111209D01*
X130152371Y-158111209D02*
X130199990Y-158111209D01*
X130199990Y-158111209D02*
X130271418Y-158087400D01*
X130271418Y-158087400D02*
X130319037Y-158039780D01*
X130319037Y-158039780D02*
X130342847Y-157992161D01*
X130342847Y-157992161D02*
X130366656Y-157896923D01*
X130366656Y-157896923D02*
X130366656Y-157825495D01*
X130366656Y-157825495D02*
X130342847Y-157730257D01*
X130342847Y-157730257D02*
X130319037Y-157682638D01*
X130319037Y-157682638D02*
X130271418Y-157635019D01*
X130271418Y-157635019D02*
X130199990Y-157611209D01*
X130199990Y-157611209D02*
X130152371Y-157611209D01*
X130152371Y-157611209D02*
X130080942Y-157635019D01*
X130080942Y-157635019D02*
X130057133Y-157658828D01*
X129890466Y-157611209D02*
X129580942Y-157611209D01*
X129580942Y-157611209D02*
X129747609Y-157801685D01*
X129747609Y-157801685D02*
X129676180Y-157801685D01*
X129676180Y-157801685D02*
X129628561Y-157825495D01*
X129628561Y-157825495D02*
X129604752Y-157849304D01*
X129604752Y-157849304D02*
X129580942Y-157896923D01*
X129580942Y-157896923D02*
X129580942Y-158015971D01*
X129580942Y-158015971D02*
X129604752Y-158063590D01*
X129604752Y-158063590D02*
X129628561Y-158087400D01*
X129628561Y-158087400D02*
X129676180Y-158111209D01*
X129676180Y-158111209D02*
X129819037Y-158111209D01*
X129819037Y-158111209D02*
X129866656Y-158087400D01*
X129866656Y-158087400D02*
X129890466Y-158063590D01*
X115569390Y-144814171D02*
X115593200Y-144790362D01*
X115593200Y-144790362D02*
X115617009Y-144718933D01*
X115617009Y-144718933D02*
X115617009Y-144671314D01*
X115617009Y-144671314D02*
X115593200Y-144599886D01*
X115593200Y-144599886D02*
X115545580Y-144552267D01*
X115545580Y-144552267D02*
X115497961Y-144528457D01*
X115497961Y-144528457D02*
X115402723Y-144504648D01*
X115402723Y-144504648D02*
X115331295Y-144504648D01*
X115331295Y-144504648D02*
X115236057Y-144528457D01*
X115236057Y-144528457D02*
X115188438Y-144552267D01*
X115188438Y-144552267D02*
X115140819Y-144599886D01*
X115140819Y-144599886D02*
X115117009Y-144671314D01*
X115117009Y-144671314D02*
X115117009Y-144718933D01*
X115117009Y-144718933D02*
X115140819Y-144790362D01*
X115140819Y-144790362D02*
X115164628Y-144814171D01*
X115617009Y-145290362D02*
X115617009Y-145004648D01*
X115617009Y-145147505D02*
X115117009Y-145147505D01*
X115117009Y-145147505D02*
X115188438Y-145099886D01*
X115188438Y-145099886D02*
X115236057Y-145052267D01*
X115236057Y-145052267D02*
X115259866Y-145004648D01*
X115283676Y-145718933D02*
X115617009Y-145718933D01*
X115093200Y-145599885D02*
X115450342Y-145480838D01*
X115450342Y-145480838D02*
X115450342Y-145790361D01*
X118888028Y-160286390D02*
X118911837Y-160310200D01*
X118911837Y-160310200D02*
X118983266Y-160334009D01*
X118983266Y-160334009D02*
X119030885Y-160334009D01*
X119030885Y-160334009D02*
X119102313Y-160310200D01*
X119102313Y-160310200D02*
X119149932Y-160262580D01*
X119149932Y-160262580D02*
X119173742Y-160214961D01*
X119173742Y-160214961D02*
X119197551Y-160119723D01*
X119197551Y-160119723D02*
X119197551Y-160048295D01*
X119197551Y-160048295D02*
X119173742Y-159953057D01*
X119173742Y-159953057D02*
X119149932Y-159905438D01*
X119149932Y-159905438D02*
X119102313Y-159857819D01*
X119102313Y-159857819D02*
X119030885Y-159834009D01*
X119030885Y-159834009D02*
X118983266Y-159834009D01*
X118983266Y-159834009D02*
X118911837Y-159857819D01*
X118911837Y-159857819D02*
X118888028Y-159881628D01*
X118411837Y-160334009D02*
X118697551Y-160334009D01*
X118554694Y-160334009D02*
X118554694Y-159834009D01*
X118554694Y-159834009D02*
X118602313Y-159905438D01*
X118602313Y-159905438D02*
X118649932Y-159953057D01*
X118649932Y-159953057D02*
X118697551Y-159976866D01*
X117935647Y-160334009D02*
X118221361Y-160334009D01*
X118078504Y-160334009D02*
X118078504Y-159834009D01*
X118078504Y-159834009D02*
X118126123Y-159905438D01*
X118126123Y-159905438D02*
X118173742Y-159953057D01*
X118173742Y-159953057D02*
X118221361Y-159976866D01*
D13*
X118564000Y-143230571D02*
X118564000Y-143659142D01*
X118564000Y-143659142D02*
X118592571Y-143744857D01*
X118592571Y-143744857D02*
X118649714Y-143802000D01*
X118649714Y-143802000D02*
X118735428Y-143830571D01*
X118735428Y-143830571D02*
X118792571Y-143830571D01*
X118306857Y-143287714D02*
X118278285Y-143259142D01*
X118278285Y-143259142D02*
X118221143Y-143230571D01*
X118221143Y-143230571D02*
X118078285Y-143230571D01*
X118078285Y-143230571D02*
X118021143Y-143259142D01*
X118021143Y-143259142D02*
X117992571Y-143287714D01*
X117992571Y-143287714D02*
X117964000Y-143344857D01*
X117964000Y-143344857D02*
X117964000Y-143402000D01*
X117964000Y-143402000D02*
X117992571Y-143487714D01*
X117992571Y-143487714D02*
X118335428Y-143830571D01*
X118335428Y-143830571D02*
X117964000Y-143830571D01*
X123252600Y-148715571D02*
X123281171Y-148801286D01*
X123281171Y-148801286D02*
X123281171Y-148944143D01*
X123281171Y-148944143D02*
X123252600Y-149001286D01*
X123252600Y-149001286D02*
X123224028Y-149029857D01*
X123224028Y-149029857D02*
X123166885Y-149058428D01*
X123166885Y-149058428D02*
X123109742Y-149058428D01*
X123109742Y-149058428D02*
X123052600Y-149029857D01*
X123052600Y-149029857D02*
X123024028Y-149001286D01*
X123024028Y-149001286D02*
X122995457Y-148944143D01*
X122995457Y-148944143D02*
X122966885Y-148829857D01*
X122966885Y-148829857D02*
X122938314Y-148772714D01*
X122938314Y-148772714D02*
X122909742Y-148744143D01*
X122909742Y-148744143D02*
X122852600Y-148715571D01*
X122852600Y-148715571D02*
X122795457Y-148715571D01*
X122795457Y-148715571D02*
X122738314Y-148744143D01*
X122738314Y-148744143D02*
X122709742Y-148772714D01*
X122709742Y-148772714D02*
X122681171Y-148829857D01*
X122681171Y-148829857D02*
X122681171Y-148972714D01*
X122681171Y-148972714D02*
X122709742Y-149058428D01*
X123224028Y-149658429D02*
X123252600Y-149629857D01*
X123252600Y-149629857D02*
X123281171Y-149544143D01*
X123281171Y-149544143D02*
X123281171Y-149487000D01*
X123281171Y-149487000D02*
X123252600Y-149401286D01*
X123252600Y-149401286D02*
X123195457Y-149344143D01*
X123195457Y-149344143D02*
X123138314Y-149315572D01*
X123138314Y-149315572D02*
X123024028Y-149287000D01*
X123024028Y-149287000D02*
X122938314Y-149287000D01*
X122938314Y-149287000D02*
X122824028Y-149315572D01*
X122824028Y-149315572D02*
X122766885Y-149344143D01*
X122766885Y-149344143D02*
X122709742Y-149401286D01*
X122709742Y-149401286D02*
X122681171Y-149487000D01*
X122681171Y-149487000D02*
X122681171Y-149544143D01*
X122681171Y-149544143D02*
X122709742Y-149629857D01*
X122709742Y-149629857D02*
X122738314Y-149658429D01*
X123281171Y-149915572D02*
X122681171Y-149915572D01*
X123281171Y-150258429D02*
X122938314Y-150001286D01*
X122681171Y-150258429D02*
X123024028Y-149915572D01*
X126509742Y-149029857D02*
X126481171Y-148972715D01*
X126481171Y-148972715D02*
X126481171Y-148887000D01*
X126481171Y-148887000D02*
X126509742Y-148801286D01*
X126509742Y-148801286D02*
X126566885Y-148744143D01*
X126566885Y-148744143D02*
X126624028Y-148715572D01*
X126624028Y-148715572D02*
X126738314Y-148687000D01*
X126738314Y-148687000D02*
X126824028Y-148687000D01*
X126824028Y-148687000D02*
X126938314Y-148715572D01*
X126938314Y-148715572D02*
X126995457Y-148744143D01*
X126995457Y-148744143D02*
X127052600Y-148801286D01*
X127052600Y-148801286D02*
X127081171Y-148887000D01*
X127081171Y-148887000D02*
X127081171Y-148944143D01*
X127081171Y-148944143D02*
X127052600Y-149029857D01*
X127052600Y-149029857D02*
X127024028Y-149058429D01*
X127024028Y-149058429D02*
X126824028Y-149058429D01*
X126824028Y-149058429D02*
X126824028Y-148944143D01*
X127081171Y-149315572D02*
X126481171Y-149315572D01*
X126481171Y-149315572D02*
X127081171Y-149658429D01*
X127081171Y-149658429D02*
X126481171Y-149658429D01*
X127081171Y-149944143D02*
X126481171Y-149944143D01*
X126481171Y-149944143D02*
X126481171Y-150087000D01*
X126481171Y-150087000D02*
X126509742Y-150172714D01*
X126509742Y-150172714D02*
X126566885Y-150229857D01*
X126566885Y-150229857D02*
X126624028Y-150258428D01*
X126624028Y-150258428D02*
X126738314Y-150287000D01*
X126738314Y-150287000D02*
X126824028Y-150287000D01*
X126824028Y-150287000D02*
X126938314Y-150258428D01*
X126938314Y-150258428D02*
X126995457Y-150229857D01*
X126995457Y-150229857D02*
X127052600Y-150172714D01*
X127052600Y-150172714D02*
X127081171Y-150087000D01*
X127081171Y-150087000D02*
X127081171Y-149944143D01*
X120781171Y-148244143D02*
X120181171Y-148244143D01*
X120181171Y-148244143D02*
X120609742Y-148444143D01*
X120609742Y-148444143D02*
X120181171Y-148644143D01*
X120181171Y-148644143D02*
X120781171Y-148644143D01*
X120781171Y-148929857D02*
X120181171Y-148929857D01*
X120752600Y-149186999D02*
X120781171Y-149272714D01*
X120781171Y-149272714D02*
X120781171Y-149415571D01*
X120781171Y-149415571D02*
X120752600Y-149472714D01*
X120752600Y-149472714D02*
X120724028Y-149501285D01*
X120724028Y-149501285D02*
X120666885Y-149529856D01*
X120666885Y-149529856D02*
X120609742Y-149529856D01*
X120609742Y-149529856D02*
X120552600Y-149501285D01*
X120552600Y-149501285D02*
X120524028Y-149472714D01*
X120524028Y-149472714D02*
X120495457Y-149415571D01*
X120495457Y-149415571D02*
X120466885Y-149301285D01*
X120466885Y-149301285D02*
X120438314Y-149244142D01*
X120438314Y-149244142D02*
X120409742Y-149215571D01*
X120409742Y-149215571D02*
X120352600Y-149186999D01*
X120352600Y-149186999D02*
X120295457Y-149186999D01*
X120295457Y-149186999D02*
X120238314Y-149215571D01*
X120238314Y-149215571D02*
X120209742Y-149244142D01*
X120209742Y-149244142D02*
X120181171Y-149301285D01*
X120181171Y-149301285D02*
X120181171Y-149444142D01*
X120181171Y-149444142D02*
X120209742Y-149529856D01*
X120181171Y-149901285D02*
X120181171Y-150015571D01*
X120181171Y-150015571D02*
X120209742Y-150072714D01*
X120209742Y-150072714D02*
X120266885Y-150129857D01*
X120266885Y-150129857D02*
X120381171Y-150158428D01*
X120381171Y-150158428D02*
X120581171Y-150158428D01*
X120581171Y-150158428D02*
X120695457Y-150129857D01*
X120695457Y-150129857D02*
X120752600Y-150072714D01*
X120752600Y-150072714D02*
X120781171Y-150015571D01*
X120781171Y-150015571D02*
X120781171Y-149901285D01*
X120781171Y-149901285D02*
X120752600Y-149844143D01*
X120752600Y-149844143D02*
X120695457Y-149787000D01*
X120695457Y-149787000D02*
X120581171Y-149758428D01*
X120581171Y-149758428D02*
X120381171Y-149758428D01*
X120381171Y-149758428D02*
X120266885Y-149787000D01*
X120266885Y-149787000D02*
X120209742Y-149844143D01*
X120209742Y-149844143D02*
X120181171Y-149901285D01*
X125774028Y-149651286D02*
X125802600Y-149622714D01*
X125802600Y-149622714D02*
X125831171Y-149537000D01*
X125831171Y-149537000D02*
X125831171Y-149479857D01*
X125831171Y-149479857D02*
X125802600Y-149394143D01*
X125802600Y-149394143D02*
X125745457Y-149337000D01*
X125745457Y-149337000D02*
X125688314Y-149308429D01*
X125688314Y-149308429D02*
X125574028Y-149279857D01*
X125574028Y-149279857D02*
X125488314Y-149279857D01*
X125488314Y-149279857D02*
X125374028Y-149308429D01*
X125374028Y-149308429D02*
X125316885Y-149337000D01*
X125316885Y-149337000D02*
X125259742Y-149394143D01*
X125259742Y-149394143D02*
X125231171Y-149479857D01*
X125231171Y-149479857D02*
X125231171Y-149537000D01*
X125231171Y-149537000D02*
X125259742Y-149622714D01*
X125259742Y-149622714D02*
X125288314Y-149651286D01*
X125516885Y-149908429D02*
X125516885Y-150108429D01*
X125831171Y-150194143D02*
X125831171Y-149908429D01*
X125831171Y-149908429D02*
X125231171Y-149908429D01*
X125231171Y-149908429D02*
X125231171Y-150194143D01*
X122081171Y-148244143D02*
X121481171Y-148244143D01*
X121481171Y-148244143D02*
X121909742Y-148444143D01*
X121909742Y-148444143D02*
X121481171Y-148644143D01*
X121481171Y-148644143D02*
X122081171Y-148644143D01*
X121481171Y-149044142D02*
X121481171Y-149158428D01*
X121481171Y-149158428D02*
X121509742Y-149215571D01*
X121509742Y-149215571D02*
X121566885Y-149272714D01*
X121566885Y-149272714D02*
X121681171Y-149301285D01*
X121681171Y-149301285D02*
X121881171Y-149301285D01*
X121881171Y-149301285D02*
X121995457Y-149272714D01*
X121995457Y-149272714D02*
X122052600Y-149215571D01*
X122052600Y-149215571D02*
X122081171Y-149158428D01*
X122081171Y-149158428D02*
X122081171Y-149044142D01*
X122081171Y-149044142D02*
X122052600Y-148987000D01*
X122052600Y-148987000D02*
X121995457Y-148929857D01*
X121995457Y-148929857D02*
X121881171Y-148901285D01*
X121881171Y-148901285D02*
X121681171Y-148901285D01*
X121681171Y-148901285D02*
X121566885Y-148929857D01*
X121566885Y-148929857D02*
X121509742Y-148987000D01*
X121509742Y-148987000D02*
X121481171Y-149044142D01*
X122052600Y-149529856D02*
X122081171Y-149615571D01*
X122081171Y-149615571D02*
X122081171Y-149758428D01*
X122081171Y-149758428D02*
X122052600Y-149815571D01*
X122052600Y-149815571D02*
X122024028Y-149844142D01*
X122024028Y-149844142D02*
X121966885Y-149872713D01*
X121966885Y-149872713D02*
X121909742Y-149872713D01*
X121909742Y-149872713D02*
X121852600Y-149844142D01*
X121852600Y-149844142D02*
X121824028Y-149815571D01*
X121824028Y-149815571D02*
X121795457Y-149758428D01*
X121795457Y-149758428D02*
X121766885Y-149644142D01*
X121766885Y-149644142D02*
X121738314Y-149586999D01*
X121738314Y-149586999D02*
X121709742Y-149558428D01*
X121709742Y-149558428D02*
X121652600Y-149529856D01*
X121652600Y-149529856D02*
X121595457Y-149529856D01*
X121595457Y-149529856D02*
X121538314Y-149558428D01*
X121538314Y-149558428D02*
X121509742Y-149586999D01*
X121509742Y-149586999D02*
X121481171Y-149644142D01*
X121481171Y-149644142D02*
X121481171Y-149786999D01*
X121481171Y-149786999D02*
X121509742Y-149872713D01*
X122081171Y-150129857D02*
X121481171Y-150129857D01*
X119481171Y-149072715D02*
X118881171Y-149072715D01*
X119481171Y-149701286D02*
X119195457Y-149501286D01*
X119481171Y-149358429D02*
X118881171Y-149358429D01*
X118881171Y-149358429D02*
X118881171Y-149587000D01*
X118881171Y-149587000D02*
X118909742Y-149644143D01*
X118909742Y-149644143D02*
X118938314Y-149672714D01*
X118938314Y-149672714D02*
X118995457Y-149701286D01*
X118995457Y-149701286D02*
X119081171Y-149701286D01*
X119081171Y-149701286D02*
X119138314Y-149672714D01*
X119138314Y-149672714D02*
X119166885Y-149644143D01*
X119166885Y-149644143D02*
X119195457Y-149587000D01*
X119195457Y-149587000D02*
X119195457Y-149358429D01*
X119538314Y-150358429D02*
X119509742Y-150301286D01*
X119509742Y-150301286D02*
X119452600Y-150244143D01*
X119452600Y-150244143D02*
X119366885Y-150158429D01*
X119366885Y-150158429D02*
X119338314Y-150101286D01*
X119338314Y-150101286D02*
X119338314Y-150044143D01*
X119481171Y-150072714D02*
X119452600Y-150015572D01*
X119452600Y-150015572D02*
X119395457Y-149958429D01*
X119395457Y-149958429D02*
X119281171Y-149929857D01*
X119281171Y-149929857D02*
X119081171Y-149929857D01*
X119081171Y-149929857D02*
X118966885Y-149958429D01*
X118966885Y-149958429D02*
X118909742Y-150015572D01*
X118909742Y-150015572D02*
X118881171Y-150072714D01*
X118881171Y-150072714D02*
X118881171Y-150187000D01*
X118881171Y-150187000D02*
X118909742Y-150244143D01*
X118909742Y-150244143D02*
X118966885Y-150301286D01*
X118966885Y-150301286D02*
X119081171Y-150329857D01*
X119081171Y-150329857D02*
X119281171Y-150329857D01*
X119281171Y-150329857D02*
X119395457Y-150301286D01*
X119395457Y-150301286D02*
X119452600Y-150244143D01*
X119452600Y-150244143D02*
X119481171Y-150187000D01*
X119481171Y-150187000D02*
X119481171Y-150072714D01*
X127781171Y-148686999D02*
X128381171Y-148886999D01*
X128381171Y-148886999D02*
X127781171Y-149086999D01*
X128324028Y-149629857D02*
X128352600Y-149601285D01*
X128352600Y-149601285D02*
X128381171Y-149515571D01*
X128381171Y-149515571D02*
X128381171Y-149458428D01*
X128381171Y-149458428D02*
X128352600Y-149372714D01*
X128352600Y-149372714D02*
X128295457Y-149315571D01*
X128295457Y-149315571D02*
X128238314Y-149287000D01*
X128238314Y-149287000D02*
X128124028Y-149258428D01*
X128124028Y-149258428D02*
X128038314Y-149258428D01*
X128038314Y-149258428D02*
X127924028Y-149287000D01*
X127924028Y-149287000D02*
X127866885Y-149315571D01*
X127866885Y-149315571D02*
X127809742Y-149372714D01*
X127809742Y-149372714D02*
X127781171Y-149458428D01*
X127781171Y-149458428D02*
X127781171Y-149515571D01*
X127781171Y-149515571D02*
X127809742Y-149601285D01*
X127809742Y-149601285D02*
X127838314Y-149629857D01*
X128324028Y-150229857D02*
X128352600Y-150201285D01*
X128352600Y-150201285D02*
X128381171Y-150115571D01*
X128381171Y-150115571D02*
X128381171Y-150058428D01*
X128381171Y-150058428D02*
X128352600Y-149972714D01*
X128352600Y-149972714D02*
X128295457Y-149915571D01*
X128295457Y-149915571D02*
X128238314Y-149887000D01*
X128238314Y-149887000D02*
X128124028Y-149858428D01*
X128124028Y-149858428D02*
X128038314Y-149858428D01*
X128038314Y-149858428D02*
X127924028Y-149887000D01*
X127924028Y-149887000D02*
X127866885Y-149915571D01*
X127866885Y-149915571D02*
X127809742Y-149972714D01*
X127809742Y-149972714D02*
X127781171Y-150058428D01*
X127781171Y-150058428D02*
X127781171Y-150115571D01*
X127781171Y-150115571D02*
X127809742Y-150201285D01*
X127809742Y-150201285D02*
X127838314Y-150229857D01*
X124524028Y-149072714D02*
X124552600Y-149044142D01*
X124552600Y-149044142D02*
X124581171Y-148958428D01*
X124581171Y-148958428D02*
X124581171Y-148901285D01*
X124581171Y-148901285D02*
X124552600Y-148815571D01*
X124552600Y-148815571D02*
X124495457Y-148758428D01*
X124495457Y-148758428D02*
X124438314Y-148729857D01*
X124438314Y-148729857D02*
X124324028Y-148701285D01*
X124324028Y-148701285D02*
X124238314Y-148701285D01*
X124238314Y-148701285D02*
X124124028Y-148729857D01*
X124124028Y-148729857D02*
X124066885Y-148758428D01*
X124066885Y-148758428D02*
X124009742Y-148815571D01*
X124009742Y-148815571D02*
X123981171Y-148901285D01*
X123981171Y-148901285D02*
X123981171Y-148958428D01*
X123981171Y-148958428D02*
X124009742Y-149044142D01*
X124009742Y-149044142D02*
X124038314Y-149072714D01*
X124552600Y-149301285D02*
X124581171Y-149387000D01*
X124581171Y-149387000D02*
X124581171Y-149529857D01*
X124581171Y-149529857D02*
X124552600Y-149587000D01*
X124552600Y-149587000D02*
X124524028Y-149615571D01*
X124524028Y-149615571D02*
X124466885Y-149644142D01*
X124466885Y-149644142D02*
X124409742Y-149644142D01*
X124409742Y-149644142D02*
X124352600Y-149615571D01*
X124352600Y-149615571D02*
X124324028Y-149587000D01*
X124324028Y-149587000D02*
X124295457Y-149529857D01*
X124295457Y-149529857D02*
X124266885Y-149415571D01*
X124266885Y-149415571D02*
X124238314Y-149358428D01*
X124238314Y-149358428D02*
X124209742Y-149329857D01*
X124209742Y-149329857D02*
X124152600Y-149301285D01*
X124152600Y-149301285D02*
X124095457Y-149301285D01*
X124095457Y-149301285D02*
X124038314Y-149329857D01*
X124038314Y-149329857D02*
X124009742Y-149358428D01*
X124009742Y-149358428D02*
X123981171Y-149415571D01*
X123981171Y-149415571D02*
X123981171Y-149558428D01*
X123981171Y-149558428D02*
X124009742Y-149644142D01*
X124581171Y-149901286D02*
X123981171Y-149901286D01*
X123981171Y-149901286D02*
X124581171Y-150244143D01*
X124581171Y-150244143D02*
X123981171Y-150244143D01*
D12*
X120199933Y-160260990D02*
X120223742Y-160284800D01*
X120223742Y-160284800D02*
X120295171Y-160308609D01*
X120295171Y-160308609D02*
X120342790Y-160308609D01*
X120342790Y-160308609D02*
X120414218Y-160284800D01*
X120414218Y-160284800D02*
X120461837Y-160237180D01*
X120461837Y-160237180D02*
X120485647Y-160189561D01*
X120485647Y-160189561D02*
X120509456Y-160094323D01*
X120509456Y-160094323D02*
X120509456Y-160022895D01*
X120509456Y-160022895D02*
X120485647Y-159927657D01*
X120485647Y-159927657D02*
X120461837Y-159880038D01*
X120461837Y-159880038D02*
X120414218Y-159832419D01*
X120414218Y-159832419D02*
X120342790Y-159808609D01*
X120342790Y-159808609D02*
X120295171Y-159808609D01*
X120295171Y-159808609D02*
X120223742Y-159832419D01*
X120223742Y-159832419D02*
X120199933Y-159856228D01*
X120033266Y-159808609D02*
X119699933Y-159808609D01*
X119699933Y-159808609D02*
X119914218Y-160308609D01*
X115744009Y-158158666D02*
X115505914Y-157992000D01*
X115744009Y-157872952D02*
X115244009Y-157872952D01*
X115244009Y-157872952D02*
X115244009Y-158063428D01*
X115244009Y-158063428D02*
X115267819Y-158111047D01*
X115267819Y-158111047D02*
X115291628Y-158134857D01*
X115291628Y-158134857D02*
X115339247Y-158158666D01*
X115339247Y-158158666D02*
X115410676Y-158158666D01*
X115410676Y-158158666D02*
X115458295Y-158134857D01*
X115458295Y-158134857D02*
X115482104Y-158111047D01*
X115482104Y-158111047D02*
X115505914Y-158063428D01*
X115505914Y-158063428D02*
X115505914Y-157872952D01*
X115410676Y-158587238D02*
X115744009Y-158587238D01*
X115220200Y-158468190D02*
X115577342Y-158349143D01*
X115577342Y-158349143D02*
X115577342Y-158658666D01*
X126524533Y-156107790D02*
X126548342Y-156131600D01*
X126548342Y-156131600D02*
X126619771Y-156155409D01*
X126619771Y-156155409D02*
X126667390Y-156155409D01*
X126667390Y-156155409D02*
X126738818Y-156131600D01*
X126738818Y-156131600D02*
X126786437Y-156083980D01*
X126786437Y-156083980D02*
X126810247Y-156036361D01*
X126810247Y-156036361D02*
X126834056Y-155941123D01*
X126834056Y-155941123D02*
X126834056Y-155869695D01*
X126834056Y-155869695D02*
X126810247Y-155774457D01*
X126810247Y-155774457D02*
X126786437Y-155726838D01*
X126786437Y-155726838D02*
X126738818Y-155679219D01*
X126738818Y-155679219D02*
X126667390Y-155655409D01*
X126667390Y-155655409D02*
X126619771Y-155655409D01*
X126619771Y-155655409D02*
X126548342Y-155679219D01*
X126548342Y-155679219D02*
X126524533Y-155703028D01*
X126238818Y-155869695D02*
X126286437Y-155845885D01*
X126286437Y-155845885D02*
X126310247Y-155822076D01*
X126310247Y-155822076D02*
X126334056Y-155774457D01*
X126334056Y-155774457D02*
X126334056Y-155750647D01*
X126334056Y-155750647D02*
X126310247Y-155703028D01*
X126310247Y-155703028D02*
X126286437Y-155679219D01*
X126286437Y-155679219D02*
X126238818Y-155655409D01*
X126238818Y-155655409D02*
X126143580Y-155655409D01*
X126143580Y-155655409D02*
X126095961Y-155679219D01*
X126095961Y-155679219D02*
X126072152Y-155703028D01*
X126072152Y-155703028D02*
X126048342Y-155750647D01*
X126048342Y-155750647D02*
X126048342Y-155774457D01*
X126048342Y-155774457D02*
X126072152Y-155822076D01*
X126072152Y-155822076D02*
X126095961Y-155845885D01*
X126095961Y-155845885D02*
X126143580Y-155869695D01*
X126143580Y-155869695D02*
X126238818Y-155869695D01*
X126238818Y-155869695D02*
X126286437Y-155893504D01*
X126286437Y-155893504D02*
X126310247Y-155917314D01*
X126310247Y-155917314D02*
X126334056Y-155964933D01*
X126334056Y-155964933D02*
X126334056Y-156060171D01*
X126334056Y-156060171D02*
X126310247Y-156107790D01*
X126310247Y-156107790D02*
X126286437Y-156131600D01*
X126286437Y-156131600D02*
X126238818Y-156155409D01*
X126238818Y-156155409D02*
X126143580Y-156155409D01*
X126143580Y-156155409D02*
X126095961Y-156131600D01*
X126095961Y-156131600D02*
X126072152Y-156107790D01*
X126072152Y-156107790D02*
X126048342Y-156060171D01*
X126048342Y-156060171D02*
X126048342Y-155964933D01*
X126048342Y-155964933D02*
X126072152Y-155917314D01*
X126072152Y-155917314D02*
X126095961Y-155893504D01*
X126095961Y-155893504D02*
X126143580Y-155869695D01*
X130994933Y-153945609D02*
X131161599Y-153707514D01*
X131280647Y-153945609D02*
X131280647Y-153445609D01*
X131280647Y-153445609D02*
X131090171Y-153445609D01*
X131090171Y-153445609D02*
X131042552Y-153469419D01*
X131042552Y-153469419D02*
X131018742Y-153493228D01*
X131018742Y-153493228D02*
X130994933Y-153540847D01*
X130994933Y-153540847D02*
X130994933Y-153612276D01*
X130994933Y-153612276D02*
X131018742Y-153659895D01*
X131018742Y-153659895D02*
X131042552Y-153683704D01*
X131042552Y-153683704D02*
X131090171Y-153707514D01*
X131090171Y-153707514D02*
X131280647Y-153707514D01*
X130566361Y-153445609D02*
X130661599Y-153445609D01*
X130661599Y-153445609D02*
X130709218Y-153469419D01*
X130709218Y-153469419D02*
X130733028Y-153493228D01*
X130733028Y-153493228D02*
X130780647Y-153564657D01*
X130780647Y-153564657D02*
X130804456Y-153659895D01*
X130804456Y-153659895D02*
X130804456Y-153850371D01*
X130804456Y-153850371D02*
X130780647Y-153897990D01*
X130780647Y-153897990D02*
X130756837Y-153921800D01*
X130756837Y-153921800D02*
X130709218Y-153945609D01*
X130709218Y-153945609D02*
X130613980Y-153945609D01*
X130613980Y-153945609D02*
X130566361Y-153921800D01*
X130566361Y-153921800D02*
X130542552Y-153897990D01*
X130542552Y-153897990D02*
X130518742Y-153850371D01*
X130518742Y-153850371D02*
X130518742Y-153731323D01*
X130518742Y-153731323D02*
X130542552Y-153683704D01*
X130542552Y-153683704D02*
X130566361Y-153659895D01*
X130566361Y-153659895D02*
X130613980Y-153636085D01*
X130613980Y-153636085D02*
X130709218Y-153636085D01*
X130709218Y-153636085D02*
X130756837Y-153659895D01*
X130756837Y-153659895D02*
X130780647Y-153683704D01*
X130780647Y-153683704D02*
X130804456Y-153731323D01*
X116516933Y-153541590D02*
X116540742Y-153565400D01*
X116540742Y-153565400D02*
X116612171Y-153589209D01*
X116612171Y-153589209D02*
X116659790Y-153589209D01*
X116659790Y-153589209D02*
X116731218Y-153565400D01*
X116731218Y-153565400D02*
X116778837Y-153517780D01*
X116778837Y-153517780D02*
X116802647Y-153470161D01*
X116802647Y-153470161D02*
X116826456Y-153374923D01*
X116826456Y-153374923D02*
X116826456Y-153303495D01*
X116826456Y-153303495D02*
X116802647Y-153208257D01*
X116802647Y-153208257D02*
X116778837Y-153160638D01*
X116778837Y-153160638D02*
X116731218Y-153113019D01*
X116731218Y-153113019D02*
X116659790Y-153089209D01*
X116659790Y-153089209D02*
X116612171Y-153089209D01*
X116612171Y-153089209D02*
X116540742Y-153113019D01*
X116540742Y-153113019D02*
X116516933Y-153136828D01*
X116064552Y-153089209D02*
X116302647Y-153089209D01*
X116302647Y-153089209D02*
X116326456Y-153327304D01*
X116326456Y-153327304D02*
X116302647Y-153303495D01*
X116302647Y-153303495D02*
X116255028Y-153279685D01*
X116255028Y-153279685D02*
X116135980Y-153279685D01*
X116135980Y-153279685D02*
X116088361Y-153303495D01*
X116088361Y-153303495D02*
X116064552Y-153327304D01*
X116064552Y-153327304D02*
X116040742Y-153374923D01*
X116040742Y-153374923D02*
X116040742Y-153493971D01*
X116040742Y-153493971D02*
X116064552Y-153541590D01*
X116064552Y-153541590D02*
X116088361Y-153565400D01*
X116088361Y-153565400D02*
X116135980Y-153589209D01*
X116135980Y-153589209D02*
X116255028Y-153589209D01*
X116255028Y-153589209D02*
X116302647Y-153565400D01*
X116302647Y-153565400D02*
X116326456Y-153541590D01*
X115569390Y-150808571D02*
X115593200Y-150784762D01*
X115593200Y-150784762D02*
X115617009Y-150713333D01*
X115617009Y-150713333D02*
X115617009Y-150665714D01*
X115617009Y-150665714D02*
X115593200Y-150594286D01*
X115593200Y-150594286D02*
X115545580Y-150546667D01*
X115545580Y-150546667D02*
X115497961Y-150522857D01*
X115497961Y-150522857D02*
X115402723Y-150499048D01*
X115402723Y-150499048D02*
X115331295Y-150499048D01*
X115331295Y-150499048D02*
X115236057Y-150522857D01*
X115236057Y-150522857D02*
X115188438Y-150546667D01*
X115188438Y-150546667D02*
X115140819Y-150594286D01*
X115140819Y-150594286D02*
X115117009Y-150665714D01*
X115117009Y-150665714D02*
X115117009Y-150713333D01*
X115117009Y-150713333D02*
X115140819Y-150784762D01*
X115140819Y-150784762D02*
X115164628Y-150808571D01*
X115617009Y-151284762D02*
X115617009Y-150999048D01*
X115617009Y-151141905D02*
X115117009Y-151141905D01*
X115117009Y-151141905D02*
X115188438Y-151094286D01*
X115188438Y-151094286D02*
X115236057Y-151046667D01*
X115236057Y-151046667D02*
X115259866Y-150999048D01*
X115164628Y-151475238D02*
X115140819Y-151499047D01*
X115140819Y-151499047D02*
X115117009Y-151546666D01*
X115117009Y-151546666D02*
X115117009Y-151665714D01*
X115117009Y-151665714D02*
X115140819Y-151713333D01*
X115140819Y-151713333D02*
X115164628Y-151737142D01*
X115164628Y-151737142D02*
X115212247Y-151760952D01*
X115212247Y-151760952D02*
X115259866Y-151760952D01*
X115259866Y-151760952D02*
X115331295Y-151737142D01*
X115331295Y-151737142D02*
X115617009Y-151451428D01*
X115617009Y-151451428D02*
X115617009Y-151760952D01*
X124975333Y-156107790D02*
X124999142Y-156131600D01*
X124999142Y-156131600D02*
X125070571Y-156155409D01*
X125070571Y-156155409D02*
X125118190Y-156155409D01*
X125118190Y-156155409D02*
X125189618Y-156131600D01*
X125189618Y-156131600D02*
X125237237Y-156083980D01*
X125237237Y-156083980D02*
X125261047Y-156036361D01*
X125261047Y-156036361D02*
X125284856Y-155941123D01*
X125284856Y-155941123D02*
X125284856Y-155869695D01*
X125284856Y-155869695D02*
X125261047Y-155774457D01*
X125261047Y-155774457D02*
X125237237Y-155726838D01*
X125237237Y-155726838D02*
X125189618Y-155679219D01*
X125189618Y-155679219D02*
X125118190Y-155655409D01*
X125118190Y-155655409D02*
X125070571Y-155655409D01*
X125070571Y-155655409D02*
X124999142Y-155679219D01*
X124999142Y-155679219D02*
X124975333Y-155703028D01*
X124737237Y-156155409D02*
X124641999Y-156155409D01*
X124641999Y-156155409D02*
X124594380Y-156131600D01*
X124594380Y-156131600D02*
X124570571Y-156107790D01*
X124570571Y-156107790D02*
X124522952Y-156036361D01*
X124522952Y-156036361D02*
X124499142Y-155941123D01*
X124499142Y-155941123D02*
X124499142Y-155750647D01*
X124499142Y-155750647D02*
X124522952Y-155703028D01*
X124522952Y-155703028D02*
X124546761Y-155679219D01*
X124546761Y-155679219D02*
X124594380Y-155655409D01*
X124594380Y-155655409D02*
X124689618Y-155655409D01*
X124689618Y-155655409D02*
X124737237Y-155679219D01*
X124737237Y-155679219D02*
X124761047Y-155703028D01*
X124761047Y-155703028D02*
X124784856Y-155750647D01*
X124784856Y-155750647D02*
X124784856Y-155869695D01*
X124784856Y-155869695D02*
X124761047Y-155917314D01*
X124761047Y-155917314D02*
X124737237Y-155941123D01*
X124737237Y-155941123D02*
X124689618Y-155964933D01*
X124689618Y-155964933D02*
X124594380Y-155964933D01*
X124594380Y-155964933D02*
X124546761Y-155941123D01*
X124546761Y-155941123D02*
X124522952Y-155917314D01*
X124522952Y-155917314D02*
X124499142Y-155869695D01*
D14*
%TO.C,kibuzzard-665666A1*%
G36*
X127949328Y-164867798D02*
G01*
X127368833Y-164867798D01*
X126736325Y-164867798D01*
X126204127Y-164867798D01*
X125617594Y-164867798D01*
X125235861Y-164867798D01*
X124202115Y-164867798D01*
X123483229Y-164867798D01*
X122721155Y-164867798D01*
X121843446Y-164867798D01*
X121438028Y-164867798D01*
X121043755Y-164867798D01*
X120000257Y-164867798D01*
X119773167Y-164867798D01*
X119192672Y-164867798D01*
X118783353Y-164867798D01*
X119074530Y-163897210D01*
X119773167Y-163897210D01*
X120000257Y-163897210D01*
X120000257Y-164617489D01*
X120173012Y-164617489D01*
X120173012Y-164475383D01*
X120490659Y-164475383D01*
X120490659Y-164617489D01*
X121043755Y-164617489D01*
X121043755Y-163798293D01*
X121181681Y-163798293D01*
X121226263Y-163934826D01*
X121301495Y-163899996D01*
X121393446Y-163884671D01*
X121496542Y-163906962D01*
X121565505Y-163968959D01*
X121604514Y-164063696D01*
X121613396Y-164121687D01*
X121616356Y-164185600D01*
X121610938Y-164279640D01*
X121594684Y-164355569D01*
X121567594Y-164413386D01*
X121507339Y-164468243D01*
X121424096Y-164486529D01*
X121390659Y-164485136D01*
X121357223Y-164480956D01*
X121357223Y-164166095D01*
X121185861Y-164166095D01*
X121185861Y-164596591D01*
X121281294Y-164621668D01*
X121352869Y-164632117D01*
X121438028Y-164635600D01*
X121514827Y-164628460D01*
X121550060Y-164617489D01*
X121843446Y-164617489D01*
X122023167Y-164617489D01*
X122057823Y-164535465D01*
X122097703Y-164456575D01*
X122141762Y-164378731D01*
X122188957Y-164299841D01*
X122278121Y-164299841D01*
X122278121Y-164617489D01*
X122449483Y-164617489D01*
X122537254Y-164617489D01*
X122721155Y-164617489D01*
X122761557Y-164418263D01*
X122991433Y-164418263D01*
X123030443Y-164617489D01*
X123208771Y-164617489D01*
X123184195Y-164517318D01*
X123159508Y-164420770D01*
X123134709Y-164327845D01*
X123109799Y-164238541D01*
X123084777Y-164152860D01*
X123053692Y-164049372D01*
X123023128Y-163948584D01*
X123007395Y-163897210D01*
X123256139Y-163897210D01*
X123483229Y-163897210D01*
X123483229Y-164617489D01*
X123655985Y-164617489D01*
X123655985Y-164575693D01*
X123961093Y-164575693D01*
X124059313Y-164616792D01*
X124126012Y-164630898D01*
X124202115Y-164635600D01*
X124314189Y-164622597D01*
X124407068Y-164583588D01*
X124480752Y-164518572D01*
X124522809Y-164453876D01*
X124552850Y-164376815D01*
X124570874Y-164287390D01*
X124576882Y-164185600D01*
X124569568Y-164084246D01*
X124547625Y-163994733D01*
X124512622Y-163917585D01*
X124497879Y-163897210D01*
X124688337Y-163897210D01*
X124875025Y-163897210D01*
X124875025Y-164475383D01*
X124688337Y-164475383D01*
X124688337Y-164617489D01*
X125235861Y-164617489D01*
X125235861Y-164475383D01*
X125047780Y-164475383D01*
X125047780Y-163897210D01*
X125235861Y-163897210D01*
X125235861Y-163798293D01*
X125361248Y-163798293D01*
X125405830Y-163934826D01*
X125481062Y-163899996D01*
X125573012Y-163884671D01*
X125676108Y-163906962D01*
X125745071Y-163968959D01*
X125784080Y-164063696D01*
X125792962Y-164121687D01*
X125795923Y-164185600D01*
X125790505Y-164279640D01*
X125774251Y-164355569D01*
X125747161Y-164413386D01*
X125686906Y-164468243D01*
X125603663Y-164486529D01*
X125570226Y-164485136D01*
X125536789Y-164480956D01*
X125536789Y-164166095D01*
X125365427Y-164166095D01*
X125365427Y-164596591D01*
X125460861Y-164621668D01*
X125532436Y-164632117D01*
X125617594Y-164635600D01*
X125694394Y-164628460D01*
X125729627Y-164617489D01*
X126020226Y-164617489D01*
X126204127Y-164617489D01*
X126244529Y-164418263D01*
X126474406Y-164418263D01*
X126513415Y-164617489D01*
X126691743Y-164617489D01*
X126736325Y-164617489D01*
X126893755Y-164617489D01*
X126885396Y-163947365D01*
X126991279Y-164312380D01*
X127116666Y-164312380D01*
X127218368Y-163947365D01*
X127211402Y-164617489D01*
X127368833Y-164617489D01*
X127364479Y-164509516D01*
X127359777Y-164397365D01*
X127354727Y-164283472D01*
X127349328Y-164170275D01*
X127343233Y-164059168D01*
X127336093Y-163951544D01*
X127327908Y-163849493D01*
X127318678Y-163755105D01*
X127176573Y-163755105D01*
X127152192Y-163830337D01*
X127120845Y-163929253D01*
X127087409Y-164036529D01*
X127055365Y-164136838D01*
X127020536Y-164030259D01*
X126985706Y-163924377D01*
X126955056Y-163828944D01*
X126929978Y-163755105D01*
X126787873Y-163755105D01*
X126778295Y-163866560D01*
X126769065Y-163975228D01*
X126760706Y-164081982D01*
X126753740Y-164187690D01*
X126747993Y-164293224D01*
X126743291Y-164399454D01*
X126739460Y-164507252D01*
X126736325Y-164617489D01*
X126691743Y-164617489D01*
X126667167Y-164517318D01*
X126642480Y-164420770D01*
X126617681Y-164327845D01*
X126592771Y-164238541D01*
X126567749Y-164152860D01*
X126536664Y-164049372D01*
X126506101Y-163948584D01*
X126476060Y-163850495D01*
X126446542Y-163755105D01*
X126259854Y-163755105D01*
X126229248Y-163851278D01*
X126198728Y-163950325D01*
X126168296Y-164052246D01*
X126137950Y-164157040D01*
X126113848Y-164243445D01*
X126090025Y-164332693D01*
X126066480Y-164424783D01*
X126043214Y-164519715D01*
X126020226Y-164617489D01*
X125729627Y-164617489D01*
X125763183Y-164607040D01*
X125823264Y-164571513D01*
X125873941Y-164522055D01*
X125914692Y-164458665D01*
X125944994Y-164381343D01*
X125963802Y-164290263D01*
X125970071Y-164185600D01*
X125962757Y-164081982D01*
X125940814Y-163991250D01*
X125906333Y-163913754D01*
X125861402Y-163849841D01*
X125806720Y-163799861D01*
X125742981Y-163764160D01*
X125672277Y-163742740D01*
X125596697Y-163735600D01*
X125506836Y-163743263D01*
X125437873Y-163760677D01*
X125389808Y-163781575D01*
X125361248Y-163798293D01*
X125235861Y-163798293D01*
X125235861Y-163755105D01*
X124688337Y-163755105D01*
X124688337Y-163897210D01*
X124497879Y-163897210D01*
X124466124Y-163853324D01*
X124409003Y-163802473D01*
X124342130Y-163765554D01*
X124267072Y-163743088D01*
X124185396Y-163735600D01*
X124102502Y-163743263D01*
X124037718Y-163760677D01*
X123991046Y-163781575D01*
X123962486Y-163798293D01*
X124007068Y-163934826D01*
X124084390Y-163899300D01*
X124188183Y-163884671D01*
X124266898Y-163899300D01*
X124335164Y-163948061D01*
X124383926Y-164039315D01*
X124398032Y-164103402D01*
X124402734Y-164181420D01*
X124397084Y-164272210D01*
X124380133Y-164347674D01*
X124351882Y-164407814D01*
X124284835Y-164466850D01*
X124185396Y-164486529D01*
X124074638Y-164471204D01*
X124004282Y-164440554D01*
X123961093Y-164575693D01*
X123655985Y-164575693D01*
X123655985Y-163897210D01*
X123883074Y-163897210D01*
X123883074Y-163755105D01*
X123256139Y-163755105D01*
X123256139Y-163897210D01*
X123007395Y-163897210D01*
X122993088Y-163850495D01*
X122963570Y-163755105D01*
X122776882Y-163755105D01*
X122746276Y-163851278D01*
X122715756Y-163950325D01*
X122685324Y-164052246D01*
X122654978Y-164157040D01*
X122630876Y-164243445D01*
X122607053Y-164332693D01*
X122583508Y-164424783D01*
X122560241Y-164519715D01*
X122537254Y-164617489D01*
X122449483Y-164617489D01*
X122449483Y-163767643D01*
X122394452Y-163757194D01*
X122333848Y-163750228D01*
X122275334Y-163746746D01*
X122226573Y-163745352D01*
X122156217Y-163749532D01*
X122092827Y-163762071D01*
X122037099Y-163783317D01*
X121989731Y-163813619D01*
X121923554Y-163902086D01*
X121906313Y-163960426D01*
X121900567Y-164028170D01*
X121908229Y-164099919D01*
X121931217Y-164164702D01*
X121971967Y-164218688D01*
X122032920Y-164258046D01*
X121982765Y-164338154D01*
X121931217Y-164430105D01*
X121883152Y-164526235D01*
X121843446Y-164617489D01*
X121550060Y-164617489D01*
X121583616Y-164607040D01*
X121643697Y-164571513D01*
X121694375Y-164522055D01*
X121735125Y-164458665D01*
X121765427Y-164381343D01*
X121784235Y-164290263D01*
X121790505Y-164185600D01*
X121783190Y-164081982D01*
X121761248Y-163991250D01*
X121726766Y-163913754D01*
X121681836Y-163849841D01*
X121627153Y-163799861D01*
X121563415Y-163764160D01*
X121492711Y-163742740D01*
X121417130Y-163735600D01*
X121327269Y-163743263D01*
X121258307Y-163760677D01*
X121210241Y-163781575D01*
X121181681Y-163798293D01*
X121043755Y-163798293D01*
X121043755Y-163755105D01*
X120521310Y-163755105D01*
X120521310Y-163897210D01*
X120872393Y-163897210D01*
X120872393Y-164090863D01*
X120567285Y-164090863D01*
X120567285Y-164232968D01*
X120872393Y-164232968D01*
X120872393Y-164475383D01*
X120490659Y-164475383D01*
X120173012Y-164475383D01*
X120173012Y-163897210D01*
X120400102Y-163897210D01*
X120400102Y-163755105D01*
X119773167Y-163755105D01*
X119773167Y-163897210D01*
X119074530Y-163897210D01*
X119192672Y-163503402D01*
X119773167Y-163503402D01*
X127368833Y-163503402D01*
X127949328Y-163503402D01*
X128358647Y-163503402D01*
X127949328Y-164867798D01*
G37*
G36*
X122900180Y-164014934D02*
G01*
X122922471Y-164101312D01*
X122941975Y-164186993D01*
X122959390Y-164276157D01*
X122790814Y-164276157D01*
X122807533Y-164186993D01*
X122826341Y-164101312D01*
X122848632Y-164014934D01*
X122874406Y-163922287D01*
X122900180Y-164014934D01*
G37*
G36*
X126383152Y-164014934D02*
G01*
X126405443Y-164101312D01*
X126424947Y-164186993D01*
X126442362Y-164276157D01*
X126273786Y-164276157D01*
X126290505Y-164186993D01*
X126309313Y-164101312D01*
X126331604Y-164014934D01*
X126357378Y-163922287D01*
X126383152Y-164014934D01*
G37*
G36*
X122250257Y-163895120D02*
G01*
X122278121Y-163898603D01*
X122278121Y-164157736D01*
X122240505Y-164157736D01*
X122164924Y-164149203D01*
X122113724Y-164123603D01*
X122074715Y-164026776D01*
X122085164Y-163967566D01*
X122116511Y-163926467D01*
X122164924Y-163902434D01*
X122226573Y-163894424D01*
X122250257Y-163895120D01*
G37*
D15*
%TO.C,C10*%
X118057200Y-155041020D02*
X118057200Y-155322180D01*
X119077200Y-155041020D02*
X119077200Y-155322180D01*
%TO.C,C13*%
X115872800Y-148273380D02*
X115872800Y-147992220D01*
X116892800Y-148273380D02*
X116892800Y-147992220D01*
%TO.C,C6*%
X121156000Y-158319380D02*
X121156000Y-158038220D01*
X122176000Y-158319380D02*
X122176000Y-158038220D01*
%TO.C,C4*%
X130655600Y-155917020D02*
X130655600Y-156198180D01*
X131675600Y-155917020D02*
X131675600Y-156198180D01*
%TO.C,C3*%
X130645780Y-158443200D02*
X130364620Y-158443200D01*
X130645780Y-159463200D02*
X130364620Y-159463200D01*
%TO.C,C14*%
X115872400Y-144995020D02*
X115872400Y-145276180D01*
X116892400Y-144995020D02*
X116892400Y-145276180D01*
%TO.C,C11*%
X118057200Y-158332380D02*
X118057200Y-158051220D01*
X119077200Y-158332380D02*
X119077200Y-158051220D01*
%TO.C,C7*%
X119606600Y-158038220D02*
X119606600Y-158319380D01*
X120626600Y-158038220D02*
X120626600Y-158319380D01*
%TO.C,R4*%
X115911100Y-158479258D02*
X115911100Y-158004742D01*
X116956100Y-158479258D02*
X116956100Y-158004742D01*
%TO.C,C8*%
X121156000Y-155041020D02*
X121156000Y-155322180D01*
X122176000Y-155041020D02*
X122176000Y-155322180D01*
%TO.C,R6*%
X130389100Y-152078458D02*
X130389100Y-151603942D01*
X131434100Y-152078458D02*
X131434100Y-151603942D01*
%TO.C,C5*%
X115923600Y-155372380D02*
X115923600Y-155091220D01*
X116943600Y-155372380D02*
X116943600Y-155091220D01*
%TO.C,C12*%
X115872400Y-151270580D02*
X115872400Y-150989420D01*
X116892400Y-151270580D02*
X116892400Y-150989420D01*
%TO.C,C9*%
X119606600Y-155041020D02*
X119606600Y-155322180D01*
X120626600Y-155041020D02*
X120626600Y-155322180D01*
%TD*%
M02*
