M48
; DRILL file {KiCad 8.0.2-1} date 2024-05-28T17:37:12-0600
; FORMAT={-:-/ absolute / inch / decimal}
; #@! TF.CreationDate,2024-05-28T17:37:12-06:00
; #@! TF.GenerationSoftware,Kicad,Pcbnew,8.0.2-1
; #@! TF.FileFunction,Plated,1,2,PTH
FMAT,2
INCH
; #@! TA.AperFunction,Plated,PTH,ViaDrill
T1C0.0118
%
G90
G05
T1
X4.5556Y-5.94
X4.5747Y-6.0447
X4.6012Y-6.121
X4.6233Y-6.0727
X4.6244Y-6.036
X4.6249Y-6.1447
X4.626Y-6.202
X4.6344Y-5.886
X4.648Y-5.726
X4.652Y-5.7664
X4.662Y-5.682
X4.678Y-6.394
X4.7049Y-6.1792
X4.714Y-5.852
X4.725Y-6.3141
X4.734Y-5.754
X4.7398Y-6.3614
X4.77Y-6.3704
X4.7939Y-5.928
X4.8284Y-6.1989
X4.8285Y-6.0686
X4.8316Y-5.9298
X4.832Y-6.1676
X4.8496Y-6.3084
X4.857Y-6.106
X4.858Y-6.1384
X4.86Y-6.0686
X4.8698Y-6.2018
X4.8706Y-5.7262
X4.8898Y-5.8934
X4.89Y-5.772
X4.8944Y-5.9246
X4.908Y-6.2316
X4.912Y-6.3084
X4.928Y-6.1579
X4.93Y-6.1106
X4.9484Y-6.2619
X4.9486Y-5.9098
X4.9503Y-6.1357
X4.9503Y-6.0866
X4.9638Y-6.3334
X4.9816Y-5.9102
X4.9916Y-5.98
X5.014Y-6.3856
X5.068Y-6.374
X5.08Y-5.903
X5.0992Y-6.1616
X5.1075Y-6.258
X5.1078Y-6.0645
X5.1078Y-6.096
X5.1078Y-6.1275
X5.1247Y-5.6816
X5.1322Y-6.0446
X5.1689Y-5.8111
X5.1874Y-6.212
M30
