%TF.GenerationSoftware,KiCad,Pcbnew,8.0.2-1*%
%TF.CreationDate,2024-05-28T17:37:14-06:00*%
%TF.ProjectId,magicreceiver,6d616769-6372-4656-9365-697665722e6b,rev?*%
%TF.SameCoordinates,Original*%
%TF.FileFunction,Copper,L2,Bot*%
%TF.FilePolarity,Positive*%
%FSLAX46Y46*%
G04 Gerber Fmt 4.6, Leading zero omitted, Abs format (unit mm)*
G04 Created by KiCad (PCBNEW 8.0.2-1) date 2024-05-28 17:37:14*
%MOMM*%
%LPD*%
G01*
G04 APERTURE LIST*
G04 Aperture macros list*
%AMRoundRect*
0 Rectangle with rounded corners*
0 $1 Rounding radius*
0 $2 $3 $4 $5 $6 $7 $8 $9 X,Y pos of 4 corners*
0 Add a 4 corners polygon primitive as box body*
4,1,4,$2,$3,$4,$5,$6,$7,$8,$9,$2,$3,0*
0 Add four circle primitives for the rounded corners*
1,1,$1+$1,$2,$3*
1,1,$1+$1,$4,$5*
1,1,$1+$1,$6,$7*
1,1,$1+$1,$8,$9*
0 Add four rect primitives between the rounded corners*
20,1,$1+$1,$2,$3,$4,$5,0*
20,1,$1+$1,$4,$5,$6,$7,0*
20,1,$1+$1,$6,$7,$8,$9,0*
20,1,$1+$1,$8,$9,$2,$3,0*%
G04 Aperture macros list end*
%TA.AperFunction,SMDPad,CuDef*%
%ADD10RoundRect,0.225000X0.250000X-0.225000X0.250000X0.225000X-0.250000X0.225000X-0.250000X-0.225000X0*%
%TD*%
%TA.AperFunction,SMDPad,CuDef*%
%ADD11RoundRect,0.225000X-0.250000X0.225000X-0.250000X-0.225000X0.250000X-0.225000X0.250000X0.225000X0*%
%TD*%
%TA.AperFunction,SMDPad,CuDef*%
%ADD12RoundRect,0.225000X-0.225000X-0.250000X0.225000X-0.250000X0.225000X0.250000X-0.225000X0.250000X0*%
%TD*%
%TA.AperFunction,SMDPad,CuDef*%
%ADD13R,0.950000X2.500000*%
%TD*%
%TA.AperFunction,SMDPad,CuDef*%
%ADD14RoundRect,0.200000X-0.275000X0.200000X-0.275000X-0.200000X0.275000X-0.200000X0.275000X0.200000X0*%
%TD*%
%TA.AperFunction,ViaPad*%
%ADD15C,0.600000*%
%TD*%
%TA.AperFunction,Conductor*%
%ADD16C,0.200000*%
%TD*%
G04 APERTURE END LIST*
D10*
%TO.P,C10,1*%
%TO.N,+3V3*%
X118567200Y-155956600D03*
%TO.P,C10,2*%
%TO.N,GND*%
X118567200Y-154406600D03*
%TD*%
D11*
%TO.P,C13,1*%
%TO.N,+3V3*%
X116382800Y-147357800D03*
%TO.P,C13,2*%
%TO.N,GND*%
X116382800Y-148907800D03*
%TD*%
%TO.P,C6,1*%
%TO.N,GND*%
X121666000Y-157403800D03*
%TO.P,C6,2*%
%TO.N,+1V1*%
X121666000Y-158953800D03*
%TD*%
D10*
%TO.P,C4,1*%
%TO.N,GND*%
X131165600Y-156832600D03*
%TO.P,C4,2*%
%TO.N,+3V3*%
X131165600Y-155282600D03*
%TD*%
D12*
%TO.P,C3,1*%
%TO.N,+1V1*%
X129730200Y-158953200D03*
%TO.P,C3,2*%
%TO.N,GND*%
X131280200Y-158953200D03*
%TD*%
D10*
%TO.P,C14,1*%
%TO.N,+3V3*%
X116382400Y-145910600D03*
%TO.P,C14,2*%
%TO.N,GND*%
X116382400Y-144360600D03*
%TD*%
D11*
%TO.P,C11,1*%
%TO.N,+3V3*%
X118567200Y-157416800D03*
%TO.P,C11,2*%
%TO.N,GND*%
X118567200Y-158966800D03*
%TD*%
D13*
%TO.P,J2,1,Pin_1*%
%TO.N,+3V3*%
X128056400Y-152342000D03*
%TO.P,J2,2,Pin_2*%
%TO.N,GND*%
X126786400Y-152342000D03*
%TO.P,J2,3,Pin_3*%
%TO.N,/RF_CE*%
X125516400Y-152342000D03*
%TO.P,J2,4,Pin_4*%
%TO.N,/RF_CSN*%
X124246400Y-152342000D03*
%TO.P,J2,5,Pin_5*%
%TO.N,/RF_SCK*%
X122976400Y-152342000D03*
%TO.P,J2,6,Pin_6*%
%TO.N,/RF_MOSI*%
X121706400Y-152342000D03*
%TO.P,J2,7,Pin_7*%
%TO.N,/RF_MISO*%
X120436400Y-152342000D03*
%TO.P,J2,8,Pin_8*%
%TO.N,/RF_IRQ*%
X119166400Y-152342000D03*
%TD*%
D10*
%TO.P,C7,1*%
%TO.N,+1V1*%
X120116600Y-158953800D03*
%TO.P,C7,2*%
%TO.N,GND*%
X120116600Y-157403800D03*
%TD*%
D14*
%TO.P,R4,1*%
%TO.N,/~{USB_BOOT}*%
X116433600Y-157417000D03*
%TO.P,R4,2*%
%TO.N,/QSPI_SS*%
X116433600Y-159067000D03*
%TD*%
D10*
%TO.P,C8,1*%
%TO.N,+3V3*%
X121666000Y-155956600D03*
%TO.P,C8,2*%
%TO.N,GND*%
X121666000Y-154406600D03*
%TD*%
D14*
%TO.P,R6,1*%
%TO.N,+3V3*%
X130911600Y-151016200D03*
%TO.P,R6,2*%
%TO.N,/RUN*%
X130911600Y-152666200D03*
%TD*%
D11*
%TO.P,C5,1*%
%TO.N,+3V3*%
X116433600Y-154456800D03*
%TO.P,C5,2*%
%TO.N,GND*%
X116433600Y-156006800D03*
%TD*%
%TO.P,C12,1*%
%TO.N,+3V3*%
X116382400Y-150355000D03*
%TO.P,C12,2*%
%TO.N,GND*%
X116382400Y-151905000D03*
%TD*%
D10*
%TO.P,C9,1*%
%TO.N,+3V3*%
X120116600Y-155956600D03*
%TO.P,C9,2*%
%TO.N,GND*%
X120116600Y-154406600D03*
%TD*%
D15*
%TO.N,GND*%
X128727200Y-161899600D03*
X120015000Y-160379000D03*
X118414800Y-144322800D03*
X117713200Y-149504400D03*
X117459200Y-153314400D03*
X116869262Y-155472973D03*
X119505565Y-156952272D03*
X123714388Y-145446699D03*
X118821200Y-162407600D03*
X126786400Y-151892000D03*
X129032000Y-149935800D03*
X125695015Y-150109478D03*
X119735600Y-148640800D03*
X120243600Y-146151600D03*
X131290509Y-147602200D03*
%TO.N,+1V1*%
X129738502Y-154038397D03*
X129730200Y-158953200D03*
X125690200Y-159051800D03*
%TO.N,+3V3*%
X126532678Y-150119825D03*
X116197465Y-153535465D03*
X123393367Y-155914800D03*
X130167465Y-144313200D03*
X118059200Y-145440400D03*
X115711600Y-150876000D03*
X131761200Y-157784800D03*
X124764800Y-160233000D03*
X124664427Y-158283000D03*
X130357838Y-153532010D03*
X123692055Y-157524855D03*
X124206000Y-146608800D03*
X125222000Y-155210000D03*
%TO.N,VBUS*%
X127355600Y-162194800D03*
X118160800Y-146466000D03*
%TO.N,/RUN*%
X123367551Y-155092087D03*
X125738501Y-154599073D03*
%TO.N,/~{USB_BOOT}*%
X122643997Y-154143602D03*
X117432035Y-154246365D03*
X117472244Y-156075956D03*
%TO.N,/RF_CE*%
X124199992Y-149692283D03*
%TO.N,/RF_SCK*%
X122722127Y-150616000D03*
%TO.N,/RF_MOSI*%
X121764290Y-150570044D03*
%TO.N,/RF_CSN*%
X123444000Y-154143602D03*
%TO.N,/RF_MISO*%
X124316772Y-150483716D03*
%TO.N,/QSPI_SS*%
X126080129Y-160868529D03*
X129738502Y-154838400D03*
X117500400Y-157530800D03*
X123180400Y-160233000D03*
%TO.N,/QSPI_SD1*%
X129738502Y-155638403D03*
X120390527Y-161579000D03*
%TO.N,/QSPI_SD2*%
X129518677Y-156503577D03*
X121157173Y-161807600D03*
%TO.N,/QSPI_SCLK*%
X125171200Y-156410000D03*
X122641000Y-157452318D03*
%TO.N,/QSPI_SD0*%
X125738498Y-155845933D03*
X122732800Y-156657600D03*
%TD*%
D16*
%TO.N,GND*%
X131280200Y-158953200D02*
X130505200Y-159728200D01*
X129527000Y-159728200D02*
X129070000Y-160185200D01*
X129070000Y-160185200D02*
X129070000Y-161556800D01*
X129070000Y-161556800D02*
X127685800Y-162941000D01*
X130505200Y-159728200D02*
X129527000Y-159728200D01*
X127685800Y-162941000D02*
X119354600Y-162941000D01*
X119354600Y-162941000D02*
X118821200Y-162407600D01*
%TO.N,VBUS*%
X127142800Y-162407600D02*
X120370600Y-162407600D01*
X116027200Y-152857200D02*
X117043200Y-152857200D01*
X120370600Y-162407600D02*
X117775500Y-159812500D01*
X127355600Y-162194800D02*
X127142800Y-162407600D01*
X115915252Y-159812500D02*
X115316000Y-159213248D01*
X117775500Y-159812500D02*
X115915252Y-159812500D01*
X118313200Y-151587200D02*
X118313200Y-146618400D01*
X115316000Y-159213248D02*
X115316000Y-153568400D01*
X115316000Y-153568400D02*
X116027200Y-152857200D01*
X117043200Y-152857200D02*
X118313200Y-151587200D01*
X118313200Y-146618400D02*
X118160800Y-146466000D01*
%TO.N,GND*%
X116869262Y-155472973D02*
X116869262Y-155571138D01*
X125695015Y-150109478D02*
X125695015Y-150130691D01*
X126715342Y-151151018D02*
X126715342Y-151963058D01*
X116853000Y-148907800D02*
X116382800Y-148907800D01*
X117449600Y-149504400D02*
X116853000Y-148907800D01*
X118567200Y-158966800D02*
X118602800Y-158966800D01*
X131161200Y-156837000D02*
X131165600Y-156832600D01*
X121666000Y-154406600D02*
X118567200Y-154406600D01*
X118414800Y-144322800D02*
X118377000Y-144360600D01*
X118567200Y-154406600D02*
X118551400Y-154406600D01*
X118567200Y-158966800D02*
X118580800Y-158966800D01*
X118602800Y-158966800D02*
X120015000Y-160379000D01*
X117713200Y-150574200D02*
X116382400Y-151905000D01*
X131161200Y-158834200D02*
X131161200Y-156837000D01*
X117713200Y-149504400D02*
X117449600Y-149504400D01*
X117459200Y-153314400D02*
X117459200Y-153425000D01*
X121666000Y-157403800D02*
X120116600Y-157403800D01*
X117713200Y-149504400D02*
X117713200Y-150574200D01*
X125695015Y-150130691D02*
X126715342Y-151151018D01*
X119957093Y-157403800D02*
X119505565Y-156952272D01*
X119997962Y-157648838D02*
X120116600Y-157530200D01*
X120116600Y-157403800D02*
X119957093Y-157403800D01*
X131290509Y-147677291D02*
X131290509Y-147602200D01*
X131280200Y-158953200D02*
X131161200Y-158834200D01*
X118377000Y-144360600D02*
X116382400Y-144360600D01*
X118551400Y-154406600D02*
X117459200Y-153314400D01*
X118580800Y-158966800D02*
X118618000Y-159004000D01*
X129032000Y-149935800D02*
X131290509Y-147677291D01*
X116869262Y-155571138D02*
X116433600Y-156006800D01*
%TO.N,+1V1*%
X120116600Y-158953800D02*
X121666000Y-158953800D01*
X125690200Y-159051800D02*
X125690200Y-158038173D01*
X125690200Y-159051800D02*
X125690200Y-160409929D01*
X130390600Y-154641969D02*
X129787028Y-154038397D01*
X125690200Y-160409929D02*
X125267329Y-160832800D01*
X122377200Y-160832800D02*
X121310400Y-159766000D01*
X129744194Y-153847739D02*
X129738502Y-153853431D01*
X121310400Y-159766000D02*
X121310400Y-158877000D01*
X130390600Y-158292800D02*
X130390600Y-154641969D01*
X129787028Y-154038397D02*
X129738502Y-154038397D01*
X125267329Y-160832800D02*
X122377200Y-160832800D01*
X129738502Y-153853431D02*
X129738502Y-154038397D01*
X129730200Y-158953200D02*
X130390600Y-158292800D01*
X129689976Y-154038397D02*
X129738502Y-154038397D01*
X125690200Y-158038173D02*
X129689976Y-154038397D01*
%TO.N,+3V3*%
X118201418Y-155956600D02*
X116701618Y-154456800D01*
X125222000Y-155210000D02*
X124098167Y-155210000D01*
X116382800Y-147357800D02*
X116382800Y-145911000D01*
X124206000Y-148793200D02*
X124206000Y-146608800D01*
X118059200Y-145440400D02*
X116852600Y-145440400D01*
X116382800Y-145911000D02*
X116382400Y-145910600D01*
X126532678Y-150119825D02*
X126701025Y-150119825D01*
X115519200Y-147624800D02*
X115786200Y-147357800D01*
X124922278Y-149509478D02*
X124206000Y-148793200D01*
X118567200Y-157416800D02*
X118567200Y-155956600D01*
X115907400Y-150355000D02*
X115511600Y-149959200D01*
X116701618Y-154456800D02*
X116433600Y-154456800D01*
X131711200Y-151866600D02*
X130860800Y-151016200D01*
X121691400Y-156057600D02*
X121666000Y-156083000D01*
X123692055Y-157524855D02*
X123692055Y-157651855D01*
X116852600Y-145440400D02*
X116382400Y-145910600D01*
X131165600Y-155282600D02*
X131640600Y-155282600D01*
X131711200Y-153794172D02*
X131711200Y-151866600D01*
X124098167Y-155210000D02*
X123393367Y-155914800D01*
X131165600Y-155282600D02*
X131165600Y-154339772D01*
X130167465Y-144313200D02*
X126501600Y-144313200D01*
X115786200Y-147357800D02*
X116382800Y-147357800D01*
X124664427Y-160132627D02*
X124664427Y-158283000D01*
X124323200Y-158283000D02*
X124664427Y-158283000D01*
X116484400Y-153822400D02*
X116484400Y-154239582D01*
X116382400Y-150355000D02*
X116232600Y-150355000D01*
X131640600Y-155282600D02*
X131961200Y-155603200D01*
X128056400Y-151475200D02*
X128056400Y-151892000D01*
X126701025Y-150119825D02*
X128056400Y-151475200D01*
X116197465Y-153535465D02*
X116484400Y-153822400D01*
X116232600Y-150355000D02*
X115711600Y-150876000D01*
X130357838Y-153532010D02*
X131165600Y-154339772D01*
X115511600Y-149959200D02*
X115511600Y-147624800D01*
X131961200Y-155603200D02*
X131961200Y-157584800D01*
X123692055Y-157651855D02*
X124323200Y-158283000D01*
X129033800Y-151016200D02*
X128056400Y-151993600D01*
X126532678Y-150119825D02*
X126532678Y-150098612D01*
X123393367Y-155914800D02*
X123250567Y-156057600D01*
X126532678Y-150098612D02*
X125943544Y-149509478D01*
X130911600Y-151016200D02*
X129033800Y-151016200D01*
X126501600Y-144313200D02*
X124206000Y-146608800D01*
X131165600Y-154339772D02*
X131711200Y-153794172D01*
X118567200Y-155956600D02*
X121666000Y-155956600D01*
X118567200Y-155956600D02*
X118201418Y-155956600D01*
X131961200Y-157584800D02*
X131761200Y-157784800D01*
X116382400Y-150355000D02*
X115907400Y-150355000D01*
X125943544Y-149509478D02*
X124922278Y-149509478D01*
X115511600Y-147624800D02*
X115519200Y-147624800D01*
X124764800Y-160233000D02*
X124664427Y-160132627D01*
X123250567Y-156057600D02*
X121691400Y-156057600D01*
X118327818Y-156083000D02*
X118567200Y-156083000D01*
%TO.N,/RUN*%
X123837058Y-154599073D02*
X125738501Y-154599073D01*
X130239000Y-152666200D02*
X130911600Y-152666200D01*
X128320800Y-154584400D02*
X130239000Y-152666200D01*
X125753174Y-154584400D02*
X128320800Y-154584400D01*
X123367551Y-155092087D02*
X123367551Y-155068580D01*
X123367551Y-155068580D02*
X123837058Y-154599073D01*
X125738501Y-154599073D02*
X125753174Y-154584400D01*
%TO.N,/~{USB_BOOT}*%
X117432035Y-154246365D02*
X117432035Y-154495131D01*
X117432035Y-154495131D02*
X118143504Y-155206600D01*
X118143504Y-155206600D02*
X122110600Y-155206600D01*
X117472244Y-156378356D02*
X116433600Y-157417000D01*
X122643997Y-154673203D02*
X122643997Y-154143602D01*
X117472244Y-156075956D02*
X117472244Y-156378356D01*
X122110600Y-155206600D02*
X122643997Y-154673203D01*
%TO.N,/RF_CE*%
X124199992Y-149692283D02*
X124391425Y-149883716D01*
X125516400Y-150834815D02*
X125516400Y-151993600D01*
X124391425Y-149883716D02*
X124565301Y-149883716D01*
X124565301Y-149883716D02*
X125516400Y-150834815D01*
%TO.N,/RF_SCK*%
X122976400Y-150870273D02*
X122722127Y-150616000D01*
X122976400Y-151892000D02*
X122976400Y-150870273D01*
%TO.N,/RF_MOSI*%
X121764290Y-150570044D02*
X121706400Y-150627934D01*
X121706400Y-150627934D02*
X121706400Y-151993600D01*
%TO.N,/RF_CSN*%
X124246400Y-153398600D02*
X124246400Y-151993600D01*
X123501398Y-154143602D02*
X124246400Y-153398600D01*
X123444000Y-154143602D02*
X123501398Y-154143602D01*
%TO.N,/RF_MISO*%
X123458116Y-150483716D02*
X122885200Y-149910800D01*
X124316772Y-150483716D02*
X123458116Y-150483716D01*
X122885200Y-149910800D02*
X121361200Y-149910800D01*
X121361200Y-149910800D02*
X120436400Y-150835600D01*
X120436400Y-150835600D02*
X120436400Y-151993600D01*
%TO.N,/QSPI_SS*%
X117500400Y-158000200D02*
X117500400Y-157530800D01*
X122441000Y-159493600D02*
X122441000Y-158505104D01*
X127762000Y-156591000D02*
X129514600Y-154838400D01*
X129514600Y-154838400D02*
X129738502Y-154838400D01*
X127762000Y-159512000D02*
X127762000Y-156591000D01*
X122139696Y-158203800D02*
X118130504Y-158203800D01*
X126080129Y-160868529D02*
X126405471Y-160868529D01*
X116433600Y-159067000D02*
X117500400Y-158000200D01*
X123180400Y-160233000D02*
X122441000Y-159493600D01*
X118130504Y-158203800D02*
X117500400Y-157573696D01*
X117500400Y-157573696D02*
X117500400Y-157530800D01*
X122441000Y-158505104D02*
X122139696Y-158203800D01*
X126405471Y-160868529D02*
X127762000Y-159512000D01*
%TO.N,/QSPI_SD1*%
X129535322Y-155638403D02*
X129738502Y-155638403D01*
X128270000Y-159860714D02*
X128270000Y-156903725D01*
X121405702Y-161207600D02*
X121691302Y-161493200D01*
X121691302Y-161493200D02*
X126637514Y-161493200D01*
X120390527Y-161579000D02*
X120761927Y-161207600D01*
X126637514Y-161493200D02*
X128270000Y-159860714D01*
X128270000Y-156903725D02*
X129535322Y-155638403D01*
X120761927Y-161207600D02*
X121405702Y-161207600D01*
%TO.N,/QSPI_SD2*%
X128670000Y-157352254D02*
X129518677Y-156503577D01*
X121157173Y-161807600D02*
X121242773Y-161893200D01*
X126803200Y-161893200D02*
X128670000Y-160026400D01*
X121242773Y-161893200D02*
X126803200Y-161893200D01*
X128670000Y-160026400D02*
X128670000Y-157352254D01*
%TO.N,/QSPI_SCLK*%
X123447181Y-156921200D02*
X124660000Y-156921200D01*
X122916063Y-157452318D02*
X123447181Y-156921200D01*
X122641000Y-157452318D02*
X122916063Y-157452318D01*
X124660000Y-156921200D02*
X125171200Y-156410000D01*
%TO.N,/QSPI_SD0*%
X125702565Y-155810000D02*
X125738498Y-155845933D01*
X124922671Y-155810000D02*
X125702565Y-155810000D01*
X122732800Y-156657600D02*
X122875600Y-156514800D01*
X124217871Y-156514800D02*
X124922671Y-155810000D01*
X122875600Y-156514800D02*
X124217871Y-156514800D01*
%TD*%
%TA.AperFunction,Conductor*%
%TO.N,GND*%
G36*
X118086803Y-160973484D02*
G01*
X118093279Y-160979514D01*
X120001884Y-162888120D01*
X120001886Y-162888121D01*
X120001890Y-162888124D01*
X120058122Y-162920589D01*
X120138816Y-162967177D01*
X120291543Y-163008101D01*
X120291545Y-163008101D01*
X120457254Y-163008101D01*
X120457270Y-163008100D01*
X127056131Y-163008100D01*
X127056147Y-163008101D01*
X127063743Y-163008101D01*
X127221856Y-163008101D01*
X127221857Y-163008101D01*
X127259108Y-162998118D01*
X127305085Y-162994673D01*
X127339016Y-162998496D01*
X127355599Y-163000365D01*
X127355600Y-163000365D01*
X127355603Y-163000365D01*
X127534849Y-162980169D01*
X127534852Y-162980168D01*
X127534855Y-162980168D01*
X127534856Y-162980167D01*
X127534859Y-162980167D01*
X127571984Y-162967176D01*
X127604483Y-162955803D01*
X127674261Y-162952241D01*
X127695938Y-162959594D01*
X127711199Y-162966399D01*
X127711200Y-162966397D01*
X127711200Y-162966400D01*
X127834861Y-162842737D01*
X127856575Y-162825424D01*
X127857862Y-162824616D01*
X127985416Y-162697062D01*
X127986225Y-162695773D01*
X128003540Y-162674058D01*
X129129520Y-161548078D01*
X129190842Y-161514595D01*
X129260534Y-161519579D01*
X129316467Y-161561451D01*
X129340884Y-161626915D01*
X129341200Y-161635761D01*
X129341200Y-171988000D01*
X129321515Y-172055039D01*
X129268711Y-172100794D01*
X129217200Y-172112000D01*
X118005600Y-172112000D01*
X117938561Y-172092315D01*
X117892806Y-172039511D01*
X117881600Y-171988000D01*
X117881600Y-161067197D01*
X117901285Y-161000158D01*
X117954089Y-160954403D01*
X118023247Y-160944459D01*
X118086803Y-160973484D01*
G37*
%TD.AperFunction*%
%TA.AperFunction,Conductor*%
G36*
X119407154Y-159748278D02*
G01*
X119415726Y-159753107D01*
X119557894Y-159840798D01*
X119557897Y-159840799D01*
X119557903Y-159840803D01*
X119718892Y-159894149D01*
X119818255Y-159904300D01*
X120414944Y-159904299D01*
X120414952Y-159904298D01*
X120414955Y-159904298D01*
X120469360Y-159898740D01*
X120514308Y-159894149D01*
X120581270Y-159871959D01*
X120651097Y-159869558D01*
X120711139Y-159905289D01*
X120740047Y-159957571D01*
X120750822Y-159997783D01*
X120750825Y-159997790D01*
X120768261Y-160027989D01*
X120777670Y-160044285D01*
X120818140Y-160114381D01*
X120829879Y-160134714D01*
X120829881Y-160134717D01*
X120948749Y-160253585D01*
X120948755Y-160253590D01*
X121090584Y-160395419D01*
X121124069Y-160456742D01*
X121119085Y-160526434D01*
X121077213Y-160582367D01*
X121011749Y-160606784D01*
X121002903Y-160607100D01*
X120848596Y-160607100D01*
X120848580Y-160607099D01*
X120840984Y-160607099D01*
X120682870Y-160607099D01*
X120575514Y-160635865D01*
X120530137Y-160648024D01*
X120530136Y-160648025D01*
X120480023Y-160676959D01*
X120480022Y-160676960D01*
X120443330Y-160698143D01*
X120393210Y-160727080D01*
X120371990Y-160748300D01*
X120310666Y-160781784D01*
X120298194Y-160783837D01*
X120211277Y-160793630D01*
X120041005Y-160853210D01*
X119894096Y-160945520D01*
X119826859Y-160964520D01*
X119760024Y-160944152D01*
X119740443Y-160928207D01*
X118922250Y-160110014D01*
X118888765Y-160048691D01*
X118893749Y-159978999D01*
X118935621Y-159923066D01*
X118970928Y-159904627D01*
X119125679Y-159853348D01*
X119125692Y-159853342D01*
X119269924Y-159764378D01*
X119273716Y-159761380D01*
X119338511Y-159735239D01*
X119407154Y-159748278D01*
G37*
%TD.AperFunction*%
%TA.AperFunction,Conductor*%
G36*
X121797352Y-157173485D02*
G01*
X121843107Y-157226289D01*
X121853533Y-157291683D01*
X121835435Y-157452314D01*
X121835435Y-157452316D01*
X121836911Y-157465414D01*
X121824858Y-157534236D01*
X121777510Y-157585616D01*
X121713691Y-157603300D01*
X119990600Y-157603300D01*
X119923561Y-157583615D01*
X119877806Y-157530811D01*
X119866600Y-157479300D01*
X119866600Y-157277800D01*
X119886285Y-157210761D01*
X119939089Y-157165006D01*
X119990600Y-157153800D01*
X121730313Y-157153800D01*
X121797352Y-157173485D01*
G37*
%TD.AperFunction*%
%TA.AperFunction,Conductor*%
G36*
X121796122Y-154176285D02*
G01*
X121841877Y-154229089D01*
X121852303Y-154266717D01*
X121858627Y-154322848D01*
X121858629Y-154322859D01*
X121900020Y-154441145D01*
X121903582Y-154510924D01*
X121868854Y-154571551D01*
X121806860Y-154603779D01*
X121782979Y-154606100D01*
X118443601Y-154606100D01*
X118376562Y-154586415D01*
X118355920Y-154569781D01*
X118353519Y-154567380D01*
X118320034Y-154506057D01*
X118317200Y-154479699D01*
X118317200Y-154280600D01*
X118336885Y-154213561D01*
X118389689Y-154167806D01*
X118441200Y-154156600D01*
X121729083Y-154156600D01*
X121796122Y-154176285D01*
G37*
%TD.AperFunction*%
%TA.AperFunction,Conductor*%
G36*
X118460234Y-152391914D02*
G01*
X118516167Y-152433786D01*
X118540584Y-152499250D01*
X118540900Y-152508096D01*
X118540900Y-153332600D01*
X118521215Y-153399639D01*
X118468411Y-153445394D01*
X118416901Y-153456600D01*
X118268893Y-153456600D01*
X118268876Y-153456601D01*
X118169592Y-153466744D01*
X118008718Y-153520052D01*
X118008709Y-153520056D01*
X117959367Y-153550491D01*
X117891974Y-153568931D01*
X117828299Y-153549945D01*
X117781561Y-153520577D01*
X117611289Y-153460996D01*
X117611285Y-153460995D01*
X117577180Y-153457153D01*
X117512766Y-153430086D01*
X117473211Y-153372491D01*
X117471074Y-153302654D01*
X117503381Y-153246254D01*
X117523720Y-153225916D01*
X117523721Y-153225913D01*
X118329220Y-152420414D01*
X118390542Y-152386930D01*
X118460234Y-152391914D01*
G37*
%TD.AperFunction*%
%TA.AperFunction,Conductor*%
G36*
X117563502Y-147001226D02*
G01*
X117569980Y-147007258D01*
X117658537Y-147095815D01*
X117663984Y-147100159D01*
X117662406Y-147102137D01*
X117700953Y-147145700D01*
X117712700Y-147198380D01*
X117712700Y-151287102D01*
X117693015Y-151354141D01*
X117676381Y-151374783D01*
X117532097Y-151519067D01*
X117470774Y-151552552D01*
X117401082Y-151547568D01*
X117345149Y-151505696D01*
X117326710Y-151470390D01*
X117293947Y-151371518D01*
X117293942Y-151371507D01*
X117204975Y-151227271D01*
X117204972Y-151227267D01*
X117195739Y-151218034D01*
X117162254Y-151156711D01*
X117167238Y-151087019D01*
X117195743Y-151042668D01*
X117205368Y-151033044D01*
X117294403Y-150888697D01*
X117347749Y-150727708D01*
X117357900Y-150628345D01*
X117357899Y-150081656D01*
X117347749Y-149982292D01*
X117294403Y-149821303D01*
X117217326Y-149696343D01*
X117198886Y-149628954D01*
X117217327Y-149566150D01*
X117294344Y-149441288D01*
X117294347Y-149441281D01*
X117347655Y-149280406D01*
X117357799Y-149181122D01*
X117357800Y-149181109D01*
X117357800Y-149157800D01*
X116256800Y-149157800D01*
X116189761Y-149138115D01*
X116144006Y-149085311D01*
X116132800Y-149033800D01*
X116132800Y-148781800D01*
X116152485Y-148714761D01*
X116205289Y-148669006D01*
X116256800Y-148657800D01*
X117357799Y-148657800D01*
X117357799Y-148634492D01*
X117357798Y-148634477D01*
X117347655Y-148535192D01*
X117294347Y-148374318D01*
X117294342Y-148374307D01*
X117205375Y-148230071D01*
X117205372Y-148230067D01*
X117196139Y-148220834D01*
X117162654Y-148159511D01*
X117167638Y-148089819D01*
X117196143Y-148045468D01*
X117205768Y-148035844D01*
X117294803Y-147891497D01*
X117348149Y-147730508D01*
X117358300Y-147631145D01*
X117358299Y-147094938D01*
X117377983Y-147027900D01*
X117430787Y-146982145D01*
X117499946Y-146972201D01*
X117563502Y-147001226D01*
G37*
%TD.AperFunction*%
%TA.AperFunction,Conductor*%
G36*
X132003739Y-143232685D02*
G01*
X132049494Y-143285489D01*
X132060700Y-143337000D01*
X132060700Y-150463280D01*
X132041015Y-150530319D01*
X131988211Y-150576074D01*
X131919053Y-150586018D01*
X131855497Y-150556993D01*
X131830583Y-150527430D01*
X131830078Y-150526594D01*
X131742072Y-150381015D01*
X131742070Y-150381013D01*
X131742069Y-150381011D01*
X131621788Y-150260730D01*
X131531257Y-150206002D01*
X131476206Y-150172722D01*
X131313796Y-150122114D01*
X131313794Y-150122113D01*
X131313792Y-150122113D01*
X131264378Y-150117623D01*
X131243216Y-150115700D01*
X130579984Y-150115700D01*
X130560745Y-150117448D01*
X130509407Y-150122113D01*
X130346993Y-150172722D01*
X130201411Y-150260730D01*
X130201410Y-150260731D01*
X130082761Y-150379381D01*
X130021438Y-150412866D01*
X129995080Y-150415700D01*
X128954741Y-150415700D01*
X128922467Y-150424347D01*
X128922468Y-150424348D01*
X128802014Y-150456623D01*
X128802009Y-150456626D01*
X128665090Y-150535675D01*
X128665082Y-150535681D01*
X128596950Y-150603814D01*
X128553280Y-150647484D01*
X128553278Y-150647486D01*
X128473056Y-150727708D01*
X128403280Y-150797484D01*
X128341957Y-150830968D01*
X128272265Y-150825984D01*
X128227920Y-150797484D01*
X127309552Y-149879117D01*
X127280192Y-149832391D01*
X127276312Y-149821303D01*
X127258467Y-149770303D01*
X127162494Y-149617563D01*
X127034940Y-149490009D01*
X126939882Y-149430280D01*
X126882199Y-149394035D01*
X126711927Y-149334455D01*
X126648913Y-149327355D01*
X126584499Y-149300288D01*
X126575117Y-149291816D01*
X126431134Y-149147833D01*
X126431132Y-149147830D01*
X126312261Y-149028959D01*
X126312260Y-149028958D01*
X126225448Y-148978838D01*
X126225448Y-148978837D01*
X126225444Y-148978836D01*
X126175329Y-148949901D01*
X126022601Y-148908977D01*
X125864487Y-148908977D01*
X125856891Y-148908977D01*
X125856875Y-148908978D01*
X125222375Y-148908978D01*
X125155336Y-148889293D01*
X125134694Y-148872659D01*
X124842819Y-148580784D01*
X124809334Y-148519461D01*
X124806500Y-148493103D01*
X124806500Y-147191212D01*
X124826185Y-147124173D01*
X124833555Y-147113897D01*
X124835810Y-147111067D01*
X124835816Y-147111062D01*
X124931789Y-146958322D01*
X124991368Y-146788055D01*
X125001161Y-146701129D01*
X125028226Y-146636718D01*
X125036690Y-146627343D01*
X126714017Y-144950019D01*
X126775340Y-144916534D01*
X126801698Y-144913700D01*
X129585053Y-144913700D01*
X129652092Y-144933385D01*
X129662368Y-144940755D01*
X129665201Y-144943014D01*
X129665203Y-144943016D01*
X129817943Y-145038989D01*
X129966228Y-145090876D01*
X129988210Y-145098568D01*
X129988215Y-145098569D01*
X130167461Y-145118765D01*
X130167465Y-145118765D01*
X130167469Y-145118765D01*
X130346714Y-145098569D01*
X130346717Y-145098568D01*
X130346720Y-145098568D01*
X130516987Y-145038989D01*
X130669727Y-144943016D01*
X130797281Y-144815462D01*
X130893254Y-144662722D01*
X130952833Y-144492455D01*
X130973030Y-144313200D01*
X130957441Y-144174846D01*
X130952834Y-144133950D01*
X130952833Y-144133945D01*
X130893253Y-143963676D01*
X130810939Y-143832675D01*
X130797281Y-143810938D01*
X130669727Y-143683384D01*
X130668904Y-143682867D01*
X130516988Y-143587411D01*
X130346719Y-143527831D01*
X130346714Y-143527830D01*
X130167469Y-143507635D01*
X130167461Y-143507635D01*
X129988215Y-143527830D01*
X129988210Y-143527831D01*
X129817941Y-143587411D01*
X129665201Y-143683385D01*
X129662368Y-143685645D01*
X129660189Y-143686534D01*
X129659307Y-143687089D01*
X129659209Y-143686934D01*
X129597682Y-143712055D01*
X129585053Y-143712700D01*
X126588270Y-143712700D01*
X126588254Y-143712699D01*
X126580658Y-143712699D01*
X126422543Y-143712699D01*
X126346179Y-143733161D01*
X126269814Y-143753623D01*
X126269809Y-143753626D01*
X126132890Y-143832675D01*
X126132882Y-143832681D01*
X124187465Y-145778098D01*
X124126142Y-145811583D01*
X124113668Y-145813637D01*
X124026750Y-145823430D01*
X123856478Y-145883010D01*
X123703737Y-145978984D01*
X123576184Y-146106537D01*
X123480211Y-146259276D01*
X123420631Y-146429545D01*
X123420630Y-146429550D01*
X123400435Y-146608796D01*
X123400435Y-146608803D01*
X123420630Y-146788049D01*
X123420631Y-146788054D01*
X123480211Y-146958323D01*
X123523930Y-147027900D01*
X123566604Y-147095816D01*
X123576185Y-147111063D01*
X123578445Y-147113897D01*
X123579334Y-147116075D01*
X123579889Y-147116958D01*
X123579734Y-147117055D01*
X123604855Y-147178583D01*
X123605500Y-147191212D01*
X123605500Y-148706530D01*
X123605499Y-148706548D01*
X123605499Y-148872254D01*
X123605498Y-148872254D01*
X123620428Y-148927973D01*
X123634057Y-148978837D01*
X123646657Y-149025857D01*
X123644994Y-149095707D01*
X123614564Y-149145631D01*
X123570178Y-149190017D01*
X123474201Y-149342762D01*
X123459593Y-149384510D01*
X123418871Y-149441286D01*
X123353917Y-149467032D01*
X123285356Y-149453575D01*
X123254871Y-149431235D01*
X123253917Y-149430281D01*
X123253916Y-149430280D01*
X123167104Y-149380160D01*
X123167104Y-149380159D01*
X123167100Y-149380158D01*
X123116985Y-149351223D01*
X122964257Y-149310299D01*
X122806143Y-149310299D01*
X122798547Y-149310299D01*
X122798531Y-149310300D01*
X121447870Y-149310300D01*
X121447854Y-149310299D01*
X121440258Y-149310299D01*
X121282143Y-149310299D01*
X121218491Y-149327355D01*
X121129414Y-149351223D01*
X121129409Y-149351226D01*
X120992490Y-149430275D01*
X120992482Y-149430281D01*
X119955881Y-150466882D01*
X119955877Y-150466887D01*
X119915432Y-150536942D01*
X119915432Y-150536943D01*
X119876823Y-150603814D01*
X119876823Y-150603815D01*
X119835899Y-150756543D01*
X119835899Y-150756545D01*
X119835899Y-150826145D01*
X119816214Y-150893184D01*
X119763410Y-150938939D01*
X119694252Y-150948883D01*
X119687710Y-150947763D01*
X119656221Y-150941500D01*
X119656220Y-150941500D01*
X119037700Y-150941500D01*
X118970661Y-150921815D01*
X118924906Y-150869011D01*
X118913700Y-150817500D01*
X118913700Y-146759112D01*
X118920658Y-146718158D01*
X118927144Y-146699621D01*
X118946168Y-146645255D01*
X118950275Y-146608803D01*
X118966365Y-146466003D01*
X118966365Y-146465996D01*
X118946169Y-146286750D01*
X118946168Y-146286745D01*
X118886588Y-146116476D01*
X118839100Y-146040900D01*
X118790616Y-145963738D01*
X118790011Y-145963133D01*
X118789745Y-145962646D01*
X118786275Y-145958295D01*
X118787037Y-145957687D01*
X118756526Y-145901810D01*
X118761510Y-145832118D01*
X118772691Y-145809492D01*
X118784989Y-145789922D01*
X118844568Y-145619655D01*
X118844569Y-145619649D01*
X118864765Y-145440403D01*
X118864765Y-145440396D01*
X118844569Y-145261150D01*
X118844568Y-145261145D01*
X118784988Y-145090876D01*
X118745782Y-145028480D01*
X118689016Y-144938138D01*
X118561462Y-144810584D01*
X118492753Y-144767411D01*
X118408723Y-144714611D01*
X118238454Y-144655031D01*
X118238449Y-144655030D01*
X118059204Y-144634835D01*
X118059196Y-144634835D01*
X117879950Y-144655030D01*
X117879945Y-144655031D01*
X117709676Y-144714611D01*
X117556936Y-144810585D01*
X117554103Y-144812845D01*
X117551924Y-144813734D01*
X117551042Y-144814289D01*
X117550944Y-144814134D01*
X117489417Y-144839255D01*
X117476788Y-144839900D01*
X117473670Y-144839900D01*
X117406631Y-144820215D01*
X117360876Y-144767411D01*
X117350312Y-144703298D01*
X117357399Y-144633924D01*
X117357400Y-144633909D01*
X117357400Y-144610600D01*
X116256400Y-144610600D01*
X116189361Y-144590915D01*
X116143606Y-144538111D01*
X116132400Y-144486600D01*
X116132400Y-144234600D01*
X116152085Y-144167561D01*
X116204889Y-144121806D01*
X116256400Y-144110600D01*
X117357399Y-144110600D01*
X117357399Y-144087292D01*
X117357398Y-144087277D01*
X117347255Y-143987992D01*
X117293947Y-143827118D01*
X117293942Y-143827107D01*
X117204975Y-143682871D01*
X117204972Y-143682867D01*
X117085132Y-143563027D01*
X117085128Y-143563024D01*
X116940892Y-143474057D01*
X116940881Y-143474052D01*
X116882497Y-143454706D01*
X116825052Y-143414934D01*
X116798229Y-143350418D01*
X116810544Y-143281642D01*
X116858087Y-143230442D01*
X116921501Y-143213000D01*
X131936700Y-143213000D01*
X132003739Y-143232685D01*
G37*
%TD.AperFunction*%
%TD*%
M02*
