M48
; DRILL file {KiCad 8.0.2-1} date 2024-05-28T17:04:50-0600
; FORMAT={-:-/ absolute / inch / decimal}
; #@! TF.CreationDate,2024-05-28T17:04:50-06:00
; #@! TF.GenerationSoftware,Kicad,Pcbnew,8.0.2-1
; #@! TF.FileFunction,NonPlated,1,2,NPTH
FMAT,2
INCH
; #@! TA.AperFunction,NonPlated,NPTH,ComponentDrill
T1C0.0197
; #@! TA.AperFunction,NonPlated,NPTH,ComponentDrill
T2C0.0256
; #@! TA.AperFunction,NonPlated,NPTH,ComponentDrill
T3C0.1063
; #@! TA.AperFunction,NonPlated,NPTH,ComponentDrill
T4C0.2067
%
G90
G05
T1
X6.5822Y-3.7826
X7.2121Y-3.7826
T2
X8.9539Y-1.811
X9.1815Y-1.811
T3
X4.0551Y-1.9291
X4.0587Y-3.4744
X5.474Y-3.08
X5.9287Y-5.0689
X8.326Y-3.08
X9.5079Y-3.8091
X9.7441Y-1.9291
X9.7441Y-5.187
T4
X4.2887Y-3.0469
X4.5452Y-2.3421
X4.9934Y-3.3034
X5.2499Y-2.5986
X5.6982Y-3.5599
X5.9547Y-2.8551
X6.1313Y-4.4654
X6.5246Y-2.0492
X7.2746Y-2.0492
X7.6679Y-4.4654
X7.8445Y-2.8551
X8.101Y-3.5599
X8.5493Y-2.5986
X8.8058Y-3.3034
X9.254Y-2.3421
X9.5105Y-3.0469
M30
