%TF.GenerationSoftware,KiCad,Pcbnew,8.0.2-1*%
%TF.CreationDate,2024-05-28T17:04:48-06:00*%
%TF.ProjectId,magicfingers,6d616769-6366-4696-9e67-6572732e6b69,rev?*%
%TF.SameCoordinates,Original*%
%TF.FileFunction,Paste,Top*%
%TF.FilePolarity,Positive*%
%FSLAX46Y46*%
G04 Gerber Fmt 4.6, Leading zero omitted, Abs format (unit mm)*
G04 Created by KiCad (PCBNEW 8.0.2-1) date 2024-05-28 17:04:48*
%MOMM*%
%LPD*%
G01*
G04 APERTURE LIST*
G04 Aperture macros list*
%AMRoundRect*
0 Rectangle with rounded corners*
0 $1 Rounding radius*
0 $2 $3 $4 $5 $6 $7 $8 $9 X,Y pos of 4 corners*
0 Add a 4 corners polygon primitive as box body*
4,1,4,$2,$3,$4,$5,$6,$7,$8,$9,$2,$3,0*
0 Add four circle primitives for the rounded corners*
1,1,$1+$1,$2,$3*
1,1,$1+$1,$4,$5*
1,1,$1+$1,$6,$7*
1,1,$1+$1,$8,$9*
0 Add four rect primitives between the rounded corners*
20,1,$1+$1,$2,$3,$4,$5,0*
20,1,$1+$1,$4,$5,$6,$7,0*
20,1,$1+$1,$6,$7,$8,$9,0*
20,1,$1+$1,$8,$9,$2,$3,0*%
%AMRotRect*
0 Rectangle, with rotation*
0 The origin of the aperture is its center*
0 $1 length*
0 $2 width*
0 $3 Rotation angle, in degrees counterclockwise*
0 Add horizontal line*
21,1,$1,$2,0,0,$3*%
G04 Aperture macros list end*
%ADD10RoundRect,0.150000X-0.650000X-0.150000X0.650000X-0.150000X0.650000X0.150000X-0.650000X0.150000X0*%
%ADD11RoundRect,0.225000X-0.250000X0.225000X-0.250000X-0.225000X0.250000X-0.225000X0.250000X0.225000X0*%
%ADD12RoundRect,0.250000X0.151491X0.534018X-0.459309X0.311705X-0.151491X-0.534018X0.459309X-0.311705X0*%
%ADD13RoundRect,0.200000X-0.275000X0.200000X-0.275000X-0.200000X0.275000X-0.200000X0.275000X0.200000X0*%
%ADD14RoundRect,0.375000X-0.725000X-0.375000X0.725000X-0.375000X0.725000X0.375000X-0.725000X0.375000X0*%
%ADD15RoundRect,0.375000X-0.600349X0.553020X-0.104420X-0.809535X0.600349X-0.553020X0.104420X0.809535X0*%
%ADD16RoundRect,0.250000X-0.450000X0.325000X-0.450000X-0.325000X0.450000X-0.325000X0.450000X0.325000X0*%
%ADD17RoundRect,0.225000X0.225000X0.250000X-0.225000X0.250000X-0.225000X-0.250000X0.225000X-0.250000X0*%
%ADD18RoundRect,0.249999X-0.395001X-0.395001X0.395001X-0.395001X0.395001X0.395001X-0.395001X0.395001X0*%
%ADD19RoundRect,0.050000X-0.387500X-0.050000X0.387500X-0.050000X0.387500X0.050000X-0.387500X0.050000X0*%
%ADD20RoundRect,0.050000X-0.050000X-0.387500X0.050000X-0.387500X0.050000X0.387500X-0.050000X0.387500X0*%
%ADD21RoundRect,0.200000X0.275000X-0.200000X0.275000X0.200000X-0.275000X0.200000X-0.275000X-0.200000X0*%
%ADD22RoundRect,0.100000X0.100000X-0.900000X0.100000X0.900000X-0.100000X0.900000X-0.100000X-0.900000X0*%
%ADD23RoundRect,0.250000X-0.459309X-0.311705X0.151491X-0.534018X0.459309X0.311705X-0.151491X0.534018X0*%
%ADD24RoundRect,0.250000X0.325000X0.450000X-0.325000X0.450000X-0.325000X-0.450000X0.325000X-0.450000X0*%
%ADD25RoundRect,0.225000X0.017678X-0.335876X0.335876X-0.017678X-0.017678X0.335876X-0.335876X0.017678X0*%
%ADD26RoundRect,0.225000X-0.225000X-0.250000X0.225000X-0.250000X0.225000X0.250000X-0.225000X0.250000X0*%
%ADD27RoundRect,0.250000X-0.534018X0.151491X-0.311705X-0.459309X0.534018X-0.151491X0.311705X0.459309X0*%
%ADD28R,0.600000X1.450000*%
%ADD29R,0.300000X1.450000*%
%ADD30R,1.560000X0.650000*%
%ADD31R,0.950000X2.500000*%
%ADD32RoundRect,0.225000X0.250000X-0.225000X0.250000X0.225000X-0.250000X0.225000X-0.250000X-0.225000X0*%
%ADD33RoundRect,0.150000X0.587500X0.150000X-0.587500X0.150000X-0.587500X-0.150000X0.587500X-0.150000X0*%
%ADD34RoundRect,0.225000X-0.375000X0.225000X-0.375000X-0.225000X0.375000X-0.225000X0.375000X0.225000X0*%
%ADD35RoundRect,0.200000X0.335876X0.053033X0.053033X0.335876X-0.335876X-0.053033X-0.053033X-0.335876X0*%
%ADD36RotRect,1.400000X1.200000X135.000000*%
%ADD37RoundRect,0.200000X-0.200000X-0.275000X0.200000X-0.275000X0.200000X0.275000X-0.200000X0.275000X0*%
%ADD38RoundRect,0.225000X0.335876X0.017678X0.017678X0.335876X-0.335876X-0.017678X-0.017678X-0.335876X0*%
%ADD39R,1.000000X1.700000*%
%ADD40RoundRect,0.250000X-0.311705X0.459309X-0.534018X-0.151491X0.311705X-0.459309X0.534018X0.151491X0*%
%ADD41RoundRect,0.200000X0.200000X0.275000X-0.200000X0.275000X-0.200000X-0.275000X0.200000X-0.275000X0*%
%ADD42R,2.000000X1.500000*%
%ADD43R,2.000000X3.800000*%
G04 APERTURE END LIST*
D10*
%TO.C,U3*%
X229640000Y-105690000D03*
X229640000Y-106960000D03*
X229640000Y-108230000D03*
X229640000Y-109500000D03*
X236840000Y-109500000D03*
X236840000Y-108230000D03*
X236840000Y-106960000D03*
X236840000Y-105690000D03*
%TD*%
D11*
%TO.C,C8*%
X219347000Y-130250000D03*
X219347000Y-131800000D03*
%TD*%
D12*
%TO.C,D18*%
X204037711Y-101230967D03*
X202111341Y-101932109D03*
%TD*%
%TO.C,D17*%
X197522227Y-83329823D03*
X195595857Y-84030965D03*
%TD*%
D13*
%TO.C,R14*%
X227426000Y-125032000D03*
X227426000Y-126682000D03*
%TD*%
D14*
%TO.C,SW10*%
X170600000Y-107451000D03*
X179900000Y-107451000D03*
X170600000Y-111951000D03*
X179900000Y-111951000D03*
%TD*%
D15*
%TO.C,SW9*%
X220672426Y-43315916D03*
X223853213Y-52055057D03*
X216443809Y-44855007D03*
X219624596Y-53594148D03*
%TD*%
D16*
%TO.C,D25*%
X200397000Y-127350000D03*
X200397000Y-129400000D03*
%TD*%
D17*
%TO.C,C16*%
X211722000Y-124400000D03*
X210172000Y-124400000D03*
%TD*%
D18*
%TO.C,U1*%
X237940000Y-114412500D03*
X237940000Y-116012500D03*
X239540000Y-114412500D03*
X239540000Y-116012500D03*
D19*
X235302500Y-112612500D03*
X235302500Y-113012500D03*
X235302500Y-113412500D03*
X235302500Y-113812500D03*
X235302500Y-114212500D03*
X235302500Y-114612500D03*
X235302500Y-115012500D03*
X235302500Y-115412500D03*
X235302500Y-115812500D03*
X235302500Y-116212500D03*
X235302500Y-116612500D03*
X235302500Y-117012500D03*
X235302500Y-117412500D03*
X235302500Y-117812500D03*
D20*
X236140000Y-118650000D03*
X236540000Y-118650000D03*
X236940000Y-118650000D03*
X237340000Y-118650000D03*
X237740000Y-118650000D03*
X238140000Y-118650000D03*
X238540000Y-118650000D03*
X238940000Y-118650000D03*
X239340000Y-118650000D03*
X239740000Y-118650000D03*
X240140000Y-118650000D03*
X240540000Y-118650000D03*
X240940000Y-118650000D03*
X241340000Y-118650000D03*
D19*
X242177500Y-117812500D03*
X242177500Y-117412500D03*
X242177500Y-117012500D03*
X242177500Y-116612500D03*
X242177500Y-116212500D03*
X242177500Y-115812500D03*
X242177500Y-115412500D03*
X242177500Y-115012500D03*
X242177500Y-114612500D03*
X242177500Y-114212500D03*
X242177500Y-113812500D03*
X242177500Y-113412500D03*
X242177500Y-113012500D03*
X242177500Y-112612500D03*
D20*
X241340000Y-111775000D03*
X240940000Y-111775000D03*
X240540000Y-111775000D03*
X240140000Y-111775000D03*
X239740000Y-111775000D03*
X239340000Y-111775000D03*
X238940000Y-111775000D03*
X238540000Y-111775000D03*
X238140000Y-111775000D03*
X237740000Y-111775000D03*
X237340000Y-111775000D03*
X236940000Y-111775000D03*
X236540000Y-111775000D03*
X236140000Y-111775000D03*
%TD*%
D21*
%TO.C,R12*%
X174184500Y-85711800D03*
X174184500Y-84061800D03*
%TD*%
D16*
%TO.C,D14*%
X182548000Y-126725000D03*
X182548000Y-128775000D03*
%TD*%
D22*
%TO.C,U5*%
X165037000Y-92329000D03*
X165737000Y-92329000D03*
X166437000Y-92329000D03*
X167137000Y-92329000D03*
X167837000Y-92329000D03*
X168537000Y-92329000D03*
X169237000Y-92329000D03*
X169937000Y-92329000D03*
X170637000Y-92329000D03*
X171337000Y-92329000D03*
X172037000Y-92329000D03*
X172737000Y-92329000D03*
X173437000Y-92329000D03*
X174137000Y-92329000D03*
X174837000Y-92329000D03*
X175537000Y-92329000D03*
X176237000Y-92329000D03*
X176937000Y-92329000D03*
X177637000Y-92329000D03*
X178337000Y-92329000D03*
X179037000Y-92329000D03*
X179737000Y-92329000D03*
X180437000Y-92329000D03*
X181137000Y-92329000D03*
X181837000Y-92329000D03*
X182537000Y-92329000D03*
X183237000Y-92329000D03*
X183937000Y-92329000D03*
X184637000Y-92329000D03*
X185337000Y-92329000D03*
%TD*%
D23*
%TO.C,D6*%
X146462179Y-101230739D03*
X148388549Y-101931881D03*
%TD*%
D24*
%TO.C,D8*%
X173073000Y-61750000D03*
X171023000Y-61750000D03*
%TD*%
D15*
%TO.C,SW13*%
X211988426Y-46502916D03*
X215169213Y-55242057D03*
X207759809Y-48042007D03*
X210940596Y-56781148D03*
%TD*%
D14*
%TO.C,SW12*%
X170600000Y-116451000D03*
X179900000Y-116451000D03*
X170600000Y-120951000D03*
X179900000Y-120951000D03*
%TD*%
D25*
%TO.C,C2*%
X239741992Y-126448008D03*
X240838008Y-125351992D03*
%TD*%
D23*
%TO.C,D3*%
X133352015Y-76103429D03*
X135278385Y-76804571D03*
%TD*%
D11*
%TO.C,C14*%
X229347000Y-130250000D03*
X229347000Y-131800000D03*
%TD*%
D13*
%TO.C,R2*%
X241427000Y-108395000D03*
X241427000Y-110045000D03*
%TD*%
D17*
%TO.C,C19*%
X197422000Y-131100000D03*
X195872000Y-131100000D03*
%TD*%
D11*
%TO.C,C10*%
X223347000Y-130250000D03*
X223347000Y-131800000D03*
%TD*%
D17*
%TO.C,C6*%
X245365000Y-112244000D03*
X243815000Y-112244000D03*
%TD*%
D26*
%TO.C,C3*%
X243815000Y-110744000D03*
X245365000Y-110744000D03*
%TD*%
D13*
%TO.C,R13*%
X229235000Y-125032000D03*
X229235000Y-126682000D03*
%TD*%
D24*
%TO.C,D15*%
X192024000Y-61722000D03*
X189974000Y-61722000D03*
%TD*%
D11*
%TO.C,C25*%
X167961500Y-84111800D03*
X167961500Y-85661800D03*
%TD*%
D16*
%TO.C,D10*%
X182500000Y-108750000D03*
X182500000Y-110800000D03*
%TD*%
D27*
%TO.C,D16*%
X205798858Y-115073630D03*
X206500000Y-117000000D03*
%TD*%
D28*
%TO.C,J1*%
X233545000Y-47445000D03*
X232770000Y-47445000D03*
D29*
X232070000Y-47445000D03*
X231570000Y-47445000D03*
X231070000Y-47445000D03*
X230570000Y-47445000D03*
X230070000Y-47445000D03*
X229570000Y-47445000D03*
X229070000Y-47445000D03*
X228570000Y-47445000D03*
D28*
X227870000Y-47445000D03*
X227095000Y-47445000D03*
%TD*%
D11*
%TO.C,C17*%
X233347000Y-130250000D03*
X233347000Y-131800000D03*
%TD*%
D30*
%TO.C,U4*%
X195147000Y-127350000D03*
X195147000Y-128300000D03*
X195147000Y-129250000D03*
X197847000Y-129250000D03*
X197847000Y-127350000D03*
%TD*%
D13*
%TO.C,R9*%
X196147000Y-123775000D03*
X196147000Y-125425000D03*
%TD*%
D17*
%TO.C,C18*%
X237115000Y-103750000D03*
X235565000Y-103750000D03*
%TD*%
D11*
%TO.C,C22*%
X184344500Y-84098800D03*
X184344500Y-85648800D03*
%TD*%
D31*
%TO.C,J6*%
X144730000Y-59275000D03*
X146000000Y-59275000D03*
X147270000Y-59275000D03*
X148540000Y-59275000D03*
X149810000Y-59275000D03*
X151080000Y-59275000D03*
X152350000Y-59275000D03*
X153620000Y-59275000D03*
%TD*%
D11*
%TO.C,C12*%
X225347000Y-130250000D03*
X225347000Y-131800000D03*
%TD*%
D32*
%TO.C,C5*%
X244040000Y-122700000D03*
X244040000Y-121150000D03*
%TD*%
D33*
%TO.C,Q1*%
X204834500Y-129300000D03*
X204834500Y-127400000D03*
X202959500Y-128350000D03*
%TD*%
D16*
%TO.C,D12*%
X182548000Y-117725000D03*
X182548000Y-119775000D03*
%TD*%
D34*
%TO.C,D24*%
X207397000Y-126700000D03*
X207397000Y-130000000D03*
%TD*%
D23*
%TO.C,D2*%
X110659438Y-88200122D03*
X112585808Y-88901264D03*
%TD*%
D11*
%TO.C,C24*%
X166056500Y-84111800D03*
X166056500Y-85661800D03*
%TD*%
D21*
%TO.C,R10*%
X198147000Y-125425000D03*
X198147000Y-123775000D03*
%TD*%
D12*
%TO.C,D21*%
X233324516Y-70298855D03*
X231398146Y-70999997D03*
%TD*%
D35*
%TO.C,R3*%
X241790000Y-123150000D03*
X240623274Y-121983274D03*
%TD*%
D14*
%TO.C,SW14*%
X170600000Y-125451000D03*
X179900000Y-125451000D03*
X170600000Y-129951000D03*
X179900000Y-129951000D03*
%TD*%
D27*
%TO.C,D13*%
X206893874Y-52241429D03*
X207595016Y-54167799D03*
%TD*%
D36*
%TO.C,Y1*%
X239492081Y-123447919D03*
X237936446Y-121892284D03*
X236734365Y-123094365D03*
X238290000Y-124650000D03*
%TD*%
D37*
%TO.C,R8*%
X229265000Y-103750000D03*
X230915000Y-103750000D03*
%TD*%
D12*
%TO.C,D20*%
X221938855Y-94715484D03*
X220012485Y-95416626D03*
%TD*%
D11*
%TO.C,C15*%
X231347000Y-130250000D03*
X231347000Y-131800000D03*
%TD*%
D37*
%TO.C,R7*%
X229265000Y-102250000D03*
X230915000Y-102250000D03*
%TD*%
D38*
%TO.C,C1*%
X236571631Y-125931631D03*
X235475615Y-124835615D03*
%TD*%
D32*
%TO.C,C20*%
X170120500Y-85661800D03*
X170120500Y-84111800D03*
%TD*%
D39*
%TO.C,SW24*%
X249687000Y-119609000D03*
X249687000Y-113309000D03*
X253487000Y-119609000D03*
X253487000Y-113309000D03*
%TD*%
D12*
%TO.C,D22*%
X239840000Y-88200000D03*
X237913630Y-88901142D03*
%TD*%
D17*
%TO.C,C11*%
X204672000Y-125600000D03*
X203122000Y-125600000D03*
%TD*%
D32*
%TO.C,C23*%
X171771500Y-85661800D03*
X171771500Y-84111800D03*
%TD*%
D11*
%TO.C,C9*%
X221347000Y-130250000D03*
X221347000Y-131800000D03*
%TD*%
D21*
%TO.C,R1*%
X239927000Y-110045000D03*
X239927000Y-108395000D03*
%TD*%
D15*
%TO.C,SW11*%
X203304820Y-49690094D03*
X206485607Y-58429235D03*
X199076203Y-51229185D03*
X202256990Y-59968326D03*
%TD*%
D11*
%TO.C,C13*%
X227347000Y-130250000D03*
X227347000Y-131800000D03*
%TD*%
D27*
%TO.C,D9*%
X215579858Y-49127630D03*
X216281000Y-51054000D03*
%TD*%
%TO.C,D11*%
X198201716Y-55405116D03*
X198902858Y-57331486D03*
%TD*%
D40*
%TO.C,D7*%
X163398571Y-121786815D03*
X162697429Y-123713185D03*
%TD*%
D32*
%TO.C,C21*%
X182693500Y-85661800D03*
X182693500Y-84111800D03*
%TD*%
D23*
%TO.C,D1*%
X117175374Y-70298627D03*
X119101744Y-70999769D03*
%TD*%
D12*
%TO.C,D19*%
X217117185Y-76154229D03*
X215190815Y-76855371D03*
%TD*%
D41*
%TO.C,R6*%
X204722000Y-131100000D03*
X203072000Y-131100000D03*
%TD*%
D11*
%TO.C,C7*%
X245540000Y-121150000D03*
X245540000Y-122700000D03*
%TD*%
D13*
%TO.C,R11*%
X180661500Y-84061800D03*
X180661500Y-85711800D03*
%TD*%
D39*
%TO.C,SW23*%
X249687000Y-128245000D03*
X249687000Y-121945000D03*
X253487000Y-128245000D03*
X253487000Y-121945000D03*
%TD*%
D42*
%TO.C,U2*%
X210297000Y-126600000D03*
X210297000Y-128900000D03*
D43*
X216597000Y-128900000D03*
D42*
X210297000Y-131200000D03*
%TD*%
D23*
%TO.C,D4*%
X128561035Y-94715255D03*
X130487405Y-95416397D03*
%TD*%
%TO.C,D5*%
X152977663Y-83329594D03*
X154904033Y-84030736D03*
%TD*%
M02*
