M48
; DRILL file {KiCad 8.0.2-1} date 2024-05-28T17:04:50-0600
; FORMAT={-:-/ absolute / inch / decimal}
; #@! TF.CreationDate,2024-05-28T17:04:50-06:00
; #@! TF.GenerationSoftware,Kicad,Pcbnew,8.0.2-1
; #@! TF.FileFunction,Plated,1,2,PTH
FMAT,2
INCH
; #@! TA.AperFunction,Plated,PTH,ViaDrill
T1C0.0118
; #@! TA.AperFunction,Plated,PTH,ComponentDrill
T2C0.0197
; #@! TA.AperFunction,Plated,PTH,ComponentDrill
T3C0.0236
; #@! TA.AperFunction,Plated,PTH,ComponentDrill
T4C0.0295
; #@! TA.AperFunction,Plated,PTH,ComponentDrill
T5C0.0394
; #@! TA.AperFunction,Plated,PTH,ComponentDrill
T6C0.1181
%
G90
G05
T1
X6.265Y-4.545
X6.43Y-2.5099
X6.43Y-2.5374
X6.43Y-2.565
X6.43Y-2.5926
X6.43Y-2.6201
X6.43Y-2.6477
X6.43Y-2.735
X6.625Y-4.27
X6.63Y-4.765
X6.63Y-4.9
X6.85Y-2.638
X6.8996Y-4.3189
X6.8996Y-4.6733
X6.8996Y-5.0276
X7.08Y-4.86
X7.18Y-4.49
X7.19Y-4.885
X7.3435Y-4.8755
X7.475Y-4.435
X7.6003Y-5.0492
X7.665Y-3.875
X7.665Y-4.06
X7.665Y-4.25
X7.695Y-4.06
X7.695Y-4.25
X7.712Y-5.245
X7.724Y-4.9065
X7.834Y-5.16
X8.088Y-4.824
X8.162Y-5.155
X8.2Y-2.2
X8.248Y-3.488
X8.27Y-4.48
X8.275Y-2.375
X8.57Y-2.13
X8.595Y-2.275
X8.818Y-4.7409
X8.83Y-4.48
X8.856Y-4.556
X8.915Y-4.99
X8.915Y-5.245
X8.92Y-4.84
X9.0203Y-1.8207
X9.07Y-1.795
X9.1147Y-1.8207
X9.124Y-4.9606
X9.1248Y-5.2645
X9.1535Y-4.9606
X9.1535Y-5.2657
X9.175Y-4.08
X9.1811Y-4.9606
X9.1811Y-5.265
X9.1866Y-4.2815
X9.1965Y-4.2421
X9.21Y-4.96
X9.22Y-4.095
X9.2421Y-4.8524
X9.2555Y-4.3012
X9.3012Y-4.468
X9.31Y-1.665
X9.31Y-4.6363
X9.311Y-4.5374
X9.3229Y-4.3408
X9.35Y-4.438
X9.367Y-3.882
X9.375Y-4.615
X9.42Y-4.435
X9.424Y-4.702
X9.44Y-4.4563
X9.466Y-4.6345
X9.476Y-4.126
X9.4787Y-4.538
X9.5Y-4.63
X9.52Y-4.3813
X9.57Y-4.5808
X9.6147Y-4.6178
X9.6301Y-4.6667
X9.6512Y-4.0
X9.6587Y-4.634
X9.6788Y-4.0
X9.68Y-4.606
X9.685Y-4.5651
X9.7064Y-4.53
X9.71Y-4.788
X9.7213Y-4.5047
X9.745Y-4.45
X9.76Y-4.045
X9.81Y-3.5
X9.86Y-3.942
X9.9538Y-3.9418
T2
X6.555Y-4.045
X8.96Y-4.59
X9.054Y-4.47
X9.054Y-4.59
X9.17Y-4.76
X9.68Y-4.904
X9.68Y-4.984
T4
X4.0227Y-3.7244
X4.0227Y-3.8031
T5
X6.75Y-3.04
X6.85Y-3.04
X6.95Y-3.04
X7.05Y-3.04
X9.8602Y-4.13
X9.8602Y-4.23
X9.8602Y-4.33
X9.9602Y-4.13
X9.9602Y-4.23
X9.9602Y-4.33
T6
X4.0626Y-3.1615
X4.3074Y-3.2946
X4.3191Y-2.4567
X4.5639Y-2.5898
X4.7674Y-3.418
X5.0122Y-3.5511
X5.0239Y-2.7132
X5.2687Y-2.8463
X5.4721Y-3.6745
X5.717Y-3.8076
X5.7286Y-2.9698
X5.9735Y-3.1029
X6.2459Y-4.6915
X6.3514Y-2.2343
X6.379Y-4.4466
X6.627Y-2.2756
X7.1014Y-2.2343
X7.377Y-2.2756
X7.745Y-3.0883
X7.8456Y-4.2918
X7.9011Y-4.5649
X8.0015Y-3.793
X8.0181Y-3.0328
X8.2746Y-3.7376
X8.4498Y-2.8317
X8.7063Y-3.5365
X8.7229Y-2.7763
X8.9794Y-3.4811
X9.1545Y-2.5752
X9.411Y-3.28
X9.4276Y-2.5198
X9.6842Y-3.2246
T3
G00X8.8976Y-1.6791
M15
G01X8.8976Y-1.6555
M16
G05
G00X8.8976Y-1.8535
M15
G01X8.8976Y-1.8102
M16
G05
G00X9.2378Y-1.6791
M15
G01X9.2378Y-1.6555
M16
G05
G00X9.2378Y-1.8535
M15
G01X9.2378Y-1.8102
M16
G05
M30
