%TF.GenerationSoftware,KiCad,Pcbnew,8.0.2-1*%
%TF.CreationDate,2024-05-28T17:04:48-06:00*%
%TF.ProjectId,magicfingers,6d616769-6366-4696-9e67-6572732e6b69,rev?*%
%TF.SameCoordinates,Original*%
%TF.FileFunction,Soldermask,Top*%
%TF.FilePolarity,Negative*%
%FSLAX46Y46*%
G04 Gerber Fmt 4.6, Leading zero omitted, Abs format (unit mm)*
G04 Created by KiCad (PCBNEW 8.0.2-1) date 2024-05-28 17:04:48*
%MOMM*%
%LPD*%
G01*
G04 APERTURE LIST*
G04 Aperture macros list*
%AMRoundRect*
0 Rectangle with rounded corners*
0 $1 Rounding radius*
0 $2 $3 $4 $5 $6 $7 $8 $9 X,Y pos of 4 corners*
0 Add a 4 corners polygon primitive as box body*
4,1,4,$2,$3,$4,$5,$6,$7,$8,$9,$2,$3,0*
0 Add four circle primitives for the rounded corners*
1,1,$1+$1,$2,$3*
1,1,$1+$1,$4,$5*
1,1,$1+$1,$6,$7*
1,1,$1+$1,$8,$9*
0 Add four rect primitives between the rounded corners*
20,1,$1+$1,$2,$3,$4,$5,0*
20,1,$1+$1,$4,$5,$6,$7,0*
20,1,$1+$1,$6,$7,$8,$9,0*
20,1,$1+$1,$8,$9,$2,$3,0*%
%AMRotRect*
0 Rectangle, with rotation*
0 The origin of the aperture is its center*
0 $1 length*
0 $2 width*
0 $3 Rotation angle, in degrees counterclockwise*
0 Add horizontal line*
21,1,$1,$2,0,0,$3*%
%AMFreePoly0*
4,1,19,0.500000,-0.750000,0.000000,-0.750000,0.000000,-0.744911,-0.071157,-0.744911,-0.207708,-0.704816,-0.327430,-0.627875,-0.420627,-0.520320,-0.479746,-0.390866,-0.500000,-0.250000,-0.500000,0.250000,-0.479746,0.390866,-0.420627,0.520320,-0.327430,0.627875,-0.207708,0.704816,-0.071157,0.744911,0.000000,0.744911,0.000000,0.750000,0.500000,0.750000,0.500000,-0.750000,0.500000,-0.750000,
$1*%
%AMFreePoly1*
4,1,19,0.000000,0.744911,0.071157,0.744911,0.207708,0.704816,0.327430,0.627875,0.420627,0.520320,0.479746,0.390866,0.500000,0.250000,0.500000,-0.250000,0.479746,-0.390866,0.420627,-0.520320,0.327430,-0.627875,0.207708,-0.704816,0.071157,-0.744911,0.000000,-0.744911,0.000000,-0.750000,-0.500000,-0.750000,-0.500000,0.750000,0.000000,0.750000,0.000000,0.744911,0.000000,0.744911,
$1*%
G04 Aperture macros list end*
%ADD10C,0.000000*%
%ADD11RoundRect,0.150000X-0.650000X-0.150000X0.650000X-0.150000X0.650000X0.150000X-0.650000X0.150000X0*%
%ADD12RoundRect,0.225000X-0.250000X0.225000X-0.250000X-0.225000X0.250000X-0.225000X0.250000X0.225000X0*%
%ADD13RoundRect,0.250000X0.151491X0.534018X-0.459309X0.311705X-0.151491X-0.534018X0.459309X-0.311705X0*%
%ADD14RoundRect,0.200000X-0.275000X0.200000X-0.275000X-0.200000X0.275000X-0.200000X0.275000X0.200000X0*%
%ADD15C,2.700000*%
%ADD16C,5.250000*%
%ADD17RoundRect,0.375000X-0.725000X-0.375000X0.725000X-0.375000X0.725000X0.375000X-0.725000X0.375000X0*%
%ADD18RoundRect,0.375000X-0.600349X0.553020X-0.104420X-0.809535X0.600349X-0.553020X0.104420X0.809535X0*%
%ADD19RoundRect,0.250000X-0.450000X0.325000X-0.450000X-0.325000X0.450000X-0.325000X0.450000X0.325000X0*%
%ADD20C,1.000000*%
%ADD21RoundRect,0.225000X0.225000X0.250000X-0.225000X0.250000X-0.225000X-0.250000X0.225000X-0.250000X0*%
%ADD22RoundRect,0.050000X-0.387500X-0.050000X0.387500X-0.050000X0.387500X0.050000X-0.387500X0.050000X0*%
%ADD23RoundRect,0.050000X-0.050000X-0.387500X0.050000X-0.387500X0.050000X0.387500X-0.050000X0.387500X0*%
%ADD24R,3.200000X3.200000*%
%ADD25RoundRect,0.200000X0.275000X-0.200000X0.275000X0.200000X-0.275000X0.200000X-0.275000X-0.200000X0*%
%ADD26C,0.500000*%
%ADD27RoundRect,0.100000X0.100000X-0.900000X0.100000X0.900000X-0.100000X0.900000X-0.100000X-0.900000X0*%
%ADD28RoundRect,0.250000X-0.459309X-0.311705X0.151491X-0.534018X0.459309X0.311705X-0.151491X0.534018X0*%
%ADD29RoundRect,0.250000X0.325000X0.450000X-0.325000X0.450000X-0.325000X-0.450000X0.325000X-0.450000X0*%
%ADD30RoundRect,0.225000X0.017678X-0.335876X0.335876X-0.017678X-0.017678X0.335876X-0.335876X0.017678X0*%
%ADD31RoundRect,0.225000X-0.225000X-0.250000X0.225000X-0.250000X0.225000X0.250000X-0.225000X0.250000X0*%
%ADD32RoundRect,0.250000X-0.534018X0.151491X-0.311705X-0.459309X0.534018X-0.151491X0.311705X0.459309X0*%
%ADD33C,0.650000*%
%ADD34R,0.600000X1.450000*%
%ADD35R,0.300000X1.450000*%
%ADD36O,1.000000X2.100000*%
%ADD37O,1.000000X1.600000*%
%ADD38R,1.560000X0.650000*%
%ADD39R,0.950000X2.500000*%
%ADD40RoundRect,0.225000X0.250000X-0.225000X0.250000X0.225000X-0.250000X0.225000X-0.250000X-0.225000X0*%
%ADD41RoundRect,0.150000X0.587500X0.150000X-0.587500X0.150000X-0.587500X-0.150000X0.587500X-0.150000X0*%
%ADD42RoundRect,0.225000X-0.375000X0.225000X-0.375000X-0.225000X0.375000X-0.225000X0.375000X0.225000X0*%
%ADD43RoundRect,0.200000X0.335876X0.053033X0.053033X0.335876X-0.335876X-0.053033X-0.053033X-0.335876X0*%
%ADD44FreePoly0,180.000000*%
%ADD45FreePoly1,180.000000*%
%ADD46RotRect,1.400000X1.200000X135.000000*%
%ADD47RoundRect,0.200000X-0.200000X-0.275000X0.200000X-0.275000X0.200000X0.275000X-0.200000X0.275000X0*%
%ADD48R,1.700000X1.700000*%
%ADD49O,1.700000X1.700000*%
%ADD50RoundRect,0.225000X0.335876X0.017678X0.017678X0.335876X-0.335876X-0.017678X-0.017678X-0.335876X0*%
%ADD51R,1.000000X1.700000*%
%ADD52RoundRect,0.250000X-0.311705X0.459309X-0.534018X-0.151491X0.311705X-0.459309X0.534018X0.151491X0*%
%ADD53RoundRect,0.200000X0.200000X0.275000X-0.200000X0.275000X-0.200000X-0.275000X0.200000X-0.275000X0*%
%ADD54FreePoly0,0.000000*%
%ADD55FreePoly1,0.000000*%
%ADD56R,2.000000X1.500000*%
%ADD57R,2.000000X3.800000*%
%ADD58RoundRect,0.250000X-0.625000X0.350000X-0.625000X-0.350000X0.625000X-0.350000X0.625000X0.350000X0*%
%ADD59O,1.750000X1.200000*%
G04 APERTURE END LIST*
D10*
%TO.C,kibuzzard-6653CB99*%
G36*
X237033148Y-131299734D02*
G01*
X237055439Y-131386112D01*
X237074247Y-131471793D01*
X237090965Y-131560957D01*
X236922389Y-131560957D01*
X236939804Y-131471793D01*
X236959309Y-131386112D01*
X236981600Y-131299734D01*
X237007374Y-131207087D01*
X237033148Y-131299734D01*
G37*
G36*
X243289611Y-131187234D02*
G01*
X243338024Y-131211267D01*
X243369371Y-131252366D01*
X243379820Y-131311576D01*
X243340811Y-131408403D01*
X243289611Y-131434003D01*
X243214030Y-131442536D01*
X243176414Y-131442536D01*
X243176414Y-131183403D01*
X243204278Y-131179920D01*
X243227962Y-131179224D01*
X243289611Y-131187234D01*
G37*
G36*
X244847776Y-132152598D02*
G01*
X244267281Y-132152598D01*
X243949634Y-132152598D01*
X243611089Y-132152598D01*
X242320996Y-132152598D01*
X241926724Y-132152598D01*
X241334619Y-132152598D01*
X240218674Y-132152598D01*
X239534619Y-132152598D01*
X239162637Y-132152598D01*
X238128891Y-132152598D01*
X237747157Y-132152598D01*
X237160625Y-132152598D01*
X236628427Y-132152598D01*
X235995919Y-132152598D01*
X235415424Y-132152598D01*
X235006105Y-132152598D01*
X235081198Y-131902289D01*
X235995919Y-131902289D01*
X236153349Y-131902289D01*
X236146383Y-131232165D01*
X236248086Y-131597180D01*
X236373473Y-131597180D01*
X236479355Y-131232165D01*
X236470996Y-131902289D01*
X236628427Y-131902289D01*
X236673009Y-131902289D01*
X236851337Y-131902289D01*
X236890346Y-131703063D01*
X237120222Y-131703063D01*
X237160625Y-131902289D01*
X237344526Y-131902289D01*
X237321538Y-131804515D01*
X237298272Y-131709583D01*
X237274727Y-131617493D01*
X237250903Y-131528245D01*
X237234768Y-131470400D01*
X237394680Y-131470400D01*
X237400950Y-131575063D01*
X237419758Y-131666143D01*
X237450060Y-131743465D01*
X237490811Y-131806855D01*
X237541488Y-131856313D01*
X237601569Y-131891840D01*
X237670358Y-131913260D01*
X237747157Y-131920400D01*
X237832316Y-131916917D01*
X237903891Y-131906468D01*
X237999324Y-131881391D01*
X237999324Y-131450895D01*
X237827962Y-131450895D01*
X237827962Y-131765756D01*
X237794526Y-131769936D01*
X237761089Y-131771329D01*
X237677846Y-131753043D01*
X237617591Y-131698186D01*
X237590501Y-131640369D01*
X237574247Y-131564440D01*
X237568829Y-131470400D01*
X237571790Y-131406487D01*
X237580671Y-131348496D01*
X237619680Y-131253759D01*
X237688643Y-131191762D01*
X237791739Y-131169471D01*
X237883690Y-131184796D01*
X237958922Y-131219626D01*
X237971205Y-131182010D01*
X238128891Y-131182010D01*
X238316972Y-131182010D01*
X238316972Y-131760183D01*
X238128891Y-131760183D01*
X238128891Y-131902289D01*
X238676414Y-131902289D01*
X238676414Y-131760183D01*
X238489727Y-131760183D01*
X238489727Y-131470400D01*
X238787869Y-131470400D01*
X238793877Y-131572190D01*
X238811902Y-131661615D01*
X238841942Y-131738676D01*
X238883999Y-131803372D01*
X238957684Y-131868388D01*
X239050563Y-131907397D01*
X239162637Y-131920400D01*
X239238740Y-131915698D01*
X239302143Y-131902289D01*
X239534619Y-131902289D01*
X239705981Y-131902289D01*
X239705981Y-131533093D01*
X240018055Y-131533093D01*
X240018055Y-131390988D01*
X239705981Y-131390988D01*
X239705981Y-131182010D01*
X240062637Y-131182010D01*
X240218674Y-131182010D01*
X240406755Y-131182010D01*
X240406755Y-131760183D01*
X240218674Y-131760183D01*
X240218674Y-131902289D01*
X240766198Y-131902289D01*
X240904123Y-131902289D01*
X241058767Y-131902289D01*
X241058767Y-131329688D01*
X241110547Y-131425276D01*
X241160006Y-131520710D01*
X241207142Y-131615988D01*
X241251956Y-131711267D01*
X241294448Y-131806700D01*
X241334619Y-131902289D01*
X241472544Y-131902289D01*
X241472544Y-131470400D01*
X241574247Y-131470400D01*
X241580516Y-131575063D01*
X241599324Y-131666143D01*
X241629626Y-131743465D01*
X241670377Y-131806855D01*
X241721054Y-131856313D01*
X241781136Y-131891840D01*
X241849924Y-131913260D01*
X241926724Y-131920400D01*
X242011883Y-131916917D01*
X242083458Y-131906468D01*
X242099362Y-131902289D01*
X242320996Y-131902289D01*
X242874092Y-131902289D01*
X242874092Y-131760183D01*
X242492359Y-131760183D01*
X242492359Y-131517768D01*
X242797467Y-131517768D01*
X242797467Y-131375663D01*
X242492359Y-131375663D01*
X242492359Y-131182010D01*
X242843442Y-131182010D01*
X242843442Y-131052443D01*
X243005052Y-131052443D01*
X243005052Y-131902289D01*
X243176414Y-131902289D01*
X243176414Y-131584641D01*
X243265578Y-131584641D01*
X243312773Y-131663531D01*
X243356832Y-131741375D01*
X243396712Y-131820265D01*
X243431368Y-131902289D01*
X243611089Y-131902289D01*
X243590478Y-131854920D01*
X243682142Y-131854920D01*
X243778272Y-131897412D01*
X243853156Y-131914653D01*
X243949634Y-131920400D01*
X244047389Y-131913047D01*
X244127033Y-131890988D01*
X244188566Y-131854224D01*
X244247602Y-131774289D01*
X244267281Y-131666840D01*
X244261360Y-131601882D01*
X244243597Y-131549115D01*
X244182993Y-131471097D01*
X244102188Y-131420942D01*
X244017900Y-131386809D01*
X243964263Y-131365911D01*
X243915501Y-131340137D01*
X243879975Y-131306700D01*
X243866043Y-131262815D01*
X243881213Y-131207861D01*
X243926724Y-131174889D01*
X244002575Y-131163898D01*
X244100795Y-131177830D01*
X244178117Y-131211267D01*
X244228272Y-131078914D01*
X244128659Y-131038511D01*
X244064398Y-131024928D01*
X243990037Y-131020400D01*
X243904665Y-131027985D01*
X243832451Y-131050741D01*
X243773396Y-131088666D01*
X243714359Y-131170168D01*
X243694680Y-131278140D01*
X243716972Y-131380539D01*
X243773396Y-131449502D01*
X243849324Y-131495477D01*
X243930129Y-131527521D01*
X243988643Y-131551902D01*
X244041585Y-131581159D01*
X244080594Y-131618078D01*
X244095919Y-131665446D01*
X244089650Y-131706546D01*
X244066662Y-131742768D01*
X244021383Y-131767846D01*
X243949634Y-131776902D01*
X243880149Y-131772025D01*
X243822157Y-131757397D01*
X243732297Y-131715601D01*
X243682142Y-131854920D01*
X243590478Y-131854920D01*
X243571383Y-131811035D01*
X243523318Y-131714905D01*
X243471770Y-131622954D01*
X243421615Y-131542846D01*
X243482567Y-131503488D01*
X243523318Y-131449502D01*
X243546306Y-131384719D01*
X243553968Y-131312970D01*
X243548222Y-131245226D01*
X243530981Y-131186886D01*
X243464804Y-131098419D01*
X243417436Y-131068117D01*
X243361708Y-131046871D01*
X243298318Y-131034332D01*
X243227962Y-131030152D01*
X243179201Y-131031546D01*
X243120687Y-131035028D01*
X243060083Y-131041994D01*
X243005052Y-131052443D01*
X242843442Y-131052443D01*
X242843442Y-131039905D01*
X242320996Y-131039905D01*
X242320996Y-131902289D01*
X242099362Y-131902289D01*
X242178891Y-131881391D01*
X242178891Y-131450895D01*
X242007529Y-131450895D01*
X242007529Y-131765756D01*
X241974092Y-131769936D01*
X241940656Y-131771329D01*
X241857413Y-131753043D01*
X241797157Y-131698186D01*
X241770067Y-131640369D01*
X241753814Y-131564440D01*
X241748396Y-131470400D01*
X241751356Y-131406487D01*
X241760238Y-131348496D01*
X241799247Y-131253759D01*
X241868210Y-131191762D01*
X241971306Y-131169471D01*
X242063256Y-131184796D01*
X242138489Y-131219626D01*
X242183071Y-131083093D01*
X242154510Y-131066375D01*
X242106445Y-131045477D01*
X242037482Y-131028063D01*
X241947622Y-131020400D01*
X241872041Y-131027540D01*
X241801337Y-131048960D01*
X241737598Y-131084661D01*
X241682916Y-131134641D01*
X241637985Y-131198554D01*
X241603504Y-131276050D01*
X241581561Y-131366782D01*
X241574247Y-131470400D01*
X241472544Y-131470400D01*
X241472544Y-131039905D01*
X241317900Y-131039905D01*
X241317900Y-131570710D01*
X241293345Y-131516375D01*
X241264263Y-131453682D01*
X241231523Y-131385764D01*
X241195996Y-131315756D01*
X241158554Y-131244529D01*
X241120067Y-131172954D01*
X241081058Y-131103817D01*
X241042049Y-131039905D01*
X240904123Y-131039905D01*
X240904123Y-131902289D01*
X240766198Y-131902289D01*
X240766198Y-131760183D01*
X240579510Y-131760183D01*
X240579510Y-131182010D01*
X240766198Y-131182010D01*
X240766198Y-131039905D01*
X240218674Y-131039905D01*
X240218674Y-131182010D01*
X240062637Y-131182010D01*
X240062637Y-131039905D01*
X239534619Y-131039905D01*
X239534619Y-131902289D01*
X239302143Y-131902289D01*
X239305439Y-131901592D01*
X239403659Y-131860493D01*
X239360470Y-131725354D01*
X239290114Y-131756004D01*
X239179355Y-131771329D01*
X239079917Y-131751650D01*
X239012869Y-131692614D01*
X238984619Y-131632474D01*
X238967668Y-131557010D01*
X238962018Y-131466220D01*
X238966720Y-131388202D01*
X238980826Y-131324115D01*
X239029588Y-131232861D01*
X239097854Y-131184100D01*
X239176569Y-131169471D01*
X239280362Y-131184100D01*
X239357684Y-131219626D01*
X239402266Y-131083093D01*
X239373705Y-131066375D01*
X239327033Y-131045477D01*
X239262250Y-131028063D01*
X239179355Y-131020400D01*
X239097680Y-131027888D01*
X239022622Y-131050354D01*
X238955749Y-131087273D01*
X238898628Y-131138124D01*
X238852130Y-131202385D01*
X238817126Y-131279533D01*
X238795184Y-131369046D01*
X238787869Y-131470400D01*
X238489727Y-131470400D01*
X238489727Y-131182010D01*
X238676414Y-131182010D01*
X238676414Y-131039905D01*
X238128891Y-131039905D01*
X238128891Y-131182010D01*
X237971205Y-131182010D01*
X238003504Y-131083093D01*
X237974944Y-131066375D01*
X237926879Y-131045477D01*
X237857916Y-131028063D01*
X237768055Y-131020400D01*
X237692475Y-131027540D01*
X237621770Y-131048960D01*
X237558032Y-131084661D01*
X237503349Y-131134641D01*
X237458419Y-131198554D01*
X237423937Y-131276050D01*
X237401995Y-131366782D01*
X237394680Y-131470400D01*
X237234768Y-131470400D01*
X237226801Y-131441840D01*
X237196456Y-131337046D01*
X237166023Y-131235125D01*
X237135504Y-131136078D01*
X237104897Y-131039905D01*
X236918210Y-131039905D01*
X236888692Y-131135295D01*
X236858651Y-131233384D01*
X236828088Y-131334172D01*
X236797002Y-131437660D01*
X236771981Y-131523341D01*
X236747071Y-131612645D01*
X236722272Y-131705570D01*
X236697585Y-131802118D01*
X236673009Y-131902289D01*
X236628427Y-131902289D01*
X236625292Y-131792052D01*
X236621461Y-131684254D01*
X236616759Y-131578024D01*
X236611012Y-131472490D01*
X236604046Y-131366782D01*
X236595687Y-131260028D01*
X236586457Y-131151360D01*
X236576879Y-131039905D01*
X236434773Y-131039905D01*
X236409696Y-131113744D01*
X236379046Y-131209177D01*
X236344216Y-131315059D01*
X236309386Y-131421638D01*
X236277343Y-131321329D01*
X236243907Y-131214053D01*
X236212560Y-131115137D01*
X236188179Y-131039905D01*
X236046074Y-131039905D01*
X236036844Y-131134293D01*
X236028659Y-131236344D01*
X236021519Y-131343968D01*
X236015424Y-131455075D01*
X236010025Y-131568272D01*
X236004975Y-131682165D01*
X236000273Y-131794316D01*
X235995919Y-131902289D01*
X235081198Y-131902289D01*
X235415424Y-130788202D01*
X235995919Y-130788202D01*
X244267281Y-130788202D01*
X244847776Y-130788202D01*
X245257095Y-130788202D01*
X244847776Y-132152598D01*
G37*
%TD*%
D11*
%TO.C,U3*%
X229640000Y-105690000D03*
X229640000Y-106960000D03*
X229640000Y-108230000D03*
X229640000Y-109500000D03*
X236840000Y-109500000D03*
X236840000Y-108230000D03*
X236840000Y-106960000D03*
X236840000Y-105690000D03*
%TD*%
D12*
%TO.C,C8*%
X219347000Y-130250000D03*
X219347000Y-131800000D03*
%TD*%
D13*
%TO.C,D18*%
X204037711Y-101230967D03*
X202111341Y-101932109D03*
%TD*%
%TO.C,D17*%
X197522227Y-83329823D03*
X195595857Y-84030965D03*
%TD*%
D14*
%TO.C,R14*%
X227426000Y-125032000D03*
X227426000Y-126682000D03*
%TD*%
D15*
%TO.C,REF\u002A\u002A*%
X211480400Y-78232000D03*
%TD*%
D16*
%TO.C,SW17*%
X199250042Y-72520394D03*
%TD*%
D17*
%TO.C,SW10*%
X170600000Y-107451000D03*
X179900000Y-107451000D03*
X170600000Y-111951000D03*
X179900000Y-111951000D03*
%TD*%
D18*
%TO.C,SW9*%
X220672426Y-43315916D03*
X223853213Y-52055057D03*
X216443809Y-44855007D03*
X219624596Y-53594148D03*
%TD*%
D15*
%TO.C,REF\u002A\u002A*%
X247500000Y-49000000D03*
%TD*%
D19*
%TO.C,D25*%
X200397000Y-127350000D03*
X200397000Y-129400000D03*
%TD*%
D20*
%TO.C,TP8*%
X232918000Y-120904000D03*
%TD*%
D21*
%TO.C,C16*%
X211722000Y-124400000D03*
X210172000Y-124400000D03*
%TD*%
D22*
%TO.C,U1*%
X235302500Y-112612500D03*
X235302500Y-113012500D03*
X235302500Y-113412500D03*
X235302500Y-113812500D03*
X235302500Y-114212500D03*
X235302500Y-114612500D03*
X235302500Y-115012500D03*
X235302500Y-115412500D03*
X235302500Y-115812500D03*
X235302500Y-116212500D03*
X235302500Y-116612500D03*
X235302500Y-117012500D03*
X235302500Y-117412500D03*
X235302500Y-117812500D03*
D23*
X236140000Y-118650000D03*
X236540000Y-118650000D03*
X236940000Y-118650000D03*
X237340000Y-118650000D03*
X237740000Y-118650000D03*
X238140000Y-118650000D03*
X238540000Y-118650000D03*
X238940000Y-118650000D03*
X239340000Y-118650000D03*
X239740000Y-118650000D03*
X240140000Y-118650000D03*
X240540000Y-118650000D03*
X240940000Y-118650000D03*
X241340000Y-118650000D03*
D22*
X242177500Y-117812500D03*
X242177500Y-117412500D03*
X242177500Y-117012500D03*
X242177500Y-116612500D03*
X242177500Y-116212500D03*
X242177500Y-115812500D03*
X242177500Y-115412500D03*
X242177500Y-115012500D03*
X242177500Y-114612500D03*
X242177500Y-114212500D03*
X242177500Y-113812500D03*
X242177500Y-113412500D03*
X242177500Y-113012500D03*
X242177500Y-112612500D03*
D23*
X241340000Y-111775000D03*
X240940000Y-111775000D03*
X240540000Y-111775000D03*
X240140000Y-111775000D03*
X239740000Y-111775000D03*
X239340000Y-111775000D03*
X238940000Y-111775000D03*
X238540000Y-111775000D03*
X238140000Y-111775000D03*
X237740000Y-111775000D03*
X237340000Y-111775000D03*
X236940000Y-111775000D03*
X236540000Y-111775000D03*
X236140000Y-111775000D03*
D24*
X238740000Y-115212500D03*
%TD*%
D25*
%TO.C,R12*%
X174184500Y-85711800D03*
X174184500Y-84061800D03*
%TD*%
D16*
%TO.C,SW16*%
X194765526Y-113421538D03*
%TD*%
D19*
%TO.C,D14*%
X182548000Y-126725000D03*
X182548000Y-128775000D03*
%TD*%
D26*
%TO.C,U5*%
X167187000Y-96079000D03*
X183187000Y-96079000D03*
D27*
X165037000Y-92329000D03*
X165737000Y-92329000D03*
X166437000Y-92329000D03*
X167137000Y-92329000D03*
X167837000Y-92329000D03*
X168537000Y-92329000D03*
X169237000Y-92329000D03*
X169937000Y-92329000D03*
X170637000Y-92329000D03*
X171337000Y-92329000D03*
X172037000Y-92329000D03*
X172737000Y-92329000D03*
X173437000Y-92329000D03*
X174137000Y-92329000D03*
X174837000Y-92329000D03*
X175537000Y-92329000D03*
X176237000Y-92329000D03*
X176937000Y-92329000D03*
X177637000Y-92329000D03*
X178337000Y-92329000D03*
X179037000Y-92329000D03*
X179737000Y-92329000D03*
X180437000Y-92329000D03*
X181137000Y-92329000D03*
X181837000Y-92329000D03*
X182537000Y-92329000D03*
X183237000Y-92329000D03*
X183937000Y-92329000D03*
X184637000Y-92329000D03*
X185337000Y-92329000D03*
%TD*%
D16*
%TO.C,SW3*%
X133348703Y-66004681D03*
%TD*%
D28*
%TO.C,D6*%
X146462179Y-101230739D03*
X148388549Y-101931881D03*
%TD*%
D16*
%TO.C,SW18*%
X205765526Y-90421538D03*
%TD*%
D29*
%TO.C,D8*%
X173073000Y-61750000D03*
X171023000Y-61750000D03*
%TD*%
D18*
%TO.C,SW13*%
X211988426Y-46502916D03*
X215169213Y-55242057D03*
X207759809Y-48042007D03*
X210940596Y-56781148D03*
%TD*%
D15*
%TO.C,REF\u002A\u002A*%
X103090000Y-88250000D03*
%TD*%
D17*
%TO.C,SW12*%
X170600000Y-116451000D03*
X179900000Y-116451000D03*
X170600000Y-120951000D03*
X179900000Y-120951000D03*
%TD*%
D15*
%TO.C,REF\u002A\u002A*%
X150590000Y-128750000D03*
%TD*%
D30*
%TO.C,C2*%
X239741992Y-126448008D03*
X240838008Y-125351992D03*
%TD*%
D16*
%TO.C,SW7*%
X155734333Y-113420858D03*
%TD*%
D28*
%TO.C,D3*%
X133352015Y-76103429D03*
X135278385Y-76804571D03*
%TD*%
D12*
%TO.C,C14*%
X229347000Y-130250000D03*
X229347000Y-131800000D03*
%TD*%
D16*
%TO.C,SW21*%
X235052331Y-59489426D03*
%TD*%
D14*
%TO.C,R2*%
X241427000Y-108395000D03*
X241427000Y-110045000D03*
%TD*%
D21*
%TO.C,C19*%
X197422000Y-131100000D03*
X195872000Y-131100000D03*
%TD*%
D12*
%TO.C,C10*%
X223347000Y-130250000D03*
X223347000Y-131800000D03*
%TD*%
D21*
%TO.C,C6*%
X245365000Y-112244000D03*
X243815000Y-112244000D03*
%TD*%
D31*
%TO.C,C3*%
X243815000Y-110744000D03*
X245365000Y-110744000D03*
%TD*%
D14*
%TO.C,R13*%
X229235000Y-125032000D03*
X229235000Y-126682000D03*
%TD*%
D29*
%TO.C,D15*%
X192024000Y-61722000D03*
X189974000Y-61722000D03*
%TD*%
D12*
%TO.C,C25*%
X167961500Y-84111800D03*
X167961500Y-85661800D03*
%TD*%
D19*
%TO.C,D10*%
X182500000Y-108750000D03*
X182500000Y-110800000D03*
%TD*%
D32*
%TO.C,D16*%
X205798858Y-115073630D03*
X206500000Y-117000000D03*
%TD*%
D16*
%TO.C,SW22*%
X241567815Y-77390571D03*
%TD*%
D33*
%TO.C,J1*%
X233210000Y-46000000D03*
X227430000Y-46000000D03*
D34*
X233545000Y-47445000D03*
X232770000Y-47445000D03*
D35*
X232070000Y-47445000D03*
X231570000Y-47445000D03*
X231070000Y-47445000D03*
X230570000Y-47445000D03*
X230070000Y-47445000D03*
X229570000Y-47445000D03*
X229070000Y-47445000D03*
X228570000Y-47445000D03*
D34*
X227870000Y-47445000D03*
X227095000Y-47445000D03*
D36*
X234640000Y-46530000D03*
D37*
X234640000Y-42350000D03*
D36*
X226000000Y-46530000D03*
D37*
X226000000Y-42350000D03*
%TD*%
D12*
%TO.C,C17*%
X233347000Y-130250000D03*
X233347000Y-131800000D03*
%TD*%
D16*
%TO.C,SW4*%
X126833220Y-83905826D03*
%TD*%
D20*
%TO.C,TP9*%
X227584000Y-116586000D03*
%TD*%
D16*
%TO.C,SW1*%
X115447559Y-59489198D03*
%TD*%
D38*
%TO.C,U4*%
X195147000Y-127350000D03*
X195147000Y-128300000D03*
X195147000Y-129250000D03*
X197847000Y-129250000D03*
X197847000Y-127350000D03*
%TD*%
D14*
%TO.C,R9*%
X196147000Y-123775000D03*
X196147000Y-125425000D03*
%TD*%
D21*
%TO.C,C18*%
X237115000Y-103750000D03*
X235565000Y-103750000D03*
%TD*%
D12*
%TO.C,C22*%
X184344500Y-84098800D03*
X184344500Y-85648800D03*
%TD*%
D20*
%TO.C,TP2*%
X245872000Y-124561600D03*
%TD*%
D39*
%TO.C,J6*%
X144730000Y-59275000D03*
X146000000Y-59275000D03*
X147270000Y-59275000D03*
X148540000Y-59275000D03*
X149810000Y-59275000D03*
X151080000Y-59275000D03*
X152350000Y-59275000D03*
X153620000Y-59275000D03*
%TD*%
D12*
%TO.C,C12*%
X225347000Y-130250000D03*
X225347000Y-131800000D03*
%TD*%
D20*
%TO.C,TP6*%
X229971600Y-116586000D03*
%TD*%
D15*
%TO.C,REF\u002A\u002A*%
X241500000Y-96750000D03*
%TD*%
D40*
%TO.C,C5*%
X244040000Y-122700000D03*
X244040000Y-121150000D03*
%TD*%
D20*
%TO.C,TP5*%
X166497000Y-102743000D03*
%TD*%
D41*
%TO.C,Q1*%
X204834500Y-129300000D03*
X204834500Y-127400000D03*
X202959500Y-128350000D03*
%TD*%
D19*
%TO.C,D12*%
X182548000Y-117725000D03*
X182548000Y-119775000D03*
%TD*%
D42*
%TO.C,D24*%
X207397000Y-126700000D03*
X207397000Y-130000000D03*
%TD*%
D28*
%TO.C,D2*%
X110659438Y-88200122D03*
X112585808Y-88901264D03*
%TD*%
D12*
%TO.C,C24*%
X166056500Y-84111800D03*
X166056500Y-85661800D03*
%TD*%
D25*
%TO.C,R10*%
X198147000Y-125425000D03*
X198147000Y-123775000D03*
%TD*%
D13*
%TO.C,D21*%
X233324516Y-70298855D03*
X231398146Y-70999997D03*
%TD*%
D43*
%TO.C,R3*%
X241790000Y-123150000D03*
X240623274Y-121983274D03*
%TD*%
D44*
%TO.C,JP2*%
X208168000Y-122478800D03*
D45*
X206868000Y-122478800D03*
%TD*%
D17*
%TO.C,SW14*%
X170600000Y-125451000D03*
X179900000Y-125451000D03*
X170600000Y-129951000D03*
X179900000Y-129951000D03*
%TD*%
D32*
%TO.C,D13*%
X206893874Y-52241429D03*
X207595016Y-54167799D03*
%TD*%
D16*
%TO.C,SW5*%
X151249848Y-72520165D03*
%TD*%
D46*
%TO.C,Y1*%
X239492081Y-123447919D03*
X237936446Y-121892284D03*
X236734365Y-123094365D03*
X238290000Y-124650000D03*
%TD*%
D47*
%TO.C,R8*%
X229265000Y-103750000D03*
X230915000Y-103750000D03*
%TD*%
D48*
%TO.C,J4*%
X171450000Y-77216000D03*
D49*
X173990000Y-77216000D03*
X176530000Y-77216000D03*
X179070000Y-77216000D03*
%TD*%
D13*
%TO.C,D20*%
X221938855Y-94715484D03*
X220012485Y-95416626D03*
%TD*%
D12*
%TO.C,C15*%
X231347000Y-130250000D03*
X231347000Y-131800000D03*
%TD*%
D47*
%TO.C,R7*%
X229265000Y-102250000D03*
X230915000Y-102250000D03*
%TD*%
D15*
%TO.C,REF\u002A\u002A*%
X139039600Y-78232000D03*
%TD*%
D50*
%TO.C,C1*%
X236571631Y-125931631D03*
X235475615Y-124835615D03*
%TD*%
D40*
%TO.C,C20*%
X170120500Y-85661800D03*
X170120500Y-84111800D03*
%TD*%
D51*
%TO.C,SW24*%
X249687000Y-119609000D03*
X249687000Y-113309000D03*
X253487000Y-119609000D03*
X253487000Y-113309000D03*
%TD*%
D15*
%TO.C,REF\u002A\u002A*%
X103000000Y-49000000D03*
%TD*%
D13*
%TO.C,D22*%
X239840000Y-88200000D03*
X237913630Y-88901142D03*
%TD*%
D21*
%TO.C,C11*%
X204672000Y-125600000D03*
X203122000Y-125600000D03*
%TD*%
D20*
%TO.C,TP1*%
X245872000Y-126593600D03*
%TD*%
D16*
%TO.C,SW8*%
X165724623Y-52050693D03*
%TD*%
%TO.C,SW15*%
X184774623Y-52050693D03*
%TD*%
D40*
%TO.C,C23*%
X171771500Y-85661800D03*
X171771500Y-84111800D03*
%TD*%
D12*
%TO.C,C9*%
X221347000Y-130250000D03*
X221347000Y-131800000D03*
%TD*%
D25*
%TO.C,R1*%
X239927000Y-110045000D03*
X239927000Y-108395000D03*
%TD*%
D18*
%TO.C,SW11*%
X203304820Y-49690094D03*
X206485607Y-58429235D03*
X199076203Y-51229185D03*
X202256990Y-59968326D03*
%TD*%
D16*
%TO.C,SW6*%
X144734364Y-90421310D03*
%TD*%
D12*
%TO.C,C13*%
X227347000Y-130250000D03*
X227347000Y-131800000D03*
%TD*%
D32*
%TO.C,D9*%
X215579858Y-49127630D03*
X216281000Y-51054000D03*
%TD*%
D16*
%TO.C,SW19*%
X217151187Y-66004910D03*
%TD*%
D15*
%TO.C,REF\u002A\u002A*%
X247500000Y-131750000D03*
%TD*%
D32*
%TO.C,D11*%
X198201716Y-55405116D03*
X198902858Y-57331486D03*
%TD*%
D52*
%TO.C,D7*%
X163398571Y-121786815D03*
X162697429Y-123713185D03*
%TD*%
D40*
%TO.C,C21*%
X182693500Y-85661800D03*
X182693500Y-84111800D03*
%TD*%
D28*
%TO.C,D1*%
X117175374Y-70298627D03*
X119101744Y-70999769D03*
%TD*%
D13*
%TO.C,D19*%
X217117185Y-76154229D03*
X215190815Y-76855371D03*
%TD*%
D20*
%TO.C,TP4*%
X229971600Y-113538000D03*
%TD*%
D53*
%TO.C,R6*%
X204722000Y-131100000D03*
X203072000Y-131100000D03*
%TD*%
D12*
%TO.C,C7*%
X245540000Y-121150000D03*
X245540000Y-122700000D03*
%TD*%
D16*
%TO.C,SW20*%
X223666670Y-83906055D03*
%TD*%
D54*
%TO.C,JP1*%
X223505000Y-125857000D03*
D55*
X224805000Y-125857000D03*
%TD*%
D16*
%TO.C,SW2*%
X108932075Y-77390342D03*
%TD*%
D14*
%TO.C,R11*%
X180661500Y-84061800D03*
X180661500Y-85711800D03*
%TD*%
D51*
%TO.C,SW23*%
X249687000Y-128245000D03*
X249687000Y-121945000D03*
X253487000Y-128245000D03*
X253487000Y-121945000D03*
%TD*%
D56*
%TO.C,U2*%
X210297000Y-126600000D03*
X210297000Y-128900000D03*
D57*
X216597000Y-128900000D03*
D56*
X210297000Y-131200000D03*
%TD*%
D28*
%TO.C,D4*%
X128561035Y-94715255D03*
X130487405Y-95416397D03*
%TD*%
%TO.C,D5*%
X152977663Y-83329594D03*
X154904033Y-84030736D03*
%TD*%
D48*
%TO.C,J2*%
X252989000Y-104902000D03*
D49*
X250449000Y-104902000D03*
X252989000Y-107442000D03*
X250449000Y-107442000D03*
X252989000Y-109982000D03*
X250449000Y-109982000D03*
%TD*%
D58*
%TO.C,J5*%
X102176000Y-94600000D03*
D59*
X102176000Y-96600000D03*
%TD*%
M02*
