%TF.GenerationSoftware,KiCad,Pcbnew,8.0.2-1*%
%TF.CreationDate,2024-05-28T17:04:48-06:00*%
%TF.ProjectId,magicfingers,6d616769-6366-4696-9e67-6572732e6b69,rev?*%
%TF.SameCoordinates,Original*%
%TF.FileFunction,Legend,Bot*%
%TF.FilePolarity,Positive*%
%FSLAX46Y46*%
G04 Gerber Fmt 4.6, Leading zero omitted, Abs format (unit mm)*
G04 Created by KiCad (PCBNEW 8.0.2-1) date 2024-05-28 17:04:48*
%MOMM*%
%LPD*%
G01*
G04 APERTURE LIST*
%ADD10C,0.150000*%
%ADD11C,0.120000*%
G04 APERTURE END LIST*
D10*
X251919000Y-102241771D02*
X251919000Y-102670342D01*
X251919000Y-102670342D02*
X251947571Y-102756057D01*
X251947571Y-102756057D02*
X252004714Y-102813200D01*
X252004714Y-102813200D02*
X252090428Y-102841771D01*
X252090428Y-102841771D02*
X252147571Y-102841771D01*
X251661857Y-102298914D02*
X251633285Y-102270342D01*
X251633285Y-102270342D02*
X251576143Y-102241771D01*
X251576143Y-102241771D02*
X251433285Y-102241771D01*
X251433285Y-102241771D02*
X251376143Y-102270342D01*
X251376143Y-102270342D02*
X251347571Y-102298914D01*
X251347571Y-102298914D02*
X251319000Y-102356057D01*
X251319000Y-102356057D02*
X251319000Y-102413200D01*
X251319000Y-102413200D02*
X251347571Y-102498914D01*
X251347571Y-102498914D02*
X251690428Y-102841771D01*
X251690428Y-102841771D02*
X251319000Y-102841771D01*
X230449999Y-42312628D02*
X230478571Y-42341200D01*
X230478571Y-42341200D02*
X230564285Y-42369771D01*
X230564285Y-42369771D02*
X230621428Y-42369771D01*
X230621428Y-42369771D02*
X230707142Y-42341200D01*
X230707142Y-42341200D02*
X230764285Y-42284057D01*
X230764285Y-42284057D02*
X230792856Y-42226914D01*
X230792856Y-42226914D02*
X230821428Y-42112628D01*
X230821428Y-42112628D02*
X230821428Y-42026914D01*
X230821428Y-42026914D02*
X230792856Y-41912628D01*
X230792856Y-41912628D02*
X230764285Y-41855485D01*
X230764285Y-41855485D02*
X230707142Y-41798342D01*
X230707142Y-41798342D02*
X230621428Y-41769771D01*
X230621428Y-41769771D02*
X230564285Y-41769771D01*
X230564285Y-41769771D02*
X230478571Y-41798342D01*
X230478571Y-41798342D02*
X230449999Y-41826914D01*
X229935714Y-41969771D02*
X229935714Y-42369771D01*
X230078571Y-41741200D02*
X230221428Y-42169771D01*
X230221428Y-42169771D02*
X229849999Y-42169771D01*
X231949999Y-42369771D02*
X232149999Y-42084057D01*
X232292856Y-42369771D02*
X232292856Y-41769771D01*
X232292856Y-41769771D02*
X232064285Y-41769771D01*
X232064285Y-41769771D02*
X232007142Y-41798342D01*
X232007142Y-41798342D02*
X231978571Y-41826914D01*
X231978571Y-41826914D02*
X231949999Y-41884057D01*
X231949999Y-41884057D02*
X231949999Y-41969771D01*
X231949999Y-41969771D02*
X231978571Y-42026914D01*
X231978571Y-42026914D02*
X232007142Y-42055485D01*
X232007142Y-42055485D02*
X232064285Y-42084057D01*
X232064285Y-42084057D02*
X232292856Y-42084057D01*
X231435714Y-41969771D02*
X231435714Y-42369771D01*
X231578571Y-41741200D02*
X231721428Y-42169771D01*
X231721428Y-42169771D02*
X231349999Y-42169771D01*
X99676000Y-95369771D02*
X99676000Y-95798342D01*
X99676000Y-95798342D02*
X99704571Y-95884057D01*
X99704571Y-95884057D02*
X99761714Y-95941200D01*
X99761714Y-95941200D02*
X99847428Y-95969771D01*
X99847428Y-95969771D02*
X99904571Y-95969771D01*
X99104571Y-95369771D02*
X99390285Y-95369771D01*
X99390285Y-95369771D02*
X99418857Y-95655485D01*
X99418857Y-95655485D02*
X99390285Y-95626914D01*
X99390285Y-95626914D02*
X99333143Y-95598342D01*
X99333143Y-95598342D02*
X99190285Y-95598342D01*
X99190285Y-95598342D02*
X99133143Y-95626914D01*
X99133143Y-95626914D02*
X99104571Y-95655485D01*
X99104571Y-95655485D02*
X99076000Y-95712628D01*
X99076000Y-95712628D02*
X99076000Y-95855485D01*
X99076000Y-95855485D02*
X99104571Y-95912628D01*
X99104571Y-95912628D02*
X99133143Y-95941200D01*
X99133143Y-95941200D02*
X99190285Y-95969771D01*
X99190285Y-95969771D02*
X99333143Y-95969771D01*
X99333143Y-95969771D02*
X99390285Y-95941200D01*
X99390285Y-95941200D02*
X99418857Y-95912628D01*
X228949999Y-42369771D02*
X229149999Y-42084057D01*
X229292856Y-42369771D02*
X229292856Y-41769771D01*
X229292856Y-41769771D02*
X229064285Y-41769771D01*
X229064285Y-41769771D02*
X229007142Y-41798342D01*
X229007142Y-41798342D02*
X228978571Y-41826914D01*
X228978571Y-41826914D02*
X228949999Y-41884057D01*
X228949999Y-41884057D02*
X228949999Y-41969771D01*
X228949999Y-41969771D02*
X228978571Y-42026914D01*
X228978571Y-42026914D02*
X229007142Y-42055485D01*
X229007142Y-42055485D02*
X229064285Y-42084057D01*
X229064285Y-42084057D02*
X229292856Y-42084057D01*
X228407142Y-41769771D02*
X228692856Y-41769771D01*
X228692856Y-41769771D02*
X228721428Y-42055485D01*
X228721428Y-42055485D02*
X228692856Y-42026914D01*
X228692856Y-42026914D02*
X228635714Y-41998342D01*
X228635714Y-41998342D02*
X228492856Y-41998342D01*
X228492856Y-41998342D02*
X228435714Y-42026914D01*
X228435714Y-42026914D02*
X228407142Y-42055485D01*
X228407142Y-42055485D02*
X228378571Y-42112628D01*
X228378571Y-42112628D02*
X228378571Y-42255485D01*
X228378571Y-42255485D02*
X228407142Y-42312628D01*
X228407142Y-42312628D02*
X228435714Y-42341200D01*
X228435714Y-42341200D02*
X228492856Y-42369771D01*
X228492856Y-42369771D02*
X228635714Y-42369771D01*
X228635714Y-42369771D02*
X228692856Y-42341200D01*
X228692856Y-42341200D02*
X228721428Y-42312628D01*
D11*
%TO.C,SW17*%
X193475941Y-77122813D02*
X193800860Y-78015521D01*
X193475941Y-77122813D02*
X195355326Y-76438772D01*
X195083436Y-81539368D02*
X194758517Y-80646660D01*
X195083436Y-81539368D02*
X196962821Y-80855328D01*
X205299312Y-73936844D02*
X203701835Y-74518278D01*
X205299312Y-73936844D02*
X205624231Y-74829552D01*
X206906807Y-78353399D02*
X205309329Y-78934834D01*
X206906807Y-78353399D02*
X206598989Y-77507676D01*
%TO.C,SW16*%
X196181976Y-107372268D02*
X196763410Y-108969745D01*
X196181976Y-107372268D02*
X197074684Y-107047349D01*
X199367945Y-119195639D02*
X198683904Y-117316254D01*
X199367945Y-119195639D02*
X200260653Y-118870720D01*
X200598531Y-105764773D02*
X199752808Y-106072591D01*
X200598531Y-105764773D02*
X201179966Y-107362251D01*
X203784500Y-117588144D02*
X202891792Y-117913063D01*
X203784500Y-117588144D02*
X203100460Y-115708759D01*
%TO.C,SW3*%
X124359613Y-70235373D02*
X124684532Y-69342665D01*
X124359613Y-70235373D02*
X126238998Y-70919413D01*
X125967107Y-65818818D02*
X125642188Y-66711526D01*
X125967107Y-65818818D02*
X127846493Y-66502858D01*
X135464741Y-75394696D02*
X133867264Y-74813262D01*
X135464741Y-75394696D02*
X135772561Y-74548973D01*
X137072236Y-70978141D02*
X135474759Y-70396706D01*
X137072236Y-70978141D02*
X136747317Y-71870849D01*
%TO.C,SW18*%
X199991425Y-95023957D02*
X200316344Y-95916665D01*
X199991425Y-95023957D02*
X201870810Y-94339916D01*
X201598920Y-99440512D02*
X201274001Y-98547804D01*
X201598920Y-99440512D02*
X203478305Y-98756472D01*
X211814796Y-91837988D02*
X210217319Y-92419422D01*
X211814796Y-91837988D02*
X212139715Y-92730696D01*
X213422291Y-96254543D02*
X211824813Y-96835978D01*
X213422291Y-96254543D02*
X213114473Y-95408820D01*
%TO.C,SW7*%
X155548470Y-120802454D02*
X156232510Y-118923068D01*
X155548470Y-120802454D02*
X156441178Y-121127373D01*
X159965025Y-122409948D02*
X159072317Y-122085029D01*
X159965025Y-122409948D02*
X160649065Y-120530563D01*
X160707793Y-109697325D02*
X160126358Y-111294802D01*
X160707793Y-109697325D02*
X161600501Y-110022244D01*
X165124348Y-111304820D02*
X164278625Y-110997000D01*
X165124348Y-111304820D02*
X164542914Y-112902297D01*
%TO.C,SW21*%
X229278230Y-64091845D02*
X229603149Y-64984553D01*
X229278230Y-64091845D02*
X231157615Y-63407804D01*
X230885725Y-68508400D02*
X230560806Y-67615692D01*
X230885725Y-68508400D02*
X232765110Y-67824360D01*
X241101601Y-60905876D02*
X239504124Y-61487310D01*
X241101601Y-60905876D02*
X241426520Y-61798584D01*
X242709096Y-65322431D02*
X241111618Y-65903866D01*
X242709096Y-65322431D02*
X242401278Y-64476708D01*
%TO.C,SW22*%
X235793714Y-81992990D02*
X236118633Y-82885698D01*
X235793714Y-81992990D02*
X237673099Y-81308949D01*
X237401209Y-86409545D02*
X237076290Y-85516837D01*
X237401209Y-86409545D02*
X239280594Y-85725505D01*
X247617085Y-78807021D02*
X246019608Y-79388455D01*
X247617085Y-78807021D02*
X247942004Y-79699729D01*
X249224580Y-83223576D02*
X247627102Y-83805011D01*
X249224580Y-83223576D02*
X248916762Y-82377853D01*
%TO.C,SW4*%
X117844130Y-88136518D02*
X118169049Y-87243810D01*
X117844130Y-88136518D02*
X119723515Y-88820558D01*
X119451624Y-83719963D02*
X119126705Y-84612671D01*
X119451624Y-83719963D02*
X121331010Y-84404003D01*
X128949258Y-93295841D02*
X127351781Y-92714407D01*
X128949258Y-93295841D02*
X129257078Y-92450118D01*
X130556753Y-88879286D02*
X128959276Y-88297851D01*
X130556753Y-88879286D02*
X130231834Y-89771994D01*
%TO.C,SW1*%
X106458469Y-63719890D02*
X106783388Y-62827182D01*
X106458469Y-63719890D02*
X108337854Y-64403930D01*
X108065963Y-59303335D02*
X107741044Y-60196043D01*
X108065963Y-59303335D02*
X109945349Y-59987375D01*
X117563597Y-68879213D02*
X115966120Y-68297779D01*
X117563597Y-68879213D02*
X117871417Y-68033490D01*
X119171092Y-64462658D02*
X117573615Y-63881223D01*
X119171092Y-64462658D02*
X118846173Y-65355366D01*
%TO.C,SW5*%
X142260758Y-76750857D02*
X142585677Y-75858149D01*
X142260758Y-76750857D02*
X144140143Y-77434897D01*
X143868252Y-72334302D02*
X143543333Y-73227010D01*
X143868252Y-72334302D02*
X145747638Y-73018342D01*
X153365886Y-81910180D02*
X151768409Y-81328746D01*
X153365886Y-81910180D02*
X153673706Y-81064457D01*
X154973381Y-77493625D02*
X153375904Y-76912190D01*
X154973381Y-77493625D02*
X154648462Y-78386333D01*
%TO.C,SW8*%
X158724623Y-54400693D02*
X158724623Y-55350693D01*
X158724623Y-54400693D02*
X160724623Y-54400693D01*
X158724623Y-59100693D02*
X158724623Y-58150693D01*
X158724623Y-59100693D02*
X160724623Y-59100693D01*
X170924623Y-55450693D02*
X169224623Y-55450693D01*
X170924623Y-55450693D02*
X170924623Y-56400693D01*
X170924623Y-60150693D02*
X169224623Y-60150693D01*
X170924623Y-60150693D02*
X170924623Y-59250693D01*
%TO.C,SW15*%
X177774623Y-54400693D02*
X177774623Y-55350693D01*
X177774623Y-54400693D02*
X179774623Y-54400693D01*
X177774623Y-59100693D02*
X177774623Y-58150693D01*
X177774623Y-59100693D02*
X179774623Y-59100693D01*
X189974623Y-55450693D02*
X188274623Y-55450693D01*
X189974623Y-55450693D02*
X189974623Y-56400693D01*
X189974623Y-60150693D02*
X188274623Y-60150693D01*
X189974623Y-60150693D02*
X189974623Y-59250693D01*
%TO.C,SW6*%
X135745274Y-94652002D02*
X136070193Y-93759294D01*
X135745274Y-94652002D02*
X137624659Y-95336042D01*
X137352768Y-90235447D02*
X137027849Y-91128155D01*
X137352768Y-90235447D02*
X139232154Y-90919487D01*
X146850402Y-99811325D02*
X145252925Y-99229891D01*
X146850402Y-99811325D02*
X147158222Y-98965602D01*
X148457897Y-95394770D02*
X146860420Y-94813335D01*
X148457897Y-95394770D02*
X148132978Y-96287478D01*
%TO.C,SW19*%
X211377086Y-70607329D02*
X211702005Y-71500037D01*
X211377086Y-70607329D02*
X213256471Y-69923288D01*
X212984581Y-75023884D02*
X212659662Y-74131176D01*
X212984581Y-75023884D02*
X214863966Y-74339844D01*
X223200457Y-67421360D02*
X221602980Y-68002794D01*
X223200457Y-67421360D02*
X223525376Y-68314068D01*
X224807952Y-71837915D02*
X223210474Y-72419350D01*
X224807952Y-71837915D02*
X224500134Y-70992192D01*
%TO.C,SW20*%
X217892569Y-88508474D02*
X218217488Y-89401182D01*
X217892569Y-88508474D02*
X219771954Y-87824433D01*
X219500064Y-92925029D02*
X219175145Y-92032321D01*
X219500064Y-92925029D02*
X221379449Y-92240989D01*
X229715940Y-85322505D02*
X228118463Y-85903939D01*
X229715940Y-85322505D02*
X230040859Y-86215213D01*
X231323435Y-89739060D02*
X229725957Y-90320495D01*
X231323435Y-89739060D02*
X231015617Y-88893337D01*
%TO.C,SW2*%
X99942985Y-81621034D02*
X100267904Y-80728326D01*
X99942985Y-81621034D02*
X101822370Y-82305074D01*
X101550479Y-77204479D02*
X101225560Y-78097187D01*
X101550479Y-77204479D02*
X103429865Y-77888519D01*
X111048113Y-86780357D02*
X109450636Y-86198923D01*
X111048113Y-86780357D02*
X111355933Y-85934634D01*
X112655608Y-82363802D02*
X111058131Y-81782367D01*
X112655608Y-82363802D02*
X112330689Y-83256510D01*
%TO.C,J2*%
X249119000Y-103572000D02*
X249119000Y-111312000D01*
X251719000Y-103572000D02*
X249119000Y-103572000D01*
X251719000Y-106172000D02*
X251719000Y-103572000D01*
X254319000Y-103572000D02*
X252989000Y-103572000D01*
X254319000Y-104902000D02*
X254319000Y-103572000D01*
X254319000Y-106172000D02*
X251719000Y-106172000D01*
X254319000Y-106172000D02*
X254319000Y-111312000D01*
X254319000Y-111312000D02*
X249119000Y-111312000D01*
%TO.C,C4*%
X229840000Y-44240580D02*
X229840000Y-43959420D01*
X230860000Y-44240580D02*
X230860000Y-43959420D01*
%TO.C,R4*%
X231327500Y-44337258D02*
X231327500Y-43862742D01*
X232372500Y-44337258D02*
X232372500Y-43862742D01*
%TO.C,R5*%
X228327500Y-43862742D02*
X228327500Y-44337258D01*
X229372500Y-43862742D02*
X229372500Y-44337258D01*
%TD*%
M02*
